<mxfile host="app.diagrams.net" agent="Mozilla/5.0 (Macintosh; Intel Mac OS X 10_15_7) AppleWebKit/605.1.15 (KHTML, like Gecko) Version/18.0 Safari/605.1.15" version="26.0.5">
  <diagram name="第 1 页" id="GWYdhaWzslSyc-AW8sdf">
    <mxGraphModel dx="954" dy="647" grid="1" gridSize="10" guides="1" tooltips="1" connect="1" arrows="1" fold="1" page="1" pageScale="1" pageWidth="827" pageHeight="1169" math="0" shadow="0">
      <root>
        <mxCell id="0" />
        <mxCell id="1" parent="0" />
        <mxCell id="WLZEM4pNa57AKpbWbVrL-7" value="" style="group" vertex="1" connectable="0" parent="1">
          <mxGeometry x="40" y="50" width="220" height="180" as="geometry" />
        </mxCell>
        <mxCell id="WLZEM4pNa57AKpbWbVrL-2" value="" style="shape=image;verticalLabelPosition=bottom;labelBackgroundColor=default;verticalAlign=top;aspect=fixed;imageAspect=0;image=data:image/png,iVBORw0KGgoAAAANSUhEUgAAAMgAAADICAYAAACtWK6eAAAVR0lEQVR4nO3djVXb2NqG4WdXEKWCiAoQFYxcAaaCiAowFYyoAFPBiApiKkCuAFFBRAWRK+C79W04/Blt+Y9Y0r7XupZyZkIGb+m1ZNnkGPm+qn8QIHoS4LlQ1utKWc9VKJ5UmMO34wx82y9CPRCxrAC7qEIua44Cvi1m4Nu8AMcYI5b933+jCrmkGW5QwbdBfkA263koEu1nmV6GxbdGfkBWL8AZEkmhulEpOyxXqOBrmYGvXQHqwZggQBerMIUflJb5AXEXoOuD8b4KU/hBceQHpLkx/kOAPlbhFDP4lmTg+1iAejDG+IrmWFaEb9h1M5yigu9VBr63/cQUAbbVPQqUstsKuVYrQoBYL9tDbKsKp5jB95SB76X/kGjzHlAfaLmsCrsoQKwX2xiYTHZQfGTgswfaLSKs2wKZrAJ/o1D2ZsIYP7BuuaQTVBh0BkMvwn+ot+s0xxQz7FOx7NnwJ9apwCnq7WAzGHIRbhFg1eZIZZ9t97lQ9vv8iVWrMEKBQWYw1CLcIsAq3WOCXN0qlL38+werVGGEAoPLYIhFuEWAVbpAqm43QarVbh9XOEKpgWUwtALcIVT77pGoP8+ioVY/m9SPfYQKg8lgSAW4RYS2XSNRP0sl/Yu2FRihwiAyGFL/IVH7zjFFn0tkH+M3tCmTvbs1iAyGUiI7IG1aINH+3brdVRFytR+SE8zQ+4YyIBFuEaBNI+QaVhFytRuSCkco1fMMhtAdIrTpFJmGWb1GudoNSYF6SHqdQd+b4BJtOkWmYTfGL7Sp9+tl0OcC/Ea9dXWFCXx2HS7hqsIB6m0vM+hzU5zB1T0i+F6a4RiuLpCqpxn0tVD27OFqgQilfK8LUKrd65EDlOphBn0tU7sP6J1jCt/HYtm7f66ukaiHGfSxAH/g6h4RfJ83wzGaqnCAeturDPpYqnYfoRghl6+pUO0uVS+QqmcZ9LE/CNDUDcbwuZviDE2VsmeRXmXQtxK1+0jJAUr52hTgD1ydIlOPMuhbMxyjqTli+VYpk/umR+/OygZ9KsAfuDrBDL72RbiDq++o0Iv6NiCJ3JdXDwjlW6dc7h+yOkWmnmTQp2Y4RlMXSOVbp0TuJ6AbjNGLDPpSgD9wdYQCvtUL0GaNe3Nc9eaBUCz3u74PCOXbpBmO0dQIuXqQQV9K5X5z8AoT+NavXr9LNHWBVD3IoC/lcr+AHCGXb5NCud9ZnyNWDzLoS49w1afH+zcr1fx3/1b4js7XlwMmlvv1xxyxfNsok/tNwyMU6HQGfWgC13XxFerf59u8eh1d632OKTpdXwYklfsF+glm8G1eLPcZ+wKpOp5BH8rlfoF+gFK+bfWIpuaI1fEM+tBvhGrOwLe9Chzis+p/f4RO15eD5hFN3SOCb3vlcp+1O398df4BUH3g36GpOWL5tlkq9+u+A5TqcAZdL9ZAXjDuWancAzJCrg5n0PXG+IWmLpDKt81iuZ+YRsjV4Qy6XqoBPJPtYbHcA3KBVB3OoOul8gPyNwrwB01dIFWHM+h6qfyA/K0e0dQFUnU4g66Xy3278QClfNvuEU3dYIzOZtD1crkHpA+Pcx97RFNzxOpwBl0vlx+Qv1WBQ3zWHLE6nEHXy+UH5G+Vq3nt54jV4Qy6Xq7mnVTXh8e5j+VqXvs5YnU4g66Xq3kn1fXhce5juZrXfo5YHc6g6+Vq3kl1fXic+1iu5rWfI1aHM+h6uZp3Ul0fHuc+lqt57eeI1eEMulyEWwRoquuPc1/L1TwgFY5QqqN1/cC5QwRXXX+c+1qu5gGpK1APSSfr8oGTyv0Rk7oHhPLtohmO4eoCqTqYQRcLZc8eAVydIpNvF8Wyl7iuKhyg3nYqgy42wSVczRHLt8syuf+OrLpzTNGpDLpYLve17wIRSvl2WYACP9DUHLE6lkEXe4SrU2TyfUWx3JdaFb6jUxl0rQh3aOoe9e/zfV2Z3JdaByjVoQy6ViL3/8vRBVL5vrJE7v1yikwdyqBrpXLf3j3BDL6vK5b7MusUmTqUQdca4xeaGiGX7yuL5R6Qzu0Xg64Vq4c7ogfF6uF+Mehasdw74gKpfF9ZL8/sBl0rwh2ausEYvq9rijM0dYQCnamLA1L3iKZK2VuKvq/rDhGaMuhUnfuGn8rlfif9FJl8X1E9GPWANDVHrI5l0MWmOENTuew1r2/3ZXK/SXiFCTqVQReLcAdXJ5jBt7sitNkXI+TqWAZdrcAhmqowQgHf9gtwh1DNPSBUBzPoaoncH22oqzDBNXzbK5a9rRvA1Tmm6FwGXS1AKekb2lTKvjdyDd/6/cQEEdq0QCj7RNW5DLpconZnkdflspddvtWr1zrRap1jik5m0PVyuW/5vu8KE/jal8r9IdH3zRGrwxl0vQCl2l9qPXeEAj53AX6j3rZtgVgdX+M+DEhdhFyrDck1EvnalGq1s0cvhqPOoC9FyLXakHxHBV9zvxGqXQvE6sFw1Bn0qQAz/IM2nSKTr6kId2jTPcYo1ZMM+li9k6b4gaZuMIbv86Y4Q1MPSNXDJxuDvhbKXho0VeE7fJ93hwhNHaFA7zLoc/VOO0RTJ5jB97FQ7ieZB4TqaQZ9boozNHWNRL5lpXLfvbrCBL3MoM9FuIOr76jge9tvhGpuhFw9zaDvlXK/WL9AKt/rEtmPljS1QIDeZtD3UrkvEyocoN767EFfn3lDNXeFCXqbQd8LZS8VXM1wAl+71251ByjV4wyGUCb7MW1Xmeybh0MukfvSqu4GY/Q6gyEUqt1ZpC7TcIekPmtM0aYRcvU8g6GUqd1ZpC6XvdyqMIQCXCJRu66RaAAZDKX6ICjV/sOMpeyQFOhzoeyPzkZo0wL17y01gAyG1Bj1wdC2CifI1c8i3CJA284xxSAa2oDUZWp/qfXcKTL1qwi3CNC2ayQaUAZDLNNqQ1JhhAJ9KMItArTtGokGlsFQy7T6kByg3na9O0Ro2xyxBpjBkJviDG27QKpuN8El2naNRAPNYOiNkan93a0DlOpmAX6j3rpaYIJMA87AZy83ZvgBV+eYooslavcu+QKx+vOaa+38gLwUIJf7B6wKHKGLzXCMphaIUMrnB+Rd9YFxB1cHKNWtAvyBqyMU8JGB722Z3He3zjFFl0rkvry6wRi+p/yAfKw+QH6hqTlidaspztDUCWbwPWXg+1iFb/isAkfoUrma/76wBQL4XuUHZHm5mg+muq6t3W+E+rw5YvneZOD7WCb365ADlOpOj2jqGol8bzLwfSyV++fYR8jVnR7R1AVS+d5k4PtYKveAHKBUd3pEUxdI5XuTge9jMxyjqa6tnWtArpHI9yYD38d+I1RzBl2qVPNHaQocwfeqru3kryiUHZCmHhCqW+Vy35k7QCnf/zLwvS2V+/XHNRJ1q1Tux3WBVL7/ZeB7KcBv1NumTjBDl4pwh6YqHKDe+sjA99IUZ3D1HRW6Vqnm1yF1F0jl+/8MfLZY9ue0Xd1gjC6Wyf0GaN0RCgw+PyC2CLcI4GqEXN0slL2EdFVhhAKDzmDoRbhFAFdzxOp2mdqdRSqMUGCwGQy5Mf5DgDaNkKvbhWp3FqmrMEKBQWYw1P5FqvZdYYI+lMo+/rbVj7t+/INriAMSy541QrXvHrHsM+q2+wd1EQLUVShQN8cuqv/8Q7St/v3nyDWgDIZSLPusGWu1FohlD5BtFMt+ziuWHYo25bL//WvU220UoFTzD4YtK5M9mxTofQZ9LsAxUkmh1usEM2zaT6Ra//t4rsAU19i0CLlWH5K6XHZYblChlxn0sWMksi/CN+kUmTYr1uqXdG0qcI5cmxUh13pDUldh9uQGvcqgL0U4wxgBNmmBCTJt1iXqP2eXTXGOTYqQa/0hea6UHZQrlOpBXR+QUPbSJZH99TZ6wBgFNuk/JPqaMtmz3SaFsgf3IbZRgUz2rFKqoxl0rQA/kcg+822zemcmspcNm/QLY3xlmTYfkgCp7Jl4m82e1OtboTMZdKEAxxg/2XYLJLI7cdMmuMTf6AQzbFosO3A/sO0y2e/xBnvfvg/IMcZPAmy7BaZPKmxaKPuR8gB/owoHqLebFmDy5Bu2XYUZrlBgLzPYtyL8RCK7k3bRAjOk2u71cSr7Xkvbnr+P4snroidjrHKAnmOKbRVg8mSV72OVStl1uEKpPWpfBiTUy1CE2l33mGKGCtvuN0K5e/4+MrUrkT1AD+GqlD2L7KJE7b+PdSuQyb7PU+GvZvC3CvATiewz5a56wAyZ7OLvqlB2QFxdI9F6ZbJr5uo7KuyqUPYxJNrN65TnZk9uUOHLM/jqfmL8ZFctMHvlK4plPzbf1A3G2KQZjtHUCLm+plh2UMb4hl1UYfakXsMvy+ArivUyGAF2Vb14sycVvrIJLtHUBVJtViL7HktTI+T6+hLZfXyMXVUhkz0TF9hpBrsqwE9MEGp33SOTHYpSf69Y7jNI/T2eYJN+YYymRsj19wowxgSH2FUFMtlhqbD1DLZdKHsnZ4wAu+gBM0xRaj+KcAdXmdZ/Q+8MU7g6QKn9KJQ9Fib4gV1UYYYLlNpiBtsqlB2MRLtpgXoRpiiwj1X4BlcFUtlLwjbFsmsby90CAfaxCInswPzALsq0xUEx2LQA/2KCXXSN2ZN9L5O9rGxbKfs1F1hW/WelkkK17woT7HvjV9o8qaxaKrsWFdbOYJPGuESo7XaD2ZMKXSlUu1u975vhBK/7D4lWa4EIpbpVInssHWOblbKXs7nWzGDdLjHBtrpHJnuwlOpuqewZddVOkcmWyA7Iqp1jiq4WYIwJDrGtUn1+lm7MYNUC3CLCpj1ghkz2urwv5Xr5WfO2zRHLlmv1r7/BGH0plH2iSLSd1yu57Fm6QusMVinALSKs2wIzZLLfdB8LkGu1Z8E5YtlyrTYg94i14s7vUBESWd+wbgVGqNAqg7YFuEWEdZojkzWEAkzxE22q1yeWbYZjtOkaiYbTGInar8/7CoxQwZlB235hjFW7Rqpuv67YpHrNMrmf+c4xRd0El2hqgUR2mIZYKHtcjfENq5TJvuZzZtCmVKu/8LxGquEOxnMB/sDVAUrZQrW7G/YdFYZcgFT2TdRVukAqRwauQrXbWc/dY4JcvrpE7jtS9ZpFeF2BQzR1iky+ulD2bOpas9cdoFRDBq5uEatd15iggs82wzGaOscUr5vgEk3dYAzfS6naX+3ksq9HPs2gqXrxf6FNp8jke12AP3B1gFJvC9XuzP0dFXwvJXKftZ87wQxLM2jqDhFcnWMK39sSuXfUPSIsq8AhmjpFJt/7ErnXvq5e4yMszeCzYtnLK1fXSORb1gzHaOocUyxrgks0dYMxfB+b4gyujlDgQwaflcl9D3+BUP4Uv6wAf+DqAKWWF8pfZm1aKfc78ddItCSDz3qEq3NM4ftYIvcp/h4RmipwiKZOkcm3rDF+oakK3/Ehg2WN4fpDFwjgW94Mx2jqHFM0NcElmrpGIt9nFThEUyPkepfBsqY4Q1NXmMD3sQB/4OoApZoL5b7MqvAdvuVNcImmrlD/vjcZLOsOEZo6QgHfxxJt5/LquQKHaOoEM/g+Fsr9JFPgCG8yWNYjmloggG95MxyjqXNM0aYJLtHUNRL5PqvAIZoyeNOHf0AR7tDUDcbwfSzAH7g6QKl2hXI/A1b4Dt/yMrnvyh6hwP8yeF8s9/sfF0jlW1Yi9+XVA0KtVr3jDtHUCWbwfSyRe7+MkOtVBu9L5f4si98Rn1evyzGausIEq1T//ks0dY1EvmXFWuOJ3+B9qdwDMkIu3/sC/IGrIxRYpVD+MmuTQrnX7wKpXmXwvlTuATlCAd/bxviFph4Qar0KHKKpEXL5lvWIpi6Q6lUG75vhGE0t+zqfXdx/0dQVJlin+usu0dQFUvmW9Yim5oj1KoP35XL/hQHLvs7X7snlBPXvW6cxfqGpayTyLesRTc0R61UG78vlB2TdpjhDUxVGKLBKEW4RoKkLpPIt6xFNzRHrVQbvy+S+X7zs63z2wPwXriqMUKBNEW4RwNU5pvB97BFNzRHrVQbvS+XeyUco4HtbKPedkucqjFCgqQi3CNCmA5TyLesRTd1gjP9l8L5U7gEZIZdvWbncl6jPVajXssCyItwiQJvmiOVbVr2Gf9DUBVK9yuB9qfyAbFIoe8B/Q5sqjFDgdRFuEaBNC0Qo5VtWLLueTV0g1asM3pfI/Zb8OabwLS+WvVO17pBEuEWANi0Q6+XrfR+LZde0qQukepXB+2Kt8Qf5PhQh1+pDUlevf4A2+eFoV6o1rowM3hfgD5q6wRi+5iLkWm1I6gK0aYFYfjjaNMUZmhoh16sMlvWIpip8h89dhFzth6RtC8Tyw9G2O0Ro6sM8fPgHT+Vy34kZIZevTfWOybW9IfHDsVqh3LffHxDqXQbLmuIMTeWyQ+JrV4Rcmw+JH47V+4UxmrpGoncZLCuWfaHoaoZTVPC5i5Br/SHxw7F6/yKVu/o4zvQug88q5f4Lt+oqZLITWMDXXIRcqw+JH472RfgHE4RyV69tKHssv8ngs1LZ6Vul+j+Qy55Z5ijlW1aEXO2HpN6BsfxwfFYoOxCx7KVUgFW6RqIlGXxW/R8p1X4nLquUHZZcdmAq+GwRcrnX1w/H8o4Ry4qwbvX61l9fakkGTY3xC9uqQC67naPUsAtlz9Q/saxrpPLrFMr+JGUsezDH2l4XSPVJBq4yfb4DN61CLjswuezQDLEAsezOryuQy67PEPsHEWLZbajddIMxPs2gTZl2NyTvK1DKbmv3KOXrY6HsjaBYL4NQb7+iGyRyPAkZtC3V6i/at1kuOyjFkwXqrW//C2UHIUIou60F+BtdYQJnBqsUyp5N/sG+VMoqUCGXbQ7f1xXhG2LZAz9CgAj70j0myNUyg3WKMMEY9aLscwWqJwXq6m2FBQr4Pi9CvY8DRKirt8GTCPtcvY9nyLTCYDy37oC8LpY1xiG6XK6XKhR4rpT1vjn2uWVn+wARngtlPVf/uwBd7R65rBnWzmCbBRgjlvUDQ61Cga8olDXUFpghl1VqSxnssgixXrZDHhjf9npAgVxW/eudZPCVBYhlRfgHPp+re+SyCpT6or56QJYVyw5LLZQfmqFXD0OBUnYgcv3FDPaxCKHsNpb99Q/4+tMDStkBKGWHorZXGXSpWPYyLUIoq/71N/j2rwUKlHqr/mcV9j6DvhTLFssWyxbKn3121fMA1NXbCgUq5OpBBkMqli2UVRfrpVB+mB5Q6qUC1ZMCdfW2Qu8z8H1ehADPxVpeKOuzQm1/8B5Q6vMqFFhWrpcqFPAt6f8AEB66BSDrjOwAAAAASUVORK5CYII=;" vertex="1" parent="WLZEM4pNa57AKpbWbVrL-7">
          <mxGeometry x="15" y="90" width="90" height="90" as="geometry" />
        </mxCell>
        <mxCell id="WLZEM4pNa57AKpbWbVrL-3" value="How&#39;s the &amp;nbsp;temperature ?" style="shape=callout;whiteSpace=wrap;html=1;perimeter=calloutPerimeter;" vertex="1" parent="WLZEM4pNa57AKpbWbVrL-7">
          <mxGeometry width="140" height="80" as="geometry" />
        </mxCell>
        <mxCell id="WLZEM4pNa57AKpbWbVrL-5" value="" style="endArrow=classic;html=1;rounded=0;exitX=1;exitY=0.5;exitDx=0;exitDy=0;entryX=0;entryY=0.25;entryDx=0;entryDy=0;" edge="1" parent="WLZEM4pNa57AKpbWbVrL-7" source="WLZEM4pNa57AKpbWbVrL-2">
          <mxGeometry width="50" height="50" relative="1" as="geometry">
            <mxPoint x="295" y="270" as="sourcePoint" />
            <mxPoint x="145" y="134.5" as="targetPoint" />
          </mxGeometry>
        </mxCell>
        <mxCell id="WLZEM4pNa57AKpbWbVrL-41" value="" style="shape=image;verticalLabelPosition=bottom;labelBackgroundColor=default;verticalAlign=top;aspect=fixed;imageAspect=0;image=data:image/png,iVBORw0KGgoAAAANSUhEUgAAAMgAAADICAYAAACtWK6eAAASD0lEQVR4nO2cwW4cxxGG/5V9CRBATE65iUJyCWBLKyDHAG7dcov8BKKfwPItN4+ewHoDUU9g+RLkNr1PoJVkIIckEHXzKaGBALmYnPxtVRPk7uzszuxUT89sfUCje+llT3VVfdwdLq0ZDMPYiAliGA2YIIbRgAliGA2YIIbRgAliGA2YIIbRgAliGA2YIIbRgAliGA2YIIbRgAliGA2YIIbRgAliGA2YIBnx4MGDO5zw6tWr95yMDJhxGBkQ5Pjpp5/+ziU+/vjj35skeTDjMAYmylFV1S/4ELPZ7H8mSR7MOIwBWZUjYpLkwYzDGIhNckRMkuGZcRgDsE2OiEkyLDMOIzG7yhExSYZjxmEkZD6fH1GOf3H5a442/JuS/Ha5XJ5zbSTCBEmIyFGGJUcXlpTkoUmSDhMkET3IETFJEmKCJKBHOSImSSJMEGUU5IiYJAkwQRRRlCNikihjgiiRQI6ISaKICaJAVzn4ecf3nMDPRz7h1AaTRAkTpGe6ykFes8kdCL/fA7jP0QaTRAETpEf2lSM2t+zjYZIMjgnSE9LUe8sRkf08TJJBMUF6QJq5Nzkisq+HSTIYJsieSBP3LkdE9vcwSQbBBNkDaV41OSJyHQ+TJDkmSEekadXliMj1PEySpJggHZBmTSZHRK7rYZIkwwRpiTRpcjkicn0PkyQJJkgLpDkHkyMicXiYJOqYIDsiTTm4HBGJx8MkUcUE2QFpxmzkiEhcHiaJGibIFqQJs5MjIvF5mCQqmCANSPNlK0dE4vQwSXrHBNmANF32ckQkXg+TpFdMkBqk2UYjR0Ti9jBJesMEWUGabHRyRCR+D5OkF0yQa0hzjVaOiJzDwyTZGxNEkKYavRwROY+HSbIXJgiRZpqMHBE5l4dJ0pmDF0SaaHJyROR8HiZJJw5aEGmeycoRkXN6mCStOVhBpGkmL0dEzuthkrTiIAWRZjkYOSJybg+TZGcOThBpkoOTIyLn9zBJduKgBJHmOFg5IpIHD5NkKwcjiDTFwcsRkXx4mCSNHIQg0gwmxwqSFw+TZCOTF0SawOTYgOTHwySpZdKCSPFNji1InjxMkjUmK4gU3eTYEcmXh0lyg0kKIsU2OVoiefMwSa6YnCBSZJOjI5I/D5PkZyYliBTX5NgTyaOHSTIdQaSoJkdPSD49DlySSQgixTQ5ekby6nHAkoxeECmiyaGE5NfjQCUZtSBSvFHKwdjnl5eX96uqchzH+IDDOkuOcw4/m838Rx999Dp13Aw15NnjACUZrSBStFHJce/evcdVVT3iMkhxxLkTFOVlGLdu3fou1Tkk3x4HJskoBZFijUIOxnp8cXHxNZeP9pGiDkpyzuklX1We8kxnUIZnCXn3OCBJRieIFKkMS442JJUjxEkxvqEUJ0gAZXkmoqieL5yL+fc4EElGJYgUJ3s5Pvnkk6/ZsE8oxxEfJoPXPAPw1du3b19yVkPq4HEAkoxGEClK1nKEGPmq8bz6cJ+xE2zqH/n8JZee9xTnvHFf8mtH/NqcXwscccw5PuPYCX7/M0ryFZdqhLOyHh4Tl2QUgkgxyrDkaENKOeaU41s29jG285oynHJ4xrbk453gK5Nj85/gw/3Mbc5NeJ79c25/zrUKPHKoi8eEJcleECnCGOQoqy1vqdjcL3if8GxJ+HAvPv300xNerwBwh2MT6o3Io4f6eExUkqwFkeSXYcnRhqzkEDEKxnOGHuGlQ36ecPk1Ry289infbn3BpRoSh8cEJZlxZIkkvQxLjjaklGNbjO85Tr7//nsPRRhHkNRT0tt8WMdTxlBAEYYQcuExMUlmHNkhyW5qvE0kkyPAtznPqw2/xuVP7u/4qnGSKhbJmcfmBn1ISTwU2SGGTWQrSXaCSJLHIEe4Uf6WyzUoxwu+rTlBYiR3Sy7vcNyAMZ1T2Lva+ZEYPCYiSVaCSHLLsORoQ1I5Qpx8S/OKghxjBTbiIHJEGNucsW16u/WUryIFlGEIoY4eE5AkG0EkqdnLEeCvWwvU3xi/ZgPOOQ8KX91OKMhzLm9AeZO8igSknh4jlyQLQSSZZVhytCG5HCFW/oR+V6381orN9yOb77hLLNwz/L3WHe5xzA8KjyHw8ZJ7vuaeZ2gJJfao/3AxyatIgOcKdfUYsSQzjkGRJJZhydGG5HIE7t2794RN/A2XN+CHfl+9efPmGZc7wX0eVx8+cZ9zPkYDFOUM/OCPz3vB5vbYAeb1mHl9x+UNwl58C3iXyyQwjlBfj5FKMuMYDEleGZYcbRhEjgDfvryr1hv6PRv3GFuQ837JJn3CPY74pS54fHgV8NgCYz3ldR5zeQNe/3NK8pLLJMi5PUYoyWCCSNLKsORow2ByMOY5Y37F5Q3YcF+w4U7RAJv1Eadv2LDH6AFe8yXffn3RlAeGuyneF4z3BAlhKEeMxWNkkgwiiCRrVHIE+L7+GacvOa5gs22996AcQYwnXPYKr33Ga3/Oay/5sBbGHP7bfY4r+H3nFORXXCZF6u6xEs8ODCZJckEkSaOTI8BGf1etvAKw2Rp/GvN7nlcbPky8xoLDg3C/8Ne84Wb9iA8Djo/n3OM212vwv51TktA8Sz5cg/c6tfdMzOUDfkvt92gi9fcYiSQzjmRIckYpB2PfdNP7BQU5RQ386f2M05ccdSxmH/5O6hQ7QNEeUZInXH7GcQPuEyS5W5efTXG3/aVCnzCm0AceI5AkmSCSlDIsOdowuBwBadBvubwBY7vL2M6wwqbns5l/5HRCMV5ybk3Yl1O4+b7N+TqeN+4POa9BUZec7nNcwTi+YwyPuBwE6QePlbh2IKkkMw51JBmjlSPAJiuw/uHgezblMVYI5+XnGq/YxMe4SS/n4f5z7u+5/20+vIJNX/tqRqlO+dzHXF5nwdgdBoTHCH3hkbEk6oJIEsqw5GhDL83UFxTEY/3tTW2T8bkFamTieebLns7DazgAJccVFOSMgtzl8gab7kMY+4zToEh/eGQqiWqC5PChiHOONmQlR4AN6bGDIOHM/On+rlr5nIPn6f2mmDEVWBGRkqy9ivB5DisyBRi7av13JeSMfeKRoSRqCZJDh6LMOdqQnRwBNlnFaZWnbLIC1+DbmRPK8ZzLK9i0L9i0J+gZyfF/uLyC11q7t+Dzam/UyUPG75EBjDGcxSMzSVQEkcOWYcnRhizlCFCQAuv41QajIC8pyJ+5vIJn6v3VI8LrnfJ6j7m8gtf7FS93zuUVdfHzead83hkyQfrGIyNJehdEDlmGJUcbNsrBJjhZbYI62KwPOQ0KG7HidJ33jOsYSjA3j5ibb7m8gq8in/NV5CWXg8G4OtVM+scjE0lmHL0hhyvDkqMNG+UIsOkKrLzXroPJ7vU8bWGcDivv9dmsKm+vIsx53dunp8xFgQFhLgp0rBnPFPrIIwNJ1oLrihyqDEuONjTKEdgn2SnZ8Nsi9WZlfipO11nwmg4DwpgK7FEz6SePgSWpDa4tcpgyLDnasFWOwL7JTkVdnCk+seZ1K07XGb0gAekrjwEl2RjcrsghyrDkaMNOcgT6SHYKJE6Ha/CMT5aESzV4XY8VmAuHAWFMBXqomfSXx0CSNAa3DQm+DEuONuwsR6CvZBvp6LNm0mceA0iyNbhNSNBlWHK0oZUcgT6TbaSh75pJv3kklmSn4FaRYMuw5GhDazkCfSfb0EejZtJ3Hgkl2Tm4iARZhiVHGzrJEdBItqGLVs2k/zwSSdIluDIsOdrQWY6AVrINPTRrJn3okUCSnYOToMqw5GjDXnIENJNt6KBdM+lHD2VJdgpOginDkqMNe8sR0E620T8paiZ96aEoydbgJIgyLDna0IscAe1kP3jw4M7FxcUjLhvhh37/5PP+y+Xomc1mv+P0S46N8Lz/YP3+ymVrtGsWkf70UJKkMTi5eBmWHG3oTY6AdrI3/InIwUOJav8HrF3Qrtl1pE89FCTZGJxctAxLjjb0KkdAO9kmSD1jESQg/erRsyS1wcnFyrDkaEPvcgS0k22C1DMmQQLStx49SrIWnFykDEuONqjIEdBOtglSz9gECUj/evQkyY3gZPMyLDnaoCZHQDvZJkg9YxQkIH3s0YMkV8HJpmVYcrRBVY6AdrJNkHrGKkhA+tljT0l+Dk42K8OSow3qcgS0k22C1DNmQQLS1x57SPJzcLseZoUkcgR2ja9rsk2QesYuSGAPSZ4ytuIquE9r/nWMBpLJEdBOtglSzxQECbSVhOe++ncEbgS3oyRJ5QhoJ5v7O6z8YwsbeMhreEwAntlj/R/CW2XB8zp0gPsXUKxZW3aV5LocgbXgtkiSXI6AdrK5v4MJUseC53XoAPcvoFizLmyTZFWOQG1wGyQZRI6AdrK5v4MJUseC53XoAPcvoFizrmySpE6OwMbgViQZTI6AdrK5v4MJUseC53XoAPcvoFizfViVZJMcgcbgRJL5kHIEtJPN/R1MkDoWPK9DB7h/AcWa7UuUhHIsN8kR2Bpc2Gg5oBwB7WRzfwcTpI4Fz+vQAe5fQLFmfbBLbw8WXBu0k839HUyQOhY8r0MHuH8BxZqlIuvgItrJ5v4OJkgdC57XoQPcv4BizVKRdXAR7WRzfwcTpI4Fz+vQAe5fQLFmqcg6uIh2srm/gwlSx4LndegA9y+gWLNUZB1cRDvZ3N/BBKljwfM6dID7F1CsWSqyDi6inWzu72CC1LHgeR06wP0LKNYsFVkHF9FONvd3MEHqWPC8Dh3g/gUUa5aKrIOLaCeb+zuYIHUseF6HDnD/Aoo1S0XWwUW0k839HUyQOhY8r0MHuH8BxZqlIuvgItrJ5v4OJkgdC57XoQPcv4BizVKRdXAR7WRzfwcTpI4Fz+vQAe5fQLFmqcg6uIh2srm/gwlSx4LndegA9y+gWLNUZB1cRDvZ3N/BBKljwfM6dID7F1CsWSqyDi6inWzu72CC1LHgeR06wP0LKNYsFVkHF9FONvd3MEHqWPC8Dh3g/gUUa5aKrIOLaCeb+zuYIHUseF6HDnD/Aoo1S0XWwUW0k839HUyQOhY8r0MHuH8BxZqlIuvgItrJ5v4OuwlycOyR0wKKNUtF1sFFtJPN/R1MkFr2yGkBxZqlIuvgItrJ5v4OJkgte+S0gGLNUpF1cBHtZHN/BxOklj1yWkCxZqnIOriIdrK5v4MJUsseOS2gWLNUZB1cRDvZ3N/BBKllj5wWUKxZKrIOLqKdbO7vYILUskdOCyjWLBVZBxfRTjb3dzBBatkjpwUUa5aKrIOLaCeb+zuYILXskdMCijVLRdbBRbSTPZ/Pjy8uLgpsYTab/e3y8vIHLjX4hmPOcZ0lx1ccvcOz/InTbzia+OHt27d/4dwa7ZqlIuvgIlNJdhM8o8f6n350/lOPoeF5CkygZlkHF5lKspvgGT1MkOzIOrjIVJLdBM/oYYJkR9bBRaaS7CZ4Rg8TJDuyDi4ylWQ3wTN6mCDZkXVwkakkuwme0cMEyY6sg4tMJdlN8IweJkh2ZB1cJOdkM7aS097wc4l5VVVHXF7Br53za0su94a5ecgpGcxLgUxr1oasg4vknGzGVnHKntS5YV4KZFqzNmQdXCTnZDO2ilP2pM4N81Ig05q1IevgIjknm7FVnLIndW6YlwKZ1qwNWQcXyTnZjK3ilD2pc8O8FMi0Zm3IOrhIzslmbBWn7EmdG+alQKY1a0PWwUVyTjZjqzhlT+rcMC8FMq1ZG7IOLpJzshlbxSl7UueGeSmQac3akHVwkZyTzdgqTtmTOjfMS4FMa9aGrIOL5JxsxuYxApgbh4QwLwUyrVkbsg4uMpVkHxJTqVnWwUWmkuxDYio1yzq4yFSSfUhMpWZZBxeZSrIPianULOvgIlNJ9iExlZplHVxkKsk+JKZSs6yDi0wl2YfEVGqWdXCRqST7kJhKzbIOLjKVZB8SU6lZ1sFFppLsQ2IqNcs6uAiT/YzTlxyNzGYzByMXTqqqOsEWTJAeoCAlJwdjcpggPWCCTBcTpAdMkOligvSACTJdTJAeMEGmiwnSAybIdDFBesAEmS4mSA+YINPFBOkBE2S6mCA9cP/+/T/yU9k/cNnI5eXlkpORAbdu3foNpzAaefPmzTNO2TIKQQxjKEwQw2jABDGMBkwQw2jABDGMBkwQw2jABDGMBkwQw2jABDGMBkwQw2jABDGMBkwQw2jABDGMBkwQw2jg/z+aH5u1qCrVAAAAAElFTkSuQmCC;" vertex="1" parent="WLZEM4pNa57AKpbWbVrL-7">
          <mxGeometry x="140" y="110" width="60" height="60" as="geometry" />
        </mxCell>
        <mxCell id="WLZEM4pNa57AKpbWbVrL-44" value="SmartHome&lt;div&gt;Control Center&lt;/div&gt;" style="text;html=1;align=center;verticalAlign=middle;resizable=0;points=[];autosize=1;strokeColor=none;fillColor=none;" vertex="1" parent="WLZEM4pNa57AKpbWbVrL-7">
          <mxGeometry x="120" y="83" width="100" height="40" as="geometry" />
        </mxCell>
        <mxCell id="WLZEM4pNa57AKpbWbVrL-8" value="" style="shape=image;verticalLabelPosition=bottom;labelBackgroundColor=default;verticalAlign=top;aspect=fixed;imageAspect=0;image=data:image/png,iVBORw0KGgoAAAANSUhEUgAAAMgAAADICAYAAACtWK6eAAASCElEQVR4nO3cjVHb2BqH8f+pAKWCiApWVBC5ApwK1lSAU8GKCjAVxFQQU0FEBREV4FRwRQV7nzMnTFhihCUd+fP9zTyj3Xuz2Eh69WE7djLGvMkGxJgGNiDGNLABMaaBDYgxDWxAjGlgA2JMAxsQYxrYgBjTwAbEmAY2IMY0sAExpoENiDENbECMaWADYkwDGxBjGtiAGNPABsSYBjYgxjSwATGmwa4OyCcyx+eedoqjbTunMeWSUhkjLSWVkhZ0R1vjaBsS+oemZMx7ZnRFNW2Uo017HoyEjFlXTTO6oo1xtCkJfaNcxnRXSvpMNQ1uUwOS0VfyS2P6quiC/HJQjoaW0HfKyJhYKhpRTYNxNDQ/HLmMia9UGJLBOBpSoXBTbsxQrqjQQBwNJaFH8ktjhlLTKflldI6GMqNLMmZoNzSl6IYckH/JmE0ZZF8e5IdiTN/ImE35TAuKaqgBmUv6m4zZlFuaKDJHQ3ikVMZsTkVnFJWjIfxLx+SJvBMy2xN9f47+A385hgG5p7nCdW9Nz8a/+pvMZjmKKvoPRK7w7vmh8meLKc3VLFf4Mx/JbMYZVRSNDUh7bTZCQhV9pC7uqaaKlgo/77nsV3ZZ99uISkXkKLZchzsgV1SoHb8T/6B13dHiVzW9J6MxTdR9EA/FiEpF5Ci2XIc5IE+U0Ev+3y9pTKnCkf6GFvTSXO/fk9xSoXCm6CKhKf1Dx2pEpSJyFFuuwxyQW5rot4T875nRa1dU6Df/Z37QKg80pVJx+J91TcdoRKUichRbrrDjHJrPtKBnM7qkVWr6QC8t9ecl0D2NqaaYlvrzsY7BiEpF5Ci2XIc5ICMq9dsjpXrbGVX0bK7/Xmbd0kTDmNFbw3vIRlQqIkex5TqOAfmXmrwekFK/v+/rgTIaylz/HcZj8Xob9eYotlyHOSBfaEbPFnROb3m9bh8pVbjZz2ipdj6Rd09NEnokvzw2IyoVkaPYch3mgNzRmJ7levv3vKJCv2X0g7wLmut9ucJZYEwJvVYq/Jx7WipIFb4cI9dxGlGpiBzFluvtHWfffaCank0Uzion5D1RofC/veT//ZL8/59Qk1THvZP3MaJSETmKLdfhDsgNTem1XGFwKnotox/kXVGht/k/69ddQqa9EZWKyFFsucJGPlQXNNd6/I7u10VG3geqaZWE/CClMl2NqFREjmLLFXaKQzalG2qSK/ytyoS8e8r1trnCPYfpbkSlInIUW67DHxBvqXBvcU8VeanCq00ThfXw0hea0SqpwitPpp8RlYrIUWy5jmNA2jqjilaZ0jWZfkZUKiJHseWyAVmlaV2XCmce08+ISkXkKLZcNiCv/aRUb/uXTH8jKhWRo9hy2YC8dk+5VsvoB5n+RlQqIkex5bIBee2GprRKLltfsYyoVESOYstlG/y1e8q1Wi5bX7GMqFREjmLLZRv8tYrOaJVctr5iGVGpiBzFlss2+CpN6/pfMv2NqFREjmLLZQOyygeqaZWK/iLTz4hKReQotlw2IKtc0FyrzWUfM4lhRKUichRbLhuQVW5potUy+kGmnxGVishRbLlsQFapyV9mvaWUvZve14hKReQotlw2IG8ZUanVUoV7kRMy3YyoVESOYstlA/KWUmEjviWjUt2G5Cd9pGM2olIROYotlw1IkxGVeluq8LH4c3rPHS1+VVNGcx3vK2IjKhWRo9hy2YA0qeiM3pMqfGGDz/tE91TTgkqFv5PyWkY/6BiNqFREjmLLZQPynhua0lAWdE7HZkSlInIUWy4bkHVc0FzDKHScX2I9olIROYotlw3IugqFbzqJba7jfONxRKUichRbQv8js54FfaGl4kgV7kESOjYfqKZoHA3hXzLr8xt1RjdUU1cZfSW/PEbR9+foP/CXmk7ItLf41R3VtI5zGtNEx+snpYrM0RAW5Dea6WepUEU1vZRRQrmM5w8oY4pqqAGZ0jUZsykXNFdkjoaQyr4IzWzWKS0VmaOhlArv/hoztHvKNQBHQ8ll74eYzTijiqIbckC8uY7zDSuzObc00UAcDSmhpewlXzOMJ0r15yt80TgaWkalbEhMXH44cg10afVsEwPiTRTe4TUmlguaa2CONiVXeAPRziSmD3/mGFOpDdjkgHgZzegTGdPWPU0U7ms3wtE2TBQ+6v2RjHnPTyq0gUuq1xxt0/hFdullXvKXUosXbcW2B+SlXEFGCZnjU1NFXqkdsEsDYszOsQExpoENiDENbECMaWADYkwDGxBjGtiAGNPABsSYBjYgxjSwATGmgQ2IMQ1sQIxpYANiTAMbEGMa2ICsJ6O/yS+9UuHrZpbaD6nCdyXnCn+VoKJb8kvTwJF5W0LXNNFqc4UvD9hl/1Ch1Rbkn39NZgVH5m3fKVezG5rSLprRJTWpaEQ1mVccmdWmdE3r+EwL2iW5woCv44oKmT84Mqs9Uqr1LBW+H7amXdHm+XsfaJee/05wZP6UKuxgbVxRod0wpXXPfs9GVMr8hyPzp1zrX568dEYVbVNG/rkn1MZnWpB54VAGJKNzenZPpbpL1f4M4tV0Sn65DQl9p4zaGlGp7nL99wsB76iiveZonyX0lcb02lLhqFhRF0t1+2I7/3gjqmnTvtJE7f2kVN1k9I1S/alU2AY17SVH+yqh75TRW2ryG6hUe1O6pi4qGlFNm/KVJurmC82orVxhOBJ6S0WbXhfRONpXfsOM6T01nZJftlXRX9SF/28vyC+HlNA3ytXNA2XUVkKP5JfvuaEp7R1H+yhV2Djr6rqBMvpBXdX0heYaxpi+UkJdjahUezO6pHV9oJr2iqN9VCh8hGJdfsOckl+2NaM2O8IqpcLLwKXiSBUGI1c/dzSmthJ6JL9c1wXNtWcc7aNC7QbEu6JC7fmdoFT3S62XSoWd5Ja6OKcxTdTfE6XqdtAotLn1v1WONiFV+DSs5zfIPVXUVaH2G6imU/LLtlKF53tCMdRUKlTRPa3yibJfjSmhWM6oorYSeiS/bOOKCnWXKqyPVMEdVTQoR0NK6B+a0mulwvV5RW2N6Ru1dUNT6iJXeNXsEFzQXN0UCtu0rRGVai+ha5roTwu6oJoG4WgoCX2njN5S04gqamupbu9TnNJS3UwUrv332S1N1E1Cj+SXbfykVO1l9JX88i0VndEgHA1lrt+XVU2WCjttW4W6HckW9Jm6mihstH10SxN1N9d62/S1LzSjtr5TrvddUaEBOBpCqnCkWdcFzdVOQkt1uy/4TAvqaqL9G5Jbmqi7XGGHbeuJUoWrhTYmWn8dL9XtIPsuR0Mo1O7oXtEZtTWjS2qrplPyy64mCo9/Qrvulibq55FStXdDU2rrO+Va3xlVFJWjISzonNoYUal2UoWVckJtLegz9ZHRXHFeAh7CE01prn5mdElt+cdP1f5AlCoMZBsjKhWZoyEs6JzauKWJ2ivU7mz10hUV6iehQt12oCE90JiW6sf/jG/URdf1O6NLauOMKorK0RCmdE1tndJS7SS0VLeziDeiUv2NaUYfaZueyD+PQv2lCh+1Sagt/zxStT97eP+jhNblH6vNn1+boyGkan+K9K6oUHuFup9FahpRRTEUCgeIE9q0WyoUDhh9JfSdMuriigq1N9H6N+fPbmhK0TkayoLOqY2aTskv26roL+qipq6Pu0pC01+d0NBuqVCcwXj2jcbUxQNl1MUjpWrnlJYagKOhjMmv5LauqFB7Gf2grioaUU0xjWmi9geL9/idcEYLqimmrzRRd2dUUVsThcdu455yDcTRkJbqdk1+Sku1N6NL6qqiEdUUW6qwITPK1f5s95NKhee4oKWG8ZUm6u6GptTFI6Vq54LmGoijIfkVdU1t3dJE7SVU0Ufqyv/3n2mpYSWUkeeXCb1UU0WeX9Y0tK80UXcPlKvbc50oPH4bT5TQYBwNyT/5pbpdh59RRW1l9IP6qGlEFR0Lv3NO1E/XbeY9Uqp2rqjQgBwNrVC3V5hKhZ20iyldUx81faG5DltC3ymjPvy6mlEXhdrvI0+UKmynwTgaWkJLdTuLfKEZdbGgc+prRv55HKKMvlGqfu5oTF2kCmf8hNq4okIDc7QJhdofIbyaTskv20qoVPub4VUquiC/PBSXNKO+HihXt23kfaMxtfFEqbo/5tocbUJCS3U7iyzoM3WR0FLdHneVQuHItc9ShfuNXP39pIxq6iJXuLxr64oKbYCjTSnU7Szi+QFZUBcZlYo3JBV9oVL755IKhQNHX0+UK6yPLhL6Qana8Y+bqvtQtuJoUxKq6CO1VdMZLdVNRqXiDYlXKlx2LbX7xnRNqeJ4olxhe3b1jcbU1hUV2hBHm+RXiF8xXVR0Rl1lVCrukHhzhfdtSu2ec5pSrnieKFfYHl2N6Ru19ZMyqmkjHG1aqfDtFF1cUaHuMioVf0i8UuGm9462KaFzKiSliuuJcvUbjlTh0iqhtj7TgjbG0aalCm8KddV3JWVUapgh8Wpa0A1VtCnnNP5VQrE9Ua5+v1NC3ymjtu4p14Y52oZC3W/YaxpRRV2lCjvxXzSkmhZUKmzgpeJJFc7EY8oVdr6hPNCYlurnK03UzSkttWGOtqWirjtoTafkl10lVKr7c+iipopK/f7nn7TU2zI6Ib9MKNfvf96EexpTTX1M6Zq6uKJCW+BoWzL6QV1VNKKa+ijU/Wx26K6oUH9j+kZd+LNXRlvhaJumdE1dzRVeau0rV7gUOiET7jfGVKq/jL5TQm3555ErHAy3wtG2LeicuporzpAktKBPdMzuaKL+Z2Yvo++UUBdfaEZb42jbElqq39F7rjhD4o1prn7PZx890UThIBFDRn2G447GtFWOdkGusDL7mCvekCRUKHw04xjcUKE4Zw0vI789E+riiVLFez6dOdoVE4WXAftY0AXVFEOqMHif6BDd0ZSWiiej75RQF0+Ua4v3HS852iVzdfty5Jf8ih1RTbHkCkfYT3QI7qlQnJvwl3KFV6sS6uqC5toRjnZNqf47YkUX5JcxZTSlv2kf3dKMKoptov5XADc0pZ3haNckVKr/G3g1faZS8aUKO8RE3T6dvEk/aa7QUsP4hwr1c0dj2imOdlGqcJQ7ob4KhTe8hpLRlMYU4/nG8ERzhSoaSkJfaUx9PFCucFDbKY52VUal4ux0pcLZpKYhZZQr7DCfaJPuaUGlhh2KZxl9o1T9PFCu4bdNJ452WUal4gzJUuG+pNTm5Aq/w3N/UQz3tFQYBF+pzbqkGfW108PhOdp1GZWKMyTejK6opm3JFWSUUJOaKvJKbVeqcEmVq7+dHw7P0T7IqFS8IVlq82eTfXdJhd4f6HU8Ua7fg7+zHO2LjBb0kWLxP++CajKrZfSV/DKGB8q1J+vc0T5JqFS8a3mvphndUE0mSBVevp0ongfKtUfr2dG+SWhBnyimmqZ0S8csoUsqFJdfr1OqaW842ldzDfOO9lJh57ilY5KQH4wpJRSTX5cT7SFH+2xK1zSEmmZ0QzUdqlTxL6Ve+kIz2kuO9l1GC/pIQ5krDEpFh+KcJgpvag7hJ/mfXdHecnQIElrQJxrSUmFYbmmp/ZPR3zRRWGdDuacx1bTXHB2SQuFyYRMqWtAdVbSrPtH4V6mGd0WFDoSjQ5PRXHFfCn5PTQsqFV7KrGhbMvJDkSsMxab433ui7f7u0R3igDwrtLmzySqlws7iWypcdsSUkD8IpApD4cu1HVdU6AA5OmSpwtnkE+2KUkFFNb20VChV6KVUoYQy2gUHedZ4ydExmCi81HhCpr8nKhTW6UE7lgHxEpr+ygaluyuaUU0Hz9GxSWhGf5NZ3y0VCpeAR8PRsUoVNrgNSrNbmuv3vdNRcXTsUoV7lCnZpVfg7zEWVOjIzhivOTJBQhOFQflIx8gPxuxXNR09G5DVxi86hrPKHc0VzhrmBRuQZgmNaaLdei8lhgeaK1STWcEGZH2pwjvVY8q1n2eWOyoVzhRLmXc5Mt3k+j0sf9EueqBSoQWZlmxA4skVPgLy3KaH5ieVCh/78JUyvTkyw8kV5AoySiijE2rjiSrySgWlglJmEDYguyVXUMrsBBsQYxrYgBjTwAbEmAY2IMY0sAExpoENiDENbECMaWADYkwDGxBjGtiAGNPABsSYBjYgxjSwATGmgQ2IMQ1sQIxpYANiTAMbEGMa2IAY08AGxJgGNiDGNPg/UoCy9kKFe8EAAAAASUVORK5CYII=;" vertex="1" parent="1">
          <mxGeometry x="260" y="480" width="40" height="40" as="geometry" />
        </mxCell>
        <mxCell id="WLZEM4pNa57AKpbWbVrL-10" value="" style="shape=image;verticalLabelPosition=bottom;labelBackgroundColor=default;verticalAlign=top;aspect=fixed;imageAspect=0;image=data:image/png,iVBORw0KGgoAAAANSUhEUgAAAMgAAADICAYAAACtWK6eAAASCElEQVR4nO3cjVHb2BqH8f+pAKWCiApWVBC5ApwK1lSAU8GKCjAVxFQQU0FEBREV4FRwRQV7nzMnTFhihCUd+fP9zTyj3Xuz2Eh69WE7djLGvMkGxJgGNiDGNLABMaaBDYgxDWxAjGlgA2JMAxsQYxrYgBjTwAbEmAY2IMY0sAExpoENiDENbECMaWADYkwDGxBjGtiAGNPABsSYBjYgxjSwATGmwa4OyCcyx+eedoqjbTunMeWSUhkjLSWVkhZ0R1vjaBsS+oemZMx7ZnRFNW2Uo017HoyEjFlXTTO6oo1xtCkJfaNcxnRXSvpMNQ1uUwOS0VfyS2P6quiC/HJQjoaW0HfKyJhYKhpRTYNxNDQ/HLmMia9UGJLBOBpSoXBTbsxQrqjQQBwNJaFH8ktjhlLTKflldI6GMqNLMmZoNzSl6IYckH/JmE0ZZF8e5IdiTN/ImE35TAuKaqgBmUv6m4zZlFuaKDJHQ3ikVMZsTkVnFJWjIfxLx+SJvBMy2xN9f47+A385hgG5p7nCdW9Nz8a/+pvMZjmKKvoPRK7w7vmh8meLKc3VLFf4Mx/JbMYZVRSNDUh7bTZCQhV9pC7uqaaKlgo/77nsV3ZZ99uISkXkKLZchzsgV1SoHb8T/6B13dHiVzW9J6MxTdR9EA/FiEpF5Ci2XIc5IE+U0Ev+3y9pTKnCkf6GFvTSXO/fk9xSoXCm6CKhKf1Dx2pEpSJyFFuuwxyQW5rot4T875nRa1dU6Df/Z37QKg80pVJx+J91TcdoRKUichRbrrDjHJrPtKBnM7qkVWr6QC8t9ecl0D2NqaaYlvrzsY7BiEpF5Ci2XIc5ICMq9dsjpXrbGVX0bK7/Xmbd0kTDmNFbw3vIRlQqIkex5TqOAfmXmrwekFK/v+/rgTIaylz/HcZj8Xob9eYotlyHOSBfaEbPFnROb3m9bh8pVbjZz2ipdj6Rd09NEnokvzw2IyoVkaPYch3mgNzRmJ7levv3vKJCv2X0g7wLmut9ucJZYEwJvVYq/Jx7WipIFb4cI9dxGlGpiBzFluvtHWfffaCank0Uzion5D1RofC/veT//ZL8/59Qk1THvZP3MaJSETmKLdfhDsgNTem1XGFwKnotox/kXVGht/k/69ddQqa9EZWKyFFsucJGPlQXNNd6/I7u10VG3geqaZWE/CClMl2NqFREjmLLFXaKQzalG2qSK/ytyoS8e8r1trnCPYfpbkSlInIUW67DHxBvqXBvcU8VeanCq00ThfXw0hea0SqpwitPpp8RlYrIUWy5jmNA2jqjilaZ0jWZfkZUKiJHseWyAVmlaV2XCmce08+ISkXkKLZcNiCv/aRUb/uXTH8jKhWRo9hy2YC8dk+5VsvoB5n+RlQqIkex5bIBee2GprRKLltfsYyoVESOYstlG/y1e8q1Wi5bX7GMqFREjmLLZRv8tYrOaJVctr5iGVGpiBzFlss2+CpN6/pfMv2NqFREjmLLZQOyygeqaZWK/iLTz4hKReQotlw2IKtc0FyrzWUfM4lhRKUichRbLhuQVW5potUy+kGmnxGVishRbLlsQFapyV9mvaWUvZve14hKReQotlw2IG8ZUanVUoV7kRMy3YyoVESOYstlA/KWUmEjviWjUt2G5Cd9pGM2olIROYotlw1IkxGVeluq8LH4c3rPHS1+VVNGcx3vK2IjKhWRo9hy2YA0qeiM3pMqfGGDz/tE91TTgkqFv5PyWkY/6BiNqFREjmLLZQPynhua0lAWdE7HZkSlInIUWy4bkHVc0FzDKHScX2I9olIROYotlw3IugqFbzqJba7jfONxRKUichRbQv8js54FfaGl4kgV7kESOjYfqKZoHA3hXzLr8xt1RjdUU1cZfSW/PEbR9+foP/CXmk7ItLf41R3VtI5zGtNEx+snpYrM0RAW5Dea6WepUEU1vZRRQrmM5w8oY4pqqAGZ0jUZsykXNFdkjoaQyr4IzWzWKS0VmaOhlArv/hoztHvKNQBHQ8ll74eYzTijiqIbckC8uY7zDSuzObc00UAcDSmhpewlXzOMJ0r15yt80TgaWkalbEhMXH44cg10afVsEwPiTRTe4TUmlguaa2CONiVXeAPRziSmD3/mGFOpDdjkgHgZzegTGdPWPU0U7ms3wtE2TBQ+6v2RjHnPTyq0gUuq1xxt0/hFdullXvKXUosXbcW2B+SlXEFGCZnjU1NFXqkdsEsDYszOsQExpoENiDENbECMaWADYkwDGxBjGtiAGNPABsSYBjYgxjSwATGmgQ2IMQ1sQIxpYANiTAMbEGMa2ICsJ6O/yS+9UuHrZpbaD6nCdyXnCn+VoKJb8kvTwJF5W0LXNNFqc4UvD9hl/1Ch1Rbkn39NZgVH5m3fKVezG5rSLprRJTWpaEQ1mVccmdWmdE3r+EwL2iW5woCv44oKmT84Mqs9Uqr1LBW+H7amXdHm+XsfaJee/05wZP6UKuxgbVxRod0wpXXPfs9GVMr8hyPzp1zrX568dEYVbVNG/rkn1MZnWpB54VAGJKNzenZPpbpL1f4M4tV0Sn65DQl9p4zaGlGp7nL99wsB76iiveZonyX0lcb02lLhqFhRF0t1+2I7/3gjqmnTvtJE7f2kVN1k9I1S/alU2AY17SVH+yqh75TRW2ryG6hUe1O6pi4qGlFNm/KVJurmC82orVxhOBJ6S0WbXhfRONpXfsOM6T01nZJftlXRX9SF/28vyC+HlNA3ytXNA2XUVkKP5JfvuaEp7R1H+yhV2Djr6rqBMvpBXdX0heYaxpi+UkJdjahUezO6pHV9oJr2iqN9VCh8hGJdfsOckl+2NaM2O8IqpcLLwKXiSBUGI1c/dzSmthJ6JL9c1wXNtWcc7aNC7QbEu6JC7fmdoFT3S62XSoWd5Ja6OKcxTdTfE6XqdtAotLn1v1WONiFV+DSs5zfIPVXUVaH2G6imU/LLtlKF53tCMdRUKlTRPa3yibJfjSmhWM6oorYSeiS/bOOKCnWXKqyPVMEdVTQoR0NK6B+a0mulwvV5RW2N6Ru1dUNT6iJXeNXsEFzQXN0UCtu0rRGVai+ha5roTwu6oJoG4WgoCX2njN5S04gqamupbu9TnNJS3UwUrv332S1N1E1Cj+SXbfykVO1l9JX88i0VndEgHA1lrt+XVU2WCjttW4W6HckW9Jm6mihstH10SxN1N9d62/S1LzSjtr5TrvddUaEBOBpCqnCkWdcFzdVOQkt1uy/4TAvqaqL9G5Jbmqi7XGGHbeuJUoWrhTYmWn8dL9XtIPsuR0Mo1O7oXtEZtTWjS2qrplPyy64mCo9/Qrvulibq55FStXdDU2rrO+Va3xlVFJWjISzonNoYUal2UoWVckJtLegz9ZHRXHFeAh7CE01prn5mdElt+cdP1f5AlCoMZBsjKhWZoyEs6JzauKWJ2ivU7mz10hUV6iehQt12oCE90JiW6sf/jG/URdf1O6NLauOMKorK0RCmdE1tndJS7SS0VLeziDeiUv2NaUYfaZueyD+PQv2lCh+1Sagt/zxStT97eP+jhNblH6vNn1+boyGkan+K9K6oUHuFup9FahpRRTEUCgeIE9q0WyoUDhh9JfSdMuriigq1N9H6N+fPbmhK0TkayoLOqY2aTskv26roL+qipq6Pu0pC01+d0NBuqVCcwXj2jcbUxQNl1MUjpWrnlJYagKOhjMmv5LauqFB7Gf2grioaUU0xjWmi9geL9/idcEYLqimmrzRRd2dUUVsThcdu455yDcTRkJbqdk1+Sku1N6NL6qqiEdUUW6qwITPK1f5s95NKhee4oKWG8ZUm6u6GptTFI6Vq54LmGoijIfkVdU1t3dJE7SVU0Ufqyv/3n2mpYSWUkeeXCb1UU0WeX9Y0tK80UXcPlKvbc50oPH4bT5TQYBwNyT/5pbpdh59RRW1l9IP6qGlEFR0Lv3NO1E/XbeY9Uqp2rqjQgBwNrVC3V5hKhZ20iyldUx81faG5DltC3ymjPvy6mlEXhdrvI0+UKmynwTgaWkJLdTuLfKEZdbGgc+prRv55HKKMvlGqfu5oTF2kCmf8hNq4okIDc7QJhdofIbyaTskv20qoVPub4VUquiC/PBSXNKO+HihXt23kfaMxtfFEqbo/5tocbUJCS3U7iyzoM3WR0FLdHneVQuHItc9ShfuNXP39pIxq6iJXuLxr64oKbYCjTSnU7Szi+QFZUBcZlYo3JBV9oVL755IKhQNHX0+UK6yPLhL6Qana8Y+bqvtQtuJoUxKq6CO1VdMZLdVNRqXiDYlXKlx2LbX7xnRNqeJ4olxhe3b1jcbU1hUV2hBHm+RXiF8xXVR0Rl1lVCrukHhzhfdtSu2ec5pSrnieKFfYHl2N6Ru19ZMyqmkjHG1aqfDtFF1cUaHuMioVf0i8UuGm9462KaFzKiSliuuJcvUbjlTh0iqhtj7TgjbG0aalCm8KddV3JWVUapgh8Wpa0A1VtCnnNP5VQrE9Ua5+v1NC3ymjtu4p14Y52oZC3W/YaxpRRV2lCjvxXzSkmhZUKmzgpeJJFc7EY8oVdr6hPNCYlurnK03UzSkttWGOtqWirjtoTafkl10lVKr7c+iipopK/f7nn7TU2zI6Ib9MKNfvf96EexpTTX1M6Zq6uKJCW+BoWzL6QV1VNKKa+ijU/Wx26K6oUH9j+kZd+LNXRlvhaJumdE1dzRVeau0rV7gUOiET7jfGVKq/jL5TQm3555ErHAy3wtG2LeicuporzpAktKBPdMzuaKL+Z2Yvo++UUBdfaEZb42jbElqq39F7rjhD4o1prn7PZx890UThIBFDRn2G447GtFWOdkGusDL7mCvekCRUKHw04xjcUKE4Zw0vI789E+riiVLFez6dOdoVE4WXAftY0AXVFEOqMHif6BDd0ZSWiiej75RQF0+Ua4v3HS852iVzdfty5Jf8ih1RTbHkCkfYT3QI7qlQnJvwl3KFV6sS6uqC5toRjnZNqf47YkUX5JcxZTSlv2kf3dKMKoptov5XADc0pZ3haNckVKr/G3g1faZS8aUKO8RE3T6dvEk/aa7QUsP4hwr1c0dj2imOdlGqcJQ7ob4KhTe8hpLRlMYU4/nG8ERzhSoaSkJfaUx9PFCucFDbKY52VUal4ux0pcLZpKYhZZQr7DCfaJPuaUGlhh2KZxl9o1T9PFCu4bdNJ452WUal4gzJUuG+pNTm5Aq/w3N/UQz3tFQYBF+pzbqkGfW108PhOdp1GZWKMyTejK6opm3JFWSUUJOaKvJKbVeqcEmVq7+dHw7P0T7IqFS8IVlq82eTfXdJhd4f6HU8Ua7fg7+zHO2LjBb0kWLxP++CajKrZfSV/DKGB8q1J+vc0T5JqFS8a3mvphndUE0mSBVevp0ongfKtUfr2dG+SWhBnyimmqZ0S8csoUsqFJdfr1OqaW842ldzDfOO9lJh57ilY5KQH4wpJRSTX5cT7SFH+2xK1zSEmmZ0QzUdqlTxL6Ve+kIz2kuO9l1GC/pIQ5krDEpFh+KcJgpvag7hJ/mfXdHecnQIElrQJxrSUmFYbmmp/ZPR3zRRWGdDuacx1bTXHB2SQuFyYRMqWtAdVbSrPtH4V6mGd0WFDoSjQ5PRXHFfCn5PTQsqFV7KrGhbMvJDkSsMxab433ui7f7u0R3igDwrtLmzySqlws7iWypcdsSUkD8IpApD4cu1HVdU6AA5OmSpwtnkE+2KUkFFNb20VChV6KVUoYQy2gUHedZ4ydExmCi81HhCpr8nKhTW6UE7lgHxEpr+ygaluyuaUU0Hz9GxSWhGf5NZ3y0VCpeAR8PRsUoVNrgNSrNbmuv3vdNRcXTsUoV7lCnZpVfg7zEWVOjIzhivOTJBQhOFQflIx8gPxuxXNR09G5DVxi86hrPKHc0VzhrmBRuQZgmNaaLdei8lhgeaK1STWcEGZH2pwjvVY8q1n2eWOyoVzhRLmXc5Mt3k+j0sf9EueqBSoQWZlmxA4skVPgLy3KaH5ieVCh/78JUyvTkyw8kV5AoySiijE2rjiSrySgWlglJmEDYguyVXUMrsBBsQYxrYgBjTwAbEmAY2IMY0sAExpoENiDENbECMaWADYkwDGxBjGtiAGNPABsSYBjYgxjSwATGmgQ2IMQ1sQIxpYANiTAMbEGMa2IAY08AGxJgGNiDGNPg/UoCy9kKFe8EAAAAASUVORK5CYII=;" vertex="1" parent="1">
          <mxGeometry x="70" y="360" width="40" height="40" as="geometry" />
        </mxCell>
        <mxCell id="WLZEM4pNa57AKpbWbVrL-17" value="" style="shape=image;verticalLabelPosition=bottom;labelBackgroundColor=default;verticalAlign=top;aspect=fixed;imageAspect=0;image=data:image/png,iVBORw0KGgoAAAANSUhEUgAAAMgAAADICAYAAACtWK6eAAALhUlEQVR4nO3d4XFaWRLF8XMjMIpgUQRGEUwrAuMIFiKwFMGgCCRHMCgCyRH4KgLhCIQjEI5g93Q9u3ZnLJ64jwcXWudX9S99G7vH3QIE40kQkbV0ICItdCAiLXQgIi10ICItdCAiLXQgIi10ICItdCAiLXQgIi10ICItdCAiLXQgIi10ICItdCAiLY71QEbsHXPf2RLH7/9n+sEW7Jj9wX75xlbs6CR2TMbsmg3xdxnAJVuwYzNmL820BDBlGcdjwD6xGX43R/NntGJHI7Fj8ReboN2UzXE8JmjmanMsMw3YVzZi6ywBnLEVOwqJHYMxu2OvWTH/A1ji8BmahdrEOcs4bP7nM2avWTD/MzoKiR2DJzbEZm7ZBIfvKzNsJqM5kkM1Yo9sU1M2xxFI7NCV/stfsRN2yIZojr6Ez+SzHaIZgD/Zpm7ZBEcgsUM3ZnesxKHPZWgeQUqcs4zDdM8+sE09MMMRSOzQGWItkzPEminj7z/Wfc0DMxyBxA6dIdYyOUOsmTJ0INUYYi2TM8SaKUMHUo0h1jI5Q6yZMnQg1RhiLZMzxJopQwdSjSHWMjlDrJkydCDVGGItkzPEmilDB1KNIdYyOUOsmTJ0INUYYi2TM8SaKUMHUo0h1jI5Q6yZMnQg1RhiLZMzxJopQwdSjSHWMjlDrJkydCDVGGItkzPEmilDB1KNIdYyOUOsmTJ0INUYYi2TM8SaKUMHUo0h1jI5Q6yZMnQg1RhiLZMzxJopQwdSjSHWMjlDrJkydCDVGGItkzPEmilDB1KNIdYyOUOsmTJ0INUYYi2TM8SaKUMHUo0h1jI5Q6yZMnQg1RhiLZMzxJopQwdSjSHWMjlDrJkydCDVGGItkzPEmilDB1KNIdYyOUOsmTJ0INUYYi2TM8SaKUMHUo0h1jI5Q6yZMnQg1RhiLZMzxJopQwdSjSHWMjlDrJkydCDVGGItkzPEmilDB1KNIdYyOUOsmTJ0INUYYi2TM8SaKUMHUo0h1jI5Q6yZMnQg1RhiLZMzxJopQwdSjSHWMjlDrJkydCDVGGItkzPEmilDB1KNIdYyOUOsmTJ0INUYYi2TM8SaKUMHUo0h1jI5Q6yZMnQg1RhiLZMzxJopQwdSjSHWMjlDrJkydCDVGGItkzPEmilDB1KNIdYyOUOsmTJ0INUYYi2TM8SaKUMHUo0h1jI5Q6yZMnQg1RhiLZMzxJopQwdSjSHWMjlDrJkydCDVGGItkzPEmilDB1KNIdYyOUOsmTJ0INUYYi2TM8SaKUMHUo0h1jI5Q6yZMnQg1RhiLZMzxJopQwdSjSHWMjlDrJkydCDVGGItkzPEmilDB1KNIdYyOUOsmTJ0INUYYi2TM8SaKUMHUo0h1jI5Q6yZMnQg1RhiLZMzxJopQwdSjSHWMjlDrJkydCDVGGItkzPEmilDB1KNIdYyOUOsmTJ0INUYYi2TM8SaKUMHUo0h1jI5Q6yZMnQg1RhiLZMzxJopQwdSjSHWMjlDrJkydCDVGGItkzPEmilDB1KNIdYyOUOsmTJ0INUYYi2TM8SaKUMHUo0h1jI5Q6yZMnQg1RhiLZMzxJopQwdSjSHWMjlDrJkydCDVGGItkzPEmilDB1KNIdYyOUOsmTJ0INUYYi2TM8SaKUMHUo0h1jI5Q6yZMnQg1RhiLZMzxJopQwdSjSHWMjlDrJkydCA7NWD/ZgZgxIaQt2gJYMEygFu2YlUlVtOAXbMJRH43B3DJVqyKmgcyZn+xARNZZ8Wm7J7tXWI1TNAch8impmyOPUts3ybQcUg3UzbHHiW2TyP2yES6OmMLthf7PpCvzCDSXUbzI++9SGxfDM2BiGzrnGXsQWL7cs8+MJFtfWFjtnP7OpABe2YifTlhK7ZT+zqQC3bNRPpyyW7YTu3rQJ7YECL9WbAztlOJ7dqIPbJSV0zejj9ZKT+QBduZxHZtjuaDiCW+sRGTt2PB3rMSn9kF25l9HMgzG7ASUzaHvCUTlH/CYsVO2M4ktksTlA/tfGgfXt6OAfNvpqWmbI4dSWyX7tkHVuKWTSBv0RzlT8e/sDHbicR2ZYjmp1elzlmGvEW+6Hes1ClbYgcS25UZyn8y8Z0NIW/ZEsC/WIlLdsN6l9iuPLEhylyxGeQtm6H8G+sSzaNI7xLbBUO3DyaesiXkLRui+eZa6pxl9CyxXZij/MXWAzOINIv+BytxyyboWWJ9G7An5l9LTNkcIs2i/8VKrNgp86+9SaxvE5QP94MN0fNwcrQGbAngHSsxZXP0KLG+fWWGMrdsApH/maP8aXpG81qkN4n1aYjm6VWpM7ZgIr8Ymm+2pU7ZEj1JrE837BMr8Z0NIfK7JcrfE7liM/QksT49sSHKXDI/LJF/umDXrMQSzaNILxLry5jdsVKnbAmR3w3RfNMt9ZHds60l1pc5yl9UfWFjJrLOPfvAStyyCXqQWB8G7JmV+sjumcg6E5S/beBO2Iptpa8DmaB8iB9swERes2LvWIkpm2NLifXhkY1Yic/sgom8Zo7yp+8Ldsa20seBjJgfSCn/zS+YyGtGrMuOnbIltpDYtm7YJ1biGxsxkU0t2HtW4jO7YJ31cSDPbMBKXLIbJrKpC3bNSqzYCets2wMZsztWyn/TKyayqQF7ZqU+snvWybYH4r/wB1bilk0gUq7Lvn1hY9ZJYl0NUfldTnlzxuyOlTphK1Yssa4u2DUr8Z0NIdLdEuUfYLxkN6xYYl09sSHKfGYXTKSrG/aJlVii+ZFvscS6GLFHVuqULSHS3RDNN+dSZ2zBiiTWxRzl72x+YyMmsq0Fe89K3LIJCiXWxTMbsBKX7JGJbOuMXbMSK3bCinQ5kAnKP5gocgimbI4CiZX6ygwix+cLG7ONlR7IEN1eIIkcilO2xIYSKzFD+d+bKnJIrtgMG0qsxBMbQuR4LdE8imwksU0ZmtcfIsfunGVsILFNzVH+3ofIIbplE2wgsU0M2BPzryLHbsVOmX9tldgmJtB7HxLLlM3xisQ28chGTCSKjOa1SKvEXjNE8/RKJJpTtkSLxF5zwz4xkWg+swu21iYH4o8eQ3T3g2U0LZjItkbM0PSOdbVE8yiyVmJtxuyOdeGHcfOzFRPp24Bd/Owd6+Iju2cveu1A5uj23scPZtAjhuzHiGV0O5JbNsEaia0zYM+slI5DahixjG5HcsJW7DdtBzJE8/qj1DnLENk/Q7ePQ52yJV6Q2DqG8l/sgRlE6sko/3+sn7OMFyS2zgzlH23/yO6ZSC1jdsdKXLEZXpDYOjfsEytxwlZMpJYBe2YlrtgML0hsnYyyh6pvbMREalui7C+Xe2CGFyS2TkbZgTwwg0h9GT3tbmLrZPT0i4js2SMreTazdncTWyej7EBc2z9PZF/+w0o8MMMLEltnhvKfYp2zDJF6DOVvT1yxGV6Q2DoTlP9HUrdsApF65ij/eNSUzfGCxNbx53D+XK7UKVtCZP+G6PbpjzO2YL9JrM2KvWMlFuycrZjIvgzYVzZiJX6wAXtRYm3mKH+4cgt2zlZMZNcG7CsbsVK3bII1EmszZnesiwW7ZBkiu2No/qb3EevinGWskdhrlih7V/KfMprPZy3YAxPZ1h9sxMbM0N13NkSLxF4zQflPs0SOwZTN0SKxTSzYeyYSxTc2Yq02PRBD8yJIJIpzlvGKxDY1Q/k76yKH6IrNsIHESmQ0L5BEjtUDM2wosRIDlqHXI3Kc/HWHoeD9udIDcQOWoSOR41J8HK7LgbgBmwP4wEQO3Rc2QeFxuK4H8ssFu2Yih+qS3bBOtj0QN0TzaKIX73JIHtgEzSdBOkusL4bmEeUDE6nlC7thGT3o80B+GaL5jIynRxXZhwd2/7MlepTYro3YEM1Xkb4s2BLN151JTETW0IGItNCBiLTQgYi00IGItNCBiLTQgYi00IGItNCBiLTQgYi00IGItNCBiLT4L65vMfYFlp5sAAAAAElFTkSuQmCC;" vertex="1" parent="1">
          <mxGeometry x="320" y="250" width="60" height="60" as="geometry" />
        </mxCell>
        <mxCell id="WLZEM4pNa57AKpbWbVrL-18" value="" style="shape=image;verticalLabelPosition=bottom;labelBackgroundColor=default;verticalAlign=top;aspect=fixed;imageAspect=0;image=data:image/png,iVBORw0KGgoAAAANSUhEUgAAAMgAAADICAYAAACtWK6eAAASCElEQVR4nO3cjVHb2BqH8f+pAKWCiApWVBC5ApwK1lSAU8GKCjAVxFQQU0FEBREV4FRwRQV7nzMnTFhihCUd+fP9zTyj3Xuz2Eh69WE7djLGvMkGxJgGNiDGNLABMaaBDYgxDWxAjGlgA2JMAxsQYxrYgBjTwAbEmAY2IMY0sAExpoENiDENbECMaWADYkwDGxBjGtiAGNPABsSYBjYgxjSwATGmwa4OyCcyx+eedoqjbTunMeWSUhkjLSWVkhZ0R1vjaBsS+oemZMx7ZnRFNW2Uo017HoyEjFlXTTO6oo1xtCkJfaNcxnRXSvpMNQ1uUwOS0VfyS2P6quiC/HJQjoaW0HfKyJhYKhpRTYNxNDQ/HLmMia9UGJLBOBpSoXBTbsxQrqjQQBwNJaFH8ktjhlLTKflldI6GMqNLMmZoNzSl6IYckH/JmE0ZZF8e5IdiTN/ImE35TAuKaqgBmUv6m4zZlFuaKDJHQ3ikVMZsTkVnFJWjIfxLx+SJvBMy2xN9f47+A385hgG5p7nCdW9Nz8a/+pvMZjmKKvoPRK7w7vmh8meLKc3VLFf4Mx/JbMYZVRSNDUh7bTZCQhV9pC7uqaaKlgo/77nsV3ZZ99uISkXkKLZchzsgV1SoHb8T/6B13dHiVzW9J6MxTdR9EA/FiEpF5Ci2XIc5IE+U0Ev+3y9pTKnCkf6GFvTSXO/fk9xSoXCm6CKhKf1Dx2pEpSJyFFuuwxyQW5rot4T875nRa1dU6Df/Z37QKg80pVJx+J91TcdoRKUichRbrrDjHJrPtKBnM7qkVWr6QC8t9ecl0D2NqaaYlvrzsY7BiEpF5Ci2XIc5ICMq9dsjpXrbGVX0bK7/Xmbd0kTDmNFbw3vIRlQqIkex5TqOAfmXmrwekFK/v+/rgTIaylz/HcZj8Xob9eYotlyHOSBfaEbPFnROb3m9bh8pVbjZz2ipdj6Rd09NEnokvzw2IyoVkaPYch3mgNzRmJ7levv3vKJCv2X0g7wLmut9ucJZYEwJvVYq/Jx7WipIFb4cI9dxGlGpiBzFluvtHWfffaCank0Uzion5D1RofC/veT//ZL8/59Qk1THvZP3MaJSETmKLdfhDsgNTem1XGFwKnotox/kXVGht/k/69ddQqa9EZWKyFFsucJGPlQXNNd6/I7u10VG3geqaZWE/CClMl2NqFREjmLLFXaKQzalG2qSK/ytyoS8e8r1trnCPYfpbkSlInIUW67DHxBvqXBvcU8VeanCq00ThfXw0hea0SqpwitPpp8RlYrIUWy5jmNA2jqjilaZ0jWZfkZUKiJHseWyAVmlaV2XCmce08+ISkXkKLZcNiCv/aRUb/uXTH8jKhWRo9hy2YC8dk+5VsvoB5n+RlQqIkex5bIBee2GprRKLltfsYyoVESOYstlG/y1e8q1Wi5bX7GMqFREjmLLZRv8tYrOaJVctr5iGVGpiBzFlss2+CpN6/pfMv2NqFREjmLLZQOyygeqaZWK/iLTz4hKReQotlw2IKtc0FyrzWUfM4lhRKUichRbLhuQVW5potUy+kGmnxGVishRbLlsQFapyV9mvaWUvZve14hKReQotlw2IG8ZUanVUoV7kRMy3YyoVESOYstlA/KWUmEjviWjUt2G5Cd9pGM2olIROYotlw1IkxGVeluq8LH4c3rPHS1+VVNGcx3vK2IjKhWRo9hy2YA0qeiM3pMqfGGDz/tE91TTgkqFv5PyWkY/6BiNqFREjmLLZQPynhua0lAWdE7HZkSlInIUWy4bkHVc0FzDKHScX2I9olIROYotlw3IugqFbzqJba7jfONxRKUichRbQv8js54FfaGl4kgV7kESOjYfqKZoHA3hXzLr8xt1RjdUU1cZfSW/PEbR9+foP/CXmk7ItLf41R3VtI5zGtNEx+snpYrM0RAW5Dea6WepUEU1vZRRQrmM5w8oY4pqqAGZ0jUZsykXNFdkjoaQyr4IzWzWKS0VmaOhlArv/hoztHvKNQBHQ8ll74eYzTijiqIbckC8uY7zDSuzObc00UAcDSmhpewlXzOMJ0r15yt80TgaWkalbEhMXH44cg10afVsEwPiTRTe4TUmlguaa2CONiVXeAPRziSmD3/mGFOpDdjkgHgZzegTGdPWPU0U7ms3wtE2TBQ+6v2RjHnPTyq0gUuq1xxt0/hFdullXvKXUosXbcW2B+SlXEFGCZnjU1NFXqkdsEsDYszOsQExpoENiDENbECMaWADYkwDGxBjGtiAGNPABsSYBjYgxjSwATGmgQ2IMQ1sQIxpYANiTAMbEGMa2ICsJ6O/yS+9UuHrZpbaD6nCdyXnCn+VoKJb8kvTwJF5W0LXNNFqc4UvD9hl/1Ch1Rbkn39NZgVH5m3fKVezG5rSLprRJTWpaEQ1mVccmdWmdE3r+EwL2iW5woCv44oKmT84Mqs9Uqr1LBW+H7amXdHm+XsfaJee/05wZP6UKuxgbVxRod0wpXXPfs9GVMr8hyPzp1zrX568dEYVbVNG/rkn1MZnWpB54VAGJKNzenZPpbpL1f4M4tV0Sn65DQl9p4zaGlGp7nL99wsB76iiveZonyX0lcb02lLhqFhRF0t1+2I7/3gjqmnTvtJE7f2kVN1k9I1S/alU2AY17SVH+yqh75TRW2ryG6hUe1O6pi4qGlFNm/KVJurmC82orVxhOBJ6S0WbXhfRONpXfsOM6T01nZJftlXRX9SF/28vyC+HlNA3ytXNA2XUVkKP5JfvuaEp7R1H+yhV2Djr6rqBMvpBXdX0heYaxpi+UkJdjahUezO6pHV9oJr2iqN9VCh8hGJdfsOckl+2NaM2O8IqpcLLwKXiSBUGI1c/dzSmthJ6JL9c1wXNtWcc7aNC7QbEu6JC7fmdoFT3S62XSoWd5Ja6OKcxTdTfE6XqdtAotLn1v1WONiFV+DSs5zfIPVXUVaH2G6imU/LLtlKF53tCMdRUKlTRPa3yibJfjSmhWM6oorYSeiS/bOOKCnWXKqyPVMEdVTQoR0NK6B+a0mulwvV5RW2N6Ru1dUNT6iJXeNXsEFzQXN0UCtu0rRGVai+ha5roTwu6oJoG4WgoCX2njN5S04gqamupbu9TnNJS3UwUrv332S1N1E1Cj+SXbfykVO1l9JX88i0VndEgHA1lrt+XVU2WCjttW4W6HckW9Jm6mihstH10SxN1N9d62/S1LzSjtr5TrvddUaEBOBpCqnCkWdcFzdVOQkt1uy/4TAvqaqL9G5Jbmqi7XGGHbeuJUoWrhTYmWn8dL9XtIPsuR0Mo1O7oXtEZtTWjS2qrplPyy64mCo9/Qrvulibq55FStXdDU2rrO+Va3xlVFJWjISzonNoYUal2UoWVckJtLegz9ZHRXHFeAh7CE01prn5mdElt+cdP1f5AlCoMZBsjKhWZoyEs6JzauKWJ2ivU7mz10hUV6iehQt12oCE90JiW6sf/jG/URdf1O6NLauOMKorK0RCmdE1tndJS7SS0VLeziDeiUv2NaUYfaZueyD+PQv2lCh+1Sagt/zxStT97eP+jhNblH6vNn1+boyGkan+K9K6oUHuFup9FahpRRTEUCgeIE9q0WyoUDhh9JfSdMuriigq1N9H6N+fPbmhK0TkayoLOqY2aTskv26roL+qipq6Pu0pC01+d0NBuqVCcwXj2jcbUxQNl1MUjpWrnlJYagKOhjMmv5LauqFB7Gf2grioaUU0xjWmi9geL9/idcEYLqimmrzRRd2dUUVsThcdu455yDcTRkJbqdk1+Sku1N6NL6qqiEdUUW6qwITPK1f5s95NKhee4oKWG8ZUm6u6GptTFI6Vq54LmGoijIfkVdU1t3dJE7SVU0Ufqyv/3n2mpYSWUkeeXCb1UU0WeX9Y0tK80UXcPlKvbc50oPH4bT5TQYBwNyT/5pbpdh59RRW1l9IP6qGlEFR0Lv3NO1E/XbeY9Uqp2rqjQgBwNrVC3V5hKhZ20iyldUx81faG5DltC3ymjPvy6mlEXhdrvI0+UKmynwTgaWkJLdTuLfKEZdbGgc+prRv55HKKMvlGqfu5oTF2kCmf8hNq4okIDc7QJhdofIbyaTskv20qoVPub4VUquiC/PBSXNKO+HihXt23kfaMxtfFEqbo/5tocbUJCS3U7iyzoM3WR0FLdHneVQuHItc9ShfuNXP39pIxq6iJXuLxr64oKbYCjTSnU7Szi+QFZUBcZlYo3JBV9oVL755IKhQNHX0+UK6yPLhL6Qana8Y+bqvtQtuJoUxKq6CO1VdMZLdVNRqXiDYlXKlx2LbX7xnRNqeJ4olxhe3b1jcbU1hUV2hBHm+RXiF8xXVR0Rl1lVCrukHhzhfdtSu2ec5pSrnieKFfYHl2N6Ru19ZMyqmkjHG1aqfDtFF1cUaHuMioVf0i8UuGm9462KaFzKiSliuuJcvUbjlTh0iqhtj7TgjbG0aalCm8KddV3JWVUapgh8Wpa0A1VtCnnNP5VQrE9Ua5+v1NC3ymjtu4p14Y52oZC3W/YaxpRRV2lCjvxXzSkmhZUKmzgpeJJFc7EY8oVdr6hPNCYlurnK03UzSkttWGOtqWirjtoTafkl10lVKr7c+iipopK/f7nn7TU2zI6Ib9MKNfvf96EexpTTX1M6Zq6uKJCW+BoWzL6QV1VNKKa+ijU/Wx26K6oUH9j+kZd+LNXRlvhaJumdE1dzRVeau0rV7gUOiET7jfGVKq/jL5TQm3555ErHAy3wtG2LeicuporzpAktKBPdMzuaKL+Z2Yvo++UUBdfaEZb42jbElqq39F7rjhD4o1prn7PZx890UThIBFDRn2G447GtFWOdkGusDL7mCvekCRUKHw04xjcUKE4Zw0vI789E+riiVLFez6dOdoVE4WXAftY0AXVFEOqMHif6BDd0ZSWiiej75RQF0+Ua4v3HS852iVzdfty5Jf8ih1RTbHkCkfYT3QI7qlQnJvwl3KFV6sS6uqC5toRjnZNqf47YkUX5JcxZTSlv2kf3dKMKoptov5XADc0pZ3haNckVKr/G3g1faZS8aUKO8RE3T6dvEk/aa7QUsP4hwr1c0dj2imOdlGqcJQ7ob4KhTe8hpLRlMYU4/nG8ERzhSoaSkJfaUx9PFCucFDbKY52VUal4ux0pcLZpKYhZZQr7DCfaJPuaUGlhh2KZxl9o1T9PFCu4bdNJ452WUal4gzJUuG+pNTm5Aq/w3N/UQz3tFQYBF+pzbqkGfW108PhOdp1GZWKMyTejK6opm3JFWSUUJOaKvJKbVeqcEmVq7+dHw7P0T7IqFS8IVlq82eTfXdJhd4f6HU8Ua7fg7+zHO2LjBb0kWLxP++CajKrZfSV/DKGB8q1J+vc0T5JqFS8a3mvphndUE0mSBVevp0ongfKtUfr2dG+SWhBnyimmqZ0S8csoUsqFJdfr1OqaW842ldzDfOO9lJh57ilY5KQH4wpJRSTX5cT7SFH+2xK1zSEmmZ0QzUdqlTxL6Ve+kIz2kuO9l1GC/pIQ5krDEpFh+KcJgpvag7hJ/mfXdHecnQIElrQJxrSUmFYbmmp/ZPR3zRRWGdDuacx1bTXHB2SQuFyYRMqWtAdVbSrPtH4V6mGd0WFDoSjQ5PRXHFfCn5PTQsqFV7KrGhbMvJDkSsMxab433ui7f7u0R3igDwrtLmzySqlws7iWypcdsSUkD8IpApD4cu1HVdU6AA5OmSpwtnkE+2KUkFFNb20VChV6KVUoYQy2gUHedZ4ydExmCi81HhCpr8nKhTW6UE7lgHxEpr+ygaluyuaUU0Hz9GxSWhGf5NZ3y0VCpeAR8PRsUoVNrgNSrNbmuv3vdNRcXTsUoV7lCnZpVfg7zEWVOjIzhivOTJBQhOFQflIx8gPxuxXNR09G5DVxi86hrPKHc0VzhrmBRuQZgmNaaLdei8lhgeaK1STWcEGZH2pwjvVY8q1n2eWOyoVzhRLmXc5Mt3k+j0sf9EueqBSoQWZlmxA4skVPgLy3KaH5ieVCh/78JUyvTkyw8kV5AoySiijE2rjiSrySgWlglJmEDYguyVXUMrsBBsQYxrYgBjTwAbEmAY2IMY0sAExpoENiDENbECMaWADYkwDGxBjGtiAGNPABsSYBjYgxjSwATGmgQ2IMQ1sQIxpYANiTAMbEGMa2IAY08AGxJgGNiDGNPg/UoCy9kKFe8EAAAAASUVORK5CYII=;" vertex="1" parent="1">
          <mxGeometry x="390" y="380" width="40" height="40" as="geometry" />
        </mxCell>
        <mxCell id="WLZEM4pNa57AKpbWbVrL-19" value="" style="shape=image;verticalLabelPosition=bottom;labelBackgroundColor=default;verticalAlign=top;aspect=fixed;imageAspect=0;image=data:image/png,iVBORw0KGgoAAAANSUhEUgAAAMgAAADICAYAAACtWK6eAAASCElEQVR4nO3cjVHb2BqH8f+pAKWCiApWVBC5ApwK1lSAU8GKCjAVxFQQU0FEBREV4FRwRQV7nzMnTFhihCUd+fP9zTyj3Xuz2Eh69WE7djLGvMkGxJgGNiDGNLABMaaBDYgxDWxAjGlgA2JMAxsQYxrYgBjTwAbEmAY2IMY0sAExpoENiDENbECMaWADYkwDGxBjGtiAGNPABsSYBjYgxjSwATGmwa4OyCcyx+eedoqjbTunMeWSUhkjLSWVkhZ0R1vjaBsS+oemZMx7ZnRFNW2Uo017HoyEjFlXTTO6oo1xtCkJfaNcxnRXSvpMNQ1uUwOS0VfyS2P6quiC/HJQjoaW0HfKyJhYKhpRTYNxNDQ/HLmMia9UGJLBOBpSoXBTbsxQrqjQQBwNJaFH8ktjhlLTKflldI6GMqNLMmZoNzSl6IYckH/JmE0ZZF8e5IdiTN/ImE35TAuKaqgBmUv6m4zZlFuaKDJHQ3ikVMZsTkVnFJWjIfxLx+SJvBMy2xN9f47+A385hgG5p7nCdW9Nz8a/+pvMZjmKKvoPRK7w7vmh8meLKc3VLFf4Mx/JbMYZVRSNDUh7bTZCQhV9pC7uqaaKlgo/77nsV3ZZ99uISkXkKLZchzsgV1SoHb8T/6B13dHiVzW9J6MxTdR9EA/FiEpF5Ci2XIc5IE+U0Ev+3y9pTKnCkf6GFvTSXO/fk9xSoXCm6CKhKf1Dx2pEpSJyFFuuwxyQW5rot4T875nRa1dU6Df/Z37QKg80pVJx+J91TcdoRKUichRbrrDjHJrPtKBnM7qkVWr6QC8t9ecl0D2NqaaYlvrzsY7BiEpF5Ci2XIc5ICMq9dsjpXrbGVX0bK7/Xmbd0kTDmNFbw3vIRlQqIkex5TqOAfmXmrwekFK/v+/rgTIaylz/HcZj8Xob9eYotlyHOSBfaEbPFnROb3m9bh8pVbjZz2ipdj6Rd09NEnokvzw2IyoVkaPYch3mgNzRmJ7levv3vKJCv2X0g7wLmut9ucJZYEwJvVYq/Jx7WipIFb4cI9dxGlGpiBzFluvtHWfffaCank0Uzion5D1RofC/veT//ZL8/59Qk1THvZP3MaJSETmKLdfhDsgNTem1XGFwKnotox/kXVGht/k/69ddQqa9EZWKyFFsucJGPlQXNNd6/I7u10VG3geqaZWE/CClMl2NqFREjmLLFXaKQzalG2qSK/ytyoS8e8r1trnCPYfpbkSlInIUW67DHxBvqXBvcU8VeanCq00ThfXw0hea0SqpwitPpp8RlYrIUWy5jmNA2jqjilaZ0jWZfkZUKiJHseWyAVmlaV2XCmce08+ISkXkKLZcNiCv/aRUb/uXTH8jKhWRo9hy2YC8dk+5VsvoB5n+RlQqIkex5bIBee2GprRKLltfsYyoVESOYstlG/y1e8q1Wi5bX7GMqFREjmLLZRv8tYrOaJVctr5iGVGpiBzFlss2+CpN6/pfMv2NqFREjmLLZQOyygeqaZWK/iLTz4hKReQotlw2IKtc0FyrzWUfM4lhRKUichRbLhuQVW5potUy+kGmnxGVishRbLlsQFapyV9mvaWUvZve14hKReQotlw2IG8ZUanVUoV7kRMy3YyoVESOYstlA/KWUmEjviWjUt2G5Cd9pGM2olIROYotlw1IkxGVeluq8LH4c3rPHS1+VVNGcx3vK2IjKhWRo9hy2YA0qeiM3pMqfGGDz/tE91TTgkqFv5PyWkY/6BiNqFREjmLLZQPynhua0lAWdE7HZkSlInIUWy4bkHVc0FzDKHScX2I9olIROYotlw3IugqFbzqJba7jfONxRKUichRbQv8js54FfaGl4kgV7kESOjYfqKZoHA3hXzLr8xt1RjdUU1cZfSW/PEbR9+foP/CXmk7ItLf41R3VtI5zGtNEx+snpYrM0RAW5Dea6WepUEU1vZRRQrmM5w8oY4pqqAGZ0jUZsykXNFdkjoaQyr4IzWzWKS0VmaOhlArv/hoztHvKNQBHQ8ll74eYzTijiqIbckC8uY7zDSuzObc00UAcDSmhpewlXzOMJ0r15yt80TgaWkalbEhMXH44cg10afVsEwPiTRTe4TUmlguaa2CONiVXeAPRziSmD3/mGFOpDdjkgHgZzegTGdPWPU0U7ms3wtE2TBQ+6v2RjHnPTyq0gUuq1xxt0/hFdullXvKXUosXbcW2B+SlXEFGCZnjU1NFXqkdsEsDYszOsQExpoENiDENbECMaWADYkwDGxBjGtiAGNPABsSYBjYgxjSwATGmgQ2IMQ1sQIxpYANiTAMbEGMa2ICsJ6O/yS+9UuHrZpbaD6nCdyXnCn+VoKJb8kvTwJF5W0LXNNFqc4UvD9hl/1Ch1Rbkn39NZgVH5m3fKVezG5rSLprRJTWpaEQ1mVccmdWmdE3r+EwL2iW5woCv44oKmT84Mqs9Uqr1LBW+H7amXdHm+XsfaJee/05wZP6UKuxgbVxRod0wpXXPfs9GVMr8hyPzp1zrX568dEYVbVNG/rkn1MZnWpB54VAGJKNzenZPpbpL1f4M4tV0Sn65DQl9p4zaGlGp7nL99wsB76iiveZonyX0lcb02lLhqFhRF0t1+2I7/3gjqmnTvtJE7f2kVN1k9I1S/alU2AY17SVH+yqh75TRW2ryG6hUe1O6pi4qGlFNm/KVJurmC82orVxhOBJ6S0WbXhfRONpXfsOM6T01nZJftlXRX9SF/28vyC+HlNA3ytXNA2XUVkKP5JfvuaEp7R1H+yhV2Djr6rqBMvpBXdX0heYaxpi+UkJdjahUezO6pHV9oJr2iqN9VCh8hGJdfsOckl+2NaM2O8IqpcLLwKXiSBUGI1c/dzSmthJ6JL9c1wXNtWcc7aNC7QbEu6JC7fmdoFT3S62XSoWd5Ja6OKcxTdTfE6XqdtAotLn1v1WONiFV+DSs5zfIPVXUVaH2G6imU/LLtlKF53tCMdRUKlTRPa3yibJfjSmhWM6oorYSeiS/bOOKCnWXKqyPVMEdVTQoR0NK6B+a0mulwvV5RW2N6Ru1dUNT6iJXeNXsEFzQXN0UCtu0rRGVai+ha5roTwu6oJoG4WgoCX2njN5S04gqamupbu9TnNJS3UwUrv332S1N1E1Cj+SXbfykVO1l9JX88i0VndEgHA1lrt+XVU2WCjttW4W6HckW9Jm6mihstH10SxN1N9d62/S1LzSjtr5TrvddUaEBOBpCqnCkWdcFzdVOQkt1uy/4TAvqaqL9G5Jbmqi7XGGHbeuJUoWrhTYmWn8dL9XtIPsuR0Mo1O7oXtEZtTWjS2qrplPyy64mCo9/Qrvulibq55FStXdDU2rrO+Va3xlVFJWjISzonNoYUal2UoWVckJtLegz9ZHRXHFeAh7CE01prn5mdElt+cdP1f5AlCoMZBsjKhWZoyEs6JzauKWJ2ivU7mz10hUV6iehQt12oCE90JiW6sf/jG/URdf1O6NLauOMKorK0RCmdE1tndJS7SS0VLeziDeiUv2NaUYfaZueyD+PQv2lCh+1Sagt/zxStT97eP+jhNblH6vNn1+boyGkan+K9K6oUHuFup9FahpRRTEUCgeIE9q0WyoUDhh9JfSdMuriigq1N9H6N+fPbmhK0TkayoLOqY2aTskv26roL+qipq6Pu0pC01+d0NBuqVCcwXj2jcbUxQNl1MUjpWrnlJYagKOhjMmv5LauqFB7Gf2grioaUU0xjWmi9geL9/idcEYLqimmrzRRd2dUUVsThcdu455yDcTRkJbqdk1+Sku1N6NL6qqiEdUUW6qwITPK1f5s95NKhee4oKWG8ZUm6u6GptTFI6Vq54LmGoijIfkVdU1t3dJE7SVU0Ufqyv/3n2mpYSWUkeeXCb1UU0WeX9Y0tK80UXcPlKvbc50oPH4bT5TQYBwNyT/5pbpdh59RRW1l9IP6qGlEFR0Lv3NO1E/XbeY9Uqp2rqjQgBwNrVC3V5hKhZ20iyldUx81faG5DltC3ymjPvy6mlEXhdrvI0+UKmynwTgaWkJLdTuLfKEZdbGgc+prRv55HKKMvlGqfu5oTF2kCmf8hNq4okIDc7QJhdofIbyaTskv20qoVPub4VUquiC/PBSXNKO+HihXt23kfaMxtfFEqbo/5tocbUJCS3U7iyzoM3WR0FLdHneVQuHItc9ShfuNXP39pIxq6iJXuLxr64oKbYCjTSnU7Szi+QFZUBcZlYo3JBV9oVL755IKhQNHX0+UK6yPLhL6Qana8Y+bqvtQtuJoUxKq6CO1VdMZLdVNRqXiDYlXKlx2LbX7xnRNqeJ4olxhe3b1jcbU1hUV2hBHm+RXiF8xXVR0Rl1lVCrukHhzhfdtSu2ec5pSrnieKFfYHl2N6Ru19ZMyqmkjHG1aqfDtFF1cUaHuMioVf0i8UuGm9462KaFzKiSliuuJcvUbjlTh0iqhtj7TgjbG0aalCm8KddV3JWVUapgh8Wpa0A1VtCnnNP5VQrE9Ua5+v1NC3ymjtu4p14Y52oZC3W/YaxpRRV2lCjvxXzSkmhZUKmzgpeJJFc7EY8oVdr6hPNCYlurnK03UzSkttWGOtqWirjtoTafkl10lVKr7c+iipopK/f7nn7TU2zI6Ib9MKNfvf96EexpTTX1M6Zq6uKJCW+BoWzL6QV1VNKKa+ijU/Wx26K6oUH9j+kZd+LNXRlvhaJumdE1dzRVeau0rV7gUOiET7jfGVKq/jL5TQm3555ErHAy3wtG2LeicuporzpAktKBPdMzuaKL+Z2Yvo++UUBdfaEZb42jbElqq39F7rjhD4o1prn7PZx890UThIBFDRn2G447GtFWOdkGusDL7mCvekCRUKHw04xjcUKE4Zw0vI789E+riiVLFez6dOdoVE4WXAftY0AXVFEOqMHif6BDd0ZSWiiej75RQF0+Ua4v3HS852iVzdfty5Jf8ih1RTbHkCkfYT3QI7qlQnJvwl3KFV6sS6uqC5toRjnZNqf47YkUX5JcxZTSlv2kf3dKMKoptov5XADc0pZ3haNckVKr/G3g1faZS8aUKO8RE3T6dvEk/aa7QUsP4hwr1c0dj2imOdlGqcJQ7ob4KhTe8hpLRlMYU4/nG8ERzhSoaSkJfaUx9PFCucFDbKY52VUal4ux0pcLZpKYhZZQr7DCfaJPuaUGlhh2KZxl9o1T9PFCu4bdNJ452WUal4gzJUuG+pNTm5Aq/w3N/UQz3tFQYBF+pzbqkGfW108PhOdp1GZWKMyTejK6opm3JFWSUUJOaKvJKbVeqcEmVq7+dHw7P0T7IqFS8IVlq82eTfXdJhd4f6HU8Ua7fg7+zHO2LjBb0kWLxP++CajKrZfSV/DKGB8q1J+vc0T5JqFS8a3mvphndUE0mSBVevp0ongfKtUfr2dG+SWhBnyimmqZ0S8csoUsqFJdfr1OqaW842ldzDfOO9lJh57ilY5KQH4wpJRSTX5cT7SFH+2xK1zSEmmZ0QzUdqlTxL6Ve+kIz2kuO9l1GC/pIQ5krDEpFh+KcJgpvag7hJ/mfXdHecnQIElrQJxrSUmFYbmmp/ZPR3zRRWGdDuacx1bTXHB2SQuFyYRMqWtAdVbSrPtH4V6mGd0WFDoSjQ5PRXHFfCn5PTQsqFV7KrGhbMvJDkSsMxab433ui7f7u0R3igDwrtLmzySqlws7iWypcdsSUkD8IpApD4cu1HVdU6AA5OmSpwtnkE+2KUkFFNb20VChV6KVUoYQy2gUHedZ4ydExmCi81HhCpr8nKhTW6UE7lgHxEpr+ygaluyuaUU0Hz9GxSWhGf5NZ3y0VCpeAR8PRsUoVNrgNSrNbmuv3vdNRcXTsUoV7lCnZpVfg7zEWVOjIzhivOTJBQhOFQflIx8gPxuxXNR09G5DVxi86hrPKHc0VzhrmBRuQZgmNaaLdei8lhgeaK1STWcEGZH2pwjvVY8q1n2eWOyoVzhRLmXc5Mt3k+j0sf9EueqBSoQWZlmxA4skVPgLy3KaH5ieVCh/78JUyvTkyw8kV5AoySiijE2rjiSrySgWlglJmEDYguyVXUMrsBBsQYxrYgBjTwAbEmAY2IMY0sAExpoENiDENbECMaWADYkwDGxBjGtiAGNPABsSYBjYgxjSwATGmgQ2IMQ1sQIxpYANiTAMbEGMa2IAY08AGxJgGNiDGNPg/UoCy9kKFe8EAAAAASUVORK5CYII=;" vertex="1" parent="1">
          <mxGeometry x="220" y="380" width="40" height="40" as="geometry" />
        </mxCell>
        <mxCell id="WLZEM4pNa57AKpbWbVrL-20" value="" style="shape=image;verticalLabelPosition=bottom;labelBackgroundColor=default;verticalAlign=top;aspect=fixed;imageAspect=0;image=data:image/png,iVBORw0KGgoAAAANSUhEUgAAAMgAAADICAYAAACtWK6eAAASCElEQVR4nO3cjVHb2BqH8f+pAKWCiApWVBC5ApwK1lSAU8GKCjAVxFQQU0FEBREV4FRwRQV7nzMnTFhihCUd+fP9zTyj3Xuz2Eh69WE7djLGvMkGxJgGNiDGNLABMaaBDYgxDWxAjGlgA2JMAxsQYxrYgBjTwAbEmAY2IMY0sAExpoENiDENbECMaWADYkwDGxBjGtiAGNPABsSYBjYgxjSwATGmwa4OyCcyx+eedoqjbTunMeWSUhkjLSWVkhZ0R1vjaBsS+oemZMx7ZnRFNW2Uo017HoyEjFlXTTO6oo1xtCkJfaNcxnRXSvpMNQ1uUwOS0VfyS2P6quiC/HJQjoaW0HfKyJhYKhpRTYNxNDQ/HLmMia9UGJLBOBpSoXBTbsxQrqjQQBwNJaFH8ktjhlLTKflldI6GMqNLMmZoNzSl6IYckH/JmE0ZZF8e5IdiTN/ImE35TAuKaqgBmUv6m4zZlFuaKDJHQ3ikVMZsTkVnFJWjIfxLx+SJvBMy2xN9f47+A385hgG5p7nCdW9Nz8a/+pvMZjmKKvoPRK7w7vmh8meLKc3VLFf4Mx/JbMYZVRSNDUh7bTZCQhV9pC7uqaaKlgo/77nsV3ZZ99uISkXkKLZchzsgV1SoHb8T/6B13dHiVzW9J6MxTdR9EA/FiEpF5Ci2XIc5IE+U0Ev+3y9pTKnCkf6GFvTSXO/fk9xSoXCm6CKhKf1Dx2pEpSJyFFuuwxyQW5rot4T875nRa1dU6Df/Z37QKg80pVJx+J91TcdoRKUichRbrrDjHJrPtKBnM7qkVWr6QC8t9ecl0D2NqaaYlvrzsY7BiEpF5Ci2XIc5ICMq9dsjpXrbGVX0bK7/Xmbd0kTDmNFbw3vIRlQqIkex5TqOAfmXmrwekFK/v+/rgTIaylz/HcZj8Xob9eYotlyHOSBfaEbPFnROb3m9bh8pVbjZz2ipdj6Rd09NEnokvzw2IyoVkaPYch3mgNzRmJ7levv3vKJCv2X0g7wLmut9ucJZYEwJvVYq/Jx7WipIFb4cI9dxGlGpiBzFluvtHWfffaCank0Uzion5D1RofC/veT//ZL8/59Qk1THvZP3MaJSETmKLdfhDsgNTem1XGFwKnotox/kXVGht/k/69ddQqa9EZWKyFFsucJGPlQXNNd6/I7u10VG3geqaZWE/CClMl2NqFREjmLLFXaKQzalG2qSK/ytyoS8e8r1trnCPYfpbkSlInIUW67DHxBvqXBvcU8VeanCq00ThfXw0hea0SqpwitPpp8RlYrIUWy5jmNA2jqjilaZ0jWZfkZUKiJHseWyAVmlaV2XCmce08+ISkXkKLZcNiCv/aRUb/uXTH8jKhWRo9hy2YC8dk+5VsvoB5n+RlQqIkex5bIBee2GprRKLltfsYyoVESOYstlG/y1e8q1Wi5bX7GMqFREjmLLZRv8tYrOaJVctr5iGVGpiBzFlss2+CpN6/pfMv2NqFREjmLLZQOyygeqaZWK/iLTz4hKReQotlw2IKtc0FyrzWUfM4lhRKUichRbLhuQVW5potUy+kGmnxGVishRbLlsQFapyV9mvaWUvZve14hKReQotlw2IG8ZUanVUoV7kRMy3YyoVESOYstlA/KWUmEjviWjUt2G5Cd9pGM2olIROYotlw1IkxGVeluq8LH4c3rPHS1+VVNGcx3vK2IjKhWRo9hy2YA0qeiM3pMqfGGDz/tE91TTgkqFv5PyWkY/6BiNqFREjmLLZQPynhua0lAWdE7HZkSlInIUWy4bkHVc0FzDKHScX2I9olIROYotlw3IugqFbzqJba7jfONxRKUichRbQv8js54FfaGl4kgV7kESOjYfqKZoHA3hXzLr8xt1RjdUU1cZfSW/PEbR9+foP/CXmk7ItLf41R3VtI5zGtNEx+snpYrM0RAW5Dea6WepUEU1vZRRQrmM5w8oY4pqqAGZ0jUZsykXNFdkjoaQyr4IzWzWKS0VmaOhlArv/hoztHvKNQBHQ8ll74eYzTijiqIbckC8uY7zDSuzObc00UAcDSmhpewlXzOMJ0r15yt80TgaWkalbEhMXH44cg10afVsEwPiTRTe4TUmlguaa2CONiVXeAPRziSmD3/mGFOpDdjkgHgZzegTGdPWPU0U7ms3wtE2TBQ+6v2RjHnPTyq0gUuq1xxt0/hFdullXvKXUosXbcW2B+SlXEFGCZnjU1NFXqkdsEsDYszOsQExpoENiDENbECMaWADYkwDGxBjGtiAGNPABsSYBjYgxjSwATGmgQ2IMQ1sQIxpYANiTAMbEGMa2ICsJ6O/yS+9UuHrZpbaD6nCdyXnCn+VoKJb8kvTwJF5W0LXNNFqc4UvD9hl/1Ch1Rbkn39NZgVH5m3fKVezG5rSLprRJTWpaEQ1mVccmdWmdE3r+EwL2iW5woCv44oKmT84Mqs9Uqr1LBW+H7amXdHm+XsfaJee/05wZP6UKuxgbVxRod0wpXXPfs9GVMr8hyPzp1zrX568dEYVbVNG/rkn1MZnWpB54VAGJKNzenZPpbpL1f4M4tV0Sn65DQl9p4zaGlGp7nL99wsB76iiveZonyX0lcb02lLhqFhRF0t1+2I7/3gjqmnTvtJE7f2kVN1k9I1S/alU2AY17SVH+yqh75TRW2ryG6hUe1O6pi4qGlFNm/KVJurmC82orVxhOBJ6S0WbXhfRONpXfsOM6T01nZJftlXRX9SF/28vyC+HlNA3ytXNA2XUVkKP5JfvuaEp7R1H+yhV2Djr6rqBMvpBXdX0heYaxpi+UkJdjahUezO6pHV9oJr2iqN9VCh8hGJdfsOckl+2NaM2O8IqpcLLwKXiSBUGI1c/dzSmthJ6JL9c1wXNtWcc7aNC7QbEu6JC7fmdoFT3S62XSoWd5Ja6OKcxTdTfE6XqdtAotLn1v1WONiFV+DSs5zfIPVXUVaH2G6imU/LLtlKF53tCMdRUKlTRPa3yibJfjSmhWM6oorYSeiS/bOOKCnWXKqyPVMEdVTQoR0NK6B+a0mulwvV5RW2N6Ru1dUNT6iJXeNXsEFzQXN0UCtu0rRGVai+ha5roTwu6oJoG4WgoCX2njN5S04gqamupbu9TnNJS3UwUrv332S1N1E1Cj+SXbfykVO1l9JX88i0VndEgHA1lrt+XVU2WCjttW4W6HckW9Jm6mihstH10SxN1N9d62/S1LzSjtr5TrvddUaEBOBpCqnCkWdcFzdVOQkt1uy/4TAvqaqL9G5Jbmqi7XGGHbeuJUoWrhTYmWn8dL9XtIPsuR0Mo1O7oXtEZtTWjS2qrplPyy64mCo9/Qrvulibq55FStXdDU2rrO+Va3xlVFJWjISzonNoYUal2UoWVckJtLegz9ZHRXHFeAh7CE01prn5mdElt+cdP1f5AlCoMZBsjKhWZoyEs6JzauKWJ2ivU7mz10hUV6iehQt12oCE90JiW6sf/jG/URdf1O6NLauOMKorK0RCmdE1tndJS7SS0VLeziDeiUv2NaUYfaZueyD+PQv2lCh+1Sagt/zxStT97eP+jhNblH6vNn1+boyGkan+K9K6oUHuFup9FahpRRTEUCgeIE9q0WyoUDhh9JfSdMuriigq1N9H6N+fPbmhK0TkayoLOqY2aTskv26roL+qipq6Pu0pC01+d0NBuqVCcwXj2jcbUxQNl1MUjpWrnlJYagKOhjMmv5LauqFB7Gf2grioaUU0xjWmi9geL9/idcEYLqimmrzRRd2dUUVsThcdu455yDcTRkJbqdk1+Sku1N6NL6qqiEdUUW6qwITPK1f5s95NKhee4oKWG8ZUm6u6GptTFI6Vq54LmGoijIfkVdU1t3dJE7SVU0Ufqyv/3n2mpYSWUkeeXCb1UU0WeX9Y0tK80UXcPlKvbc50oPH4bT5TQYBwNyT/5pbpdh59RRW1l9IP6qGlEFR0Lv3NO1E/XbeY9Uqp2rqjQgBwNrVC3V5hKhZ20iyldUx81faG5DltC3ymjPvy6mlEXhdrvI0+UKmynwTgaWkJLdTuLfKEZdbGgc+prRv55HKKMvlGqfu5oTF2kCmf8hNq4okIDc7QJhdofIbyaTskv20qoVPub4VUquiC/PBSXNKO+HihXt23kfaMxtfFEqbo/5tocbUJCS3U7iyzoM3WR0FLdHneVQuHItc9ShfuNXP39pIxq6iJXuLxr64oKbYCjTSnU7Szi+QFZUBcZlYo3JBV9oVL755IKhQNHX0+UK6yPLhL6Qana8Y+bqvtQtuJoUxKq6CO1VdMZLdVNRqXiDYlXKlx2LbX7xnRNqeJ4olxhe3b1jcbU1hUV2hBHm+RXiF8xXVR0Rl1lVCrukHhzhfdtSu2ec5pSrnieKFfYHl2N6Ru19ZMyqmkjHG1aqfDtFF1cUaHuMioVf0i8UuGm9462KaFzKiSliuuJcvUbjlTh0iqhtj7TgjbG0aalCm8KddV3JWVUapgh8Wpa0A1VtCnnNP5VQrE9Ua5+v1NC3ymjtu4p14Y52oZC3W/YaxpRRV2lCjvxXzSkmhZUKmzgpeJJFc7EY8oVdr6hPNCYlurnK03UzSkttWGOtqWirjtoTafkl10lVKr7c+iipopK/f7nn7TU2zI6Ib9MKNfvf96EexpTTX1M6Zq6uKJCW+BoWzL6QV1VNKKa+ijU/Wx26K6oUH9j+kZd+LNXRlvhaJumdE1dzRVeau0rV7gUOiET7jfGVKq/jL5TQm3555ErHAy3wtG2LeicuporzpAktKBPdMzuaKL+Z2Yvo++UUBdfaEZb42jbElqq39F7rjhD4o1prn7PZx890UThIBFDRn2G447GtFWOdkGusDL7mCvekCRUKHw04xjcUKE4Zw0vI789E+riiVLFez6dOdoVE4WXAftY0AXVFEOqMHif6BDd0ZSWiiej75RQF0+Ua4v3HS852iVzdfty5Jf8ih1RTbHkCkfYT3QI7qlQnJvwl3KFV6sS6uqC5toRjnZNqf47YkUX5JcxZTSlv2kf3dKMKoptov5XADc0pZ3haNckVKr/G3g1faZS8aUKO8RE3T6dvEk/aa7QUsP4hwr1c0dj2imOdlGqcJQ7ob4KhTe8hpLRlMYU4/nG8ERzhSoaSkJfaUx9PFCucFDbKY52VUal4ux0pcLZpKYhZZQr7DCfaJPuaUGlhh2KZxl9o1T9PFCu4bdNJ452WUal4gzJUuG+pNTm5Aq/w3N/UQz3tFQYBF+pzbqkGfW108PhOdp1GZWKMyTejK6opm3JFWSUUJOaKvJKbVeqcEmVq7+dHw7P0T7IqFS8IVlq82eTfXdJhd4f6HU8Ua7fg7+zHO2LjBb0kWLxP++CajKrZfSV/DKGB8q1J+vc0T5JqFS8a3mvphndUE0mSBVevp0ongfKtUfr2dG+SWhBnyimmqZ0S8csoUsqFJdfr1OqaW842ldzDfOO9lJh57ilY5KQH4wpJRSTX5cT7SFH+2xK1zSEmmZ0QzUdqlTxL6Ve+kIz2kuO9l1GC/pIQ5krDEpFh+KcJgpvag7hJ/mfXdHecnQIElrQJxrSUmFYbmmp/ZPR3zRRWGdDuacx1bTXHB2SQuFyYRMqWtAdVbSrPtH4V6mGd0WFDoSjQ5PRXHFfCn5PTQsqFV7KrGhbMvJDkSsMxab433ui7f7u0R3igDwrtLmzySqlws7iWypcdsSUkD8IpApD4cu1HVdU6AA5OmSpwtnkE+2KUkFFNb20VChV6KVUoYQy2gUHedZ4ydExmCi81HhCpr8nKhTW6UE7lgHxEpr+ygaluyuaUU0Hz9GxSWhGf5NZ3y0VCpeAR8PRsUoVNrgNSrNbmuv3vdNRcXTsUoV7lCnZpVfg7zEWVOjIzhivOTJBQhOFQflIx8gPxuxXNR09G5DVxi86hrPKHc0VzhrmBRuQZgmNaaLdei8lhgeaK1STWcEGZH2pwjvVY8q1n2eWOyoVzhRLmXc5Mt3k+j0sf9EueqBSoQWZlmxA4skVPgLy3KaH5ieVCh/78JUyvTkyw8kV5AoySiijE2rjiSrySgWlglJmEDYguyVXUMrsBBsQYxrYgBjTwAbEmAY2IMY0sAExpoENiDENbECMaWADYkwDGxBjGtiAGNPABsSYBjYgxjSwATGmgQ2IMQ1sQIxpYANiTAMbEGMa2IAY08AGxJgGNiDGNPg/UoCy9kKFe8EAAAAASUVORK5CYII=;" vertex="1" parent="1">
          <mxGeometry x="560" y="400" width="40" height="40" as="geometry" />
        </mxCell>
        <mxCell id="WLZEM4pNa57AKpbWbVrL-22" value="" style="endArrow=classic;html=1;rounded=0;exitX=0.5;exitY=1;exitDx=0;exitDy=0;entryX=0;entryY=0.5;entryDx=0;entryDy=0;" edge="1" parent="1" source="WLZEM4pNa57AKpbWbVrL-17" target="WLZEM4pNa57AKpbWbVrL-18">
          <mxGeometry width="50" height="50" relative="1" as="geometry">
            <mxPoint x="390" y="320" as="sourcePoint" />
            <mxPoint x="440" y="270" as="targetPoint" />
          </mxGeometry>
        </mxCell>
        <mxCell id="WLZEM4pNa57AKpbWbVrL-23" value="" style="endArrow=classic;html=1;rounded=0;exitX=0.5;exitY=1;exitDx=0;exitDy=0;entryX=0.5;entryY=0;entryDx=0;entryDy=0;" edge="1" parent="1" source="WLZEM4pNa57AKpbWbVrL-17" target="WLZEM4pNa57AKpbWbVrL-19">
          <mxGeometry width="50" height="50" relative="1" as="geometry">
            <mxPoint x="390" y="320" as="sourcePoint" />
            <mxPoint x="440" y="270" as="targetPoint" />
          </mxGeometry>
        </mxCell>
        <mxCell id="WLZEM4pNa57AKpbWbVrL-24" value="" style="endArrow=classic;html=1;rounded=0;entryX=0.5;entryY=0;entryDx=0;entryDy=0;" edge="1" parent="1" target="WLZEM4pNa57AKpbWbVrL-10">
          <mxGeometry width="50" height="50" relative="1" as="geometry">
            <mxPoint x="350" y="310" as="sourcePoint" />
            <mxPoint x="160" y="330" as="targetPoint" />
          </mxGeometry>
        </mxCell>
        <mxCell id="WLZEM4pNa57AKpbWbVrL-25" value="" style="endArrow=classic;html=1;rounded=0;entryX=0.5;entryY=0;entryDx=0;entryDy=0;" edge="1" parent="1" target="WLZEM4pNa57AKpbWbVrL-8">
          <mxGeometry width="50" height="50" relative="1" as="geometry">
            <mxPoint x="350" y="310" as="sourcePoint" />
            <mxPoint x="440" y="270" as="targetPoint" />
          </mxGeometry>
        </mxCell>
        <mxCell id="WLZEM4pNa57AKpbWbVrL-26" value="" style="endArrow=classic;html=1;rounded=0;entryX=0.5;entryY=0;entryDx=0;entryDy=0;" edge="1" parent="1" target="WLZEM4pNa57AKpbWbVrL-20">
          <mxGeometry width="50" height="50" relative="1" as="geometry">
            <mxPoint x="350" y="310" as="sourcePoint" />
            <mxPoint x="440" y="270" as="targetPoint" />
          </mxGeometry>
        </mxCell>
        <mxCell id="WLZEM4pNa57AKpbWbVrL-27" value="" style="endArrow=classic;startArrow=classic;html=1;rounded=0;exitX=1;exitY=0.5;exitDx=0;exitDy=0;entryX=0.5;entryY=0;entryDx=0;entryDy=0;" edge="1" parent="1" target="WLZEM4pNa57AKpbWbVrL-17">
          <mxGeometry width="50" height="50" relative="1" as="geometry">
            <mxPoint x="235" y="197" as="sourcePoint" />
            <mxPoint x="440" y="270" as="targetPoint" />
          </mxGeometry>
        </mxCell>
        <mxCell id="WLZEM4pNa57AKpbWbVrL-29" value="" style="shape=image;verticalLabelPosition=bottom;labelBackgroundColor=default;verticalAlign=top;aspect=fixed;imageAspect=0;image=data:image/png,iVBORw0KGgoAAAANSUhEUgAAAMgAAADICAYAAACtWK6eAAAX80lEQVR4nO2d/XUbt9KHB0n+F11BqAosFZDcUQWSKjBVgegKTFUguYJQFZiugKukANMViK7ATAEx3wehdF9dm7vAcr/A5TznzJmhTwQBg/nhY1dSnBiNo6onzrmjf/75R2XDYL1en+C/x//bAMvkO/j6BW6FCV+7+OWXX1bz+fyBj0aDOMyoibOzs/88ieBfAVDUQ/xQmsWLZoEt+X5Lvt/i559/fsiybMW/GRVxmLEjz4KgKFXYKCQhEMsCl9G3zASzOyaQEihHpW/fvr3xIYV3gt8bXgrmr7/++khsRGACCaD/L4oLimso/WCFYKY//fTTPTuLF46RgwlkC6o6RBTnhCNEcYLvLQhlKSIzE8t2TCAv+O2337woxpjKAfIklsmff/55jzfAYQfP77//7o9QE3aLoRjPQrl72lVWxAfLwQpEVQcco64JRyaMXPxdxQvl/aEK5eAEok/CQBRjPg4wI44pj4tvEMpSDoiDEog/Sq3X6zvCAWaU598dhTvKDfFB4LDeo8ALvXc+FKMyiGTJseuK3SSTntNrgSjHKYRxSzgSowkyjl1eKEvpKb0VCMcpf8+YiB2nGocdZcKO0suLfO8Eoptd44MPxWgNRLJAJH43WfCxN/RKIKp6gTj+IBxgRvv4S7x/0fieuBf0RiAcqW45Uo0Jje6ZPd1NVsR7zd4LRDc/N/UBcZzw0UgEdpIlR65LRLLg496y1wL57bffRiJyiw0wI0EQij9y3RDuJQ7bSzhSXbNr3BEa6TP966+/rvB7h8P2DnYOfxEfibFP7OW9ZO8EYuLYXzhu+UfBZ/skkr0RiPJ+g8v4fG2X8b3mSST+8r6UPWAvBKImjr6x4rjld5IFcdIkLxDdPMadr+13NvrGXogkaYGo7Rx9J3mRJCsQNXEcBNxJ/AvFU0Sy4mNyJCsQnlZ9wF1gRs9BJP7i7neSFR+TIkmBIA57lHtgpCqS5ATCG/I7jlXXhMbhkdwbd4clAzvHSET87mEcLkmJxGFJoPDPP//MCQ3jCpFMJQGSEIjyxApxPBIOMMNI5vFvEgLhaDXHqRjGE6lc2jsXCOIY424xw/iezu8jDusMVT3haPWJ0DDy6PQ+0plAlHsHb8o/8Uh3KIaRj7+P+DftS+mAzgTC0eoD7gIzjBAZu8gZvnUc1joKHK38xdwwYunkqNWJQHhb/ri2o5VRDn/UOuaotSJujdYFgjgmiOMdoWGUgke/7//8888xYWu0KhDlYs7R6pFwgBlGadhF/IV9QdgKrQqE3WPK7vGG0DB2pdULu8NaQYHdY05oGFVp7cLemkDYPfw7jxNCw6jKCoG8wjdOKwJRsN3DqJlWdpFWBMJLQS8OFcOoCZ5oLXmidUzYKA5rFIXUdw+S/TfHvzFPSBZ8lG/fvl3gxvzbEf5Q+OKcm+FXjPsEf46lTuO7SOMCYfeY4VJO9meEodl3L6BU9QShZBTLER97DcK4ZzUeyQsUGP8s5fHT7wX9PiVsDIc1hqoO2T0eCVNlqzieQdxj3C3WZx5YhVW2oHuwSDB/Z8xfJg3hsMbgydWU5L4hTA5Wn79/+uknzQpeOunmxeZXwt5CgV2SgxnhVjR9kTT6XsRhjaAJ7x4x4niGXWSN6y0I5Jg8LKUAcjCShP+YBmM4ZQzBudyFxgRCUse4Wyw5SOglCZ0RFqKsnoj8E2FvIRdn5CKTACnPJwteYz+j1ZhAOF4l+WKwTDIpijlOpd/MOKJc4oOQjxnuHEuNFWN4ha+dRgSi6a68n0nkCT4IxTDG3WKHwBV5mUoA5U7GfWTJwnfEx6RgJ4w6FZSlEYGwe9yRxGvCZGDn8PeOE5K4lACIYyQJn7mbgAI7JTcLwkIUWPzmhEnB/P7wqLoOHFY7CORxnd4vRL1llbzDF6KqFxTAB8JDY4VI/H1kQVwI8zthft8RpkQjx6zaBaJpHq8+k7wTfCG66fuccIAdIl4kfidZSgGa6FGLvl/S9xlhbdQuEFaX5I5XJM6vjJkUoJtJn68TfLDQMlHvFRI9hn6k7xf42nBYrSCQx3VCx6vYsykT7id7JIbP2Q05m0gAcpaJyH+wZEAgDlcbtTamCb4cZPc4ZvNYSgG6+73jI5bxPZbsPifEYxaHI3xnUNx/4+54IDHDC+M64d/uyvaLMZ2Rt0wKUKD9OWEyxPS7DLUKhBVlJAltuxTGPSvhSArQzdHKv7MZSjneslrd4f+LbhaIGeFrrHUYr39Sp9l3F21ljPQrkxL9oq2oHydnzjNJaBeh3zf0eyI14bDa4Hg1pdDeECYBq8kxxbKUAujzhD6/IyxD7nsD3Vz0PxF2QVG/BvQrk3IiCRabAu3OCVPhgRyo1ITDaoNie1yXX4kbgcm9Z3JHUoBuVvxHwmhoN/gmvqtVlQXhFQvCinArinjZLTPm6IiPMUQ91WK8C9xrLAkQiMPVQm0N6Q7F1iRM7BkTm0kBCHpKsbwhjCVqdaJgZrhzrFXom8MVoiXvWywIwYWG8Y4koaN1zNzH4rBaSCxJXyiWoRSgJQVNofjz/TArWKGfQXj+TnNC2CoUhl/tF4SF0D9/ab8mjIJ2j2l3KQXQ5oo2jwg7h7m6QdQTqYHaBEKCyq7GTfLDBfp7yvaXIjmjSDIJoIDw5oRdkDHuM3wQFrSliPyKBaHg7im4kRRQNp8N80AeVGrAYbVAgjpZNbdBMR9Ty0vJQTcX1kfCARZDVMK1fLtNEFwcPAr0dU4Yg7+L+JyuiLei3G9o7xNhCtT2YycOqwVWpDUuBT6TnBN8LvR1JCWOg0/FsZQCFHFwAZ6vE1gk6G/UUYs8zHDnWAxvyesdPhfaW0rkrtQ09LWW2q6lES15nm8SjgM3HAcmUkCZ3Y727mlvJAEojjlOJQ2CK75HS6z65CH4BxLI6x15vSbsHMZ/xvgzqYjDKqNAon2BdE4oMVpSzLR3THNLKYDCmFAY7whTImMVPcMXgrAziXwkHcqFlnxC1iT09ZK+zggr4bDKkOQx7hbrHIqicExl+sqqGdw9tKTgvuMz3yPj6diMeMWELvCirOw4f2S7QHgqu79juCIfUylAyxV14TFLOWbS1lfCziGvN8zdRCrisMoktII+MIEqBSCQGe4cCxKzCtHeHKdSjgfanmQgEShQeBOJXOmfoUhif1xkKXF3h5j8LnCvsU5h7PeMfSQVcVhlSEomJSevCUjKDUmZSAH09StugBVCW3/TVuF/p0Dhzgmjod1gH/PYcSG6oqinUgDt3tHuNWEQ2iqsmTJtNcwDfVWpiMMqQ1KiL71Nwqp8xqKcSQ7K0YWC/kQYhEK+p5BHUgBim+HOsViumLSpVIDvOZIST+AYR3AXUSAvc8IgETm+oK0PhJ1Drh2uEpUb8DBpa1znMHmnzN2CcCv0c4y7xWIoLGYtf/cobK8MjGMkJUQSyouHNte4IAjuBsFNJAcF8jIn7BzyXbm+KzfgiU1u04QSwk4XfUShqI4pqqXkwJjHuFixfaRvF/ja4PvPcOdYkFBRe2gvk7hj8gNjUSmAtta4zqGfDleJyg14EknIFxIylALoZyZxRRDTVnSBhsS2C1piB0MgMe8wohaPyLZWtHVE2Cnk/RV5XxHuTJ8E8kBRqxTAxMXelYJtMeavuAFWCAV1T0GNpAEYz5TxvCEMEioWxjOSyGMbuXG4XGgrk7iFqFEY8xljzqQChQONQdN59h1T1GtcEIr6PUU9JtyKlrjsM0mXzNGMMBclh7zzeLNery/46L//jHcj93zdio+5aIkLMf04o71MclCgrTlhENo6pqml5ECeMzGBbFCITWyTUFTBlZqJW+OC0NYNbU0kB4XYMSNah8tFN+LwO9tQXkAflojklPktFEnsmOAtfbnDb0VLHNlChUefZrhzrFNC/YyhcPJiUCCxc8JOoaAKi9rDxK1xQUJtcbSZUNDvCEPE7GofcBfYD9CPe/oxkgL4+gXuNVYIbd3Q1kQKoK01Lkio8Erkp1FC/YzBYZVQ2AeBaLkV8pK8zgi3UqIAYgSyxuXC1ztcLnx9JhHHmVB+PLS1xgUhP4WFVyI/jRLqZwyFyY9BgcKbE3ZKqAAUYvsZSmyJAigUiEaIlr68oisrwq1Q1JlECAQK++KhrTUuCH2qKz+NEupnDA6rhAKTPCfslAiBDOjnV8IYCs/rFNJI4p74BIuSYsp9JMqY/mZMA8Jc6EsmEQKhrfe0NSbMhbbWuCChwmNMJpBnFCi8OWGnUACFAvHEFkCoLYWYMdNO8Mc8ioqJry/sh4evf1x/d8HfRqgtLbGAhAqPPuWOqU1C/YzBYZWJLbyGCa7Wsf2MKKYogXiYpGPmaCkFUFB3FNQ14X+hD8EVXyOOaM/QXp1jOmNMmeSwbTxdEOpnDA6rTGzhNUydArmnmEZSQGxbcEW/phJAN+9WTgj9xC6Y1wVhIfRhJHFHPd9mYbFouXcqpzSV2z/6lUnEsa9p6GfhmGNwWGVIyBrXNQ8UokoB9NNP6mssRJ1tZbR1hq8d+jDHqURAsbyiVlaEW2HVjz4WMR6Hy4V+ZZKAQEL9jKFyAx4SssZ1TfAvWdDPTOImLtgWBRV9jKA4K69k36PAij8njOEz4znB50JuZrhzLMQX2hpKAeTmcR1xL2oa+lm5vis34CG5a1znhBLCxEWvkhT1KTW9INyKQmyBcmRb8Fbci2TFx8ooF+ptb9/z4PsH7zPM4VfcAAvxQJ5VCqCtNa5z6KfDVaJyAx4SkkncytwoFLUvwkxyoJ8jiTyzw1sSfIfPBcGtKNIjwhhmtHeJrwzj+IC7wKIgLyGxDxH7I2GQkNh0c5f6RNg1X8j3UCpSl0BmuHOsa65IylRy0BKFAB9p6wKfCwKJ3pGemFKsbynWFXFplJ2D/t8SjiSeB8ahUgDzN8b5doPQ/0v6PyPcigJ9nBN2TXDcMTisMjsUSiOEVjcPxbCUuD9Q4IvhFcWwItyKUrAcdZaM/YiPUdBHf9y6pN2llEARN9/rA9/rhI9luKJQplIA8/cptt1QTmhrQlvvCDuFPAdrIYZaBELRjST+6NIYJCX4yzz0dYY7x2J4S3Hd4XOpUBBTiu09xbYgzkU3R5ZrwpGU54H+qxSgCI/2Hwlj+EJ7QymA/GaSwHGbWrihFiZSEYdVRoEkzwk7h6J7RdGtCLfCBI4kUswkOfgmXHfYRV7iv4dwP8FW2FI2DGVzYb6g3aHsCLkovJN5EPiU7/GGMAh9vScfIymA/H7F+b53SszYY3BYZZQiQSA+MZ1DYi7Jy4xwK1qyr7QXTLQCbc4Jk4FivqGYJ1KAbnLxSDjAgpCLU1KxINyKbna7T4SdE+prLLUIxMNKtGIlOiLsFAojePZklZvhzrEYMo4VZ/hCaHOMu8VS4DN9PsEXwpxNmLN3hDHEHK/GuCRyQF8drjK1NOIhOZmkcfYMHovo60gij1keVqNLVqMZYSEU3JSCe0PYJZ/pr2YFx0yPbu4enwgHWBDyGlx4GH/0Zb9hgmKOxWG1QHLuSM41YedQIMGCpr8r+ntEGITiCIrOo5sjy4LwV6x16Kf/v2CdMPalBGCR+IC7wKIgp8dF7epGcI+EnUMe7pmvkdSAw2pBS/ywW9PEJAiBTBDIO8IoaPOGNicSQIE8zAm74IqVcyoBtORcMfZ7xj6SAhDcGHeLpcBb8nCHr4zDakE3q+dXwhRYkaBX+FyU/pZ9+sQqesYqmkkAxBe9O9UJ/XtF91aEuehmpf9EOMCioN3guBlzKscr399TursgrExtAvGwivhOvcZSILiaMql3TOo1YSxR/2Ma2u2kWBhvcD6ZI7+7qcTzQLsqBehGdI+EncNu9ze73YCwFhxWGxRG2YJrDBIVvDfoDrsI7fo34Wd5IlHapFi+ErYO4i1cORHHH7iRlCDUpod5n5LDN4Qp8BFBX+BrwWG1oSXPtk3D5PpCzqQAimaMu8XKMGMSLvE/QLF0uUhk9OsM/wOM8w/cSErAYhC8e2hCu8cTb8nBHb4WHFYb2uHqmUNuwbyE4lngXmNlmCLAt+hvRfwviOMacdwRdsmUMV/h/0U3c3JLOJISIA7/RGyYvRjfNhhzSruHMCen9HlBWAsOq5Udi60xSFhwF9Hd3wCvsAXmC2pIoQwlDVbYAvOcYAOsLFcIbSoF6EZ8j4S7tF87zEGt9w+Pw2oFgYxxt1gSkLTgDzB6WAknFPg7woOHnAWPVh5y1uVx8gdi+10Gh9WKpncm9USdSxF3Jgn8NEDHfGHX9S8bV8S56O67bmPQ71qPV57aBeKh0HwnX2OpEPV4VjkylH2q1SdYgf29Q7OIImOO5ziVdPjCIjiUmmlKIGPcLZYSuU+eXqKsjIgkO0SRsIhcIo4ZYSHM70hK/CxbGyDu9xyvxoS10ohAlJWY7fcrYVLEFoAiEvr/ifCQuGIBmUoA3cztI+EASwbm9pS5XRDWSiMC8bDKzHDnWEr4o5ZP5FIC0P+RJLZKNkjUHc1DXuY4lbT4Qv+H0gBNCmQkCRYYW3HUUy1Pak9pGuKB4lKJgHxMyMc7wqRgTm+Y04k0gMMaQdmKOcsvSegRH5OChEadVxU4TswJews76iU76oywEE342MkY/AOYpTRAYwLxpLriPHHFyjmVAOyEa1xviSku3Ty69+IYYEnBYnfPYjeShnBYY2jCu8gThSJRoDDmhL0FgZwhkExy0M0cztcd/HRyDPT/mO4vpSEaFYiHXWRKct8QJgkJPiPBmWyB3eMD7gLrM7mPvzVxccBH+n6Bb4zGBaKb7fmRMFX8ky1/Ds/kBYhjJAk+ZGiIrTspOfDjH0miMG+5i1tdNC4QT+q7iIez7AI3wzwX9PcEf0jMyEEmLBiMXYUcYAMsVR4QtUrDOKxxNP1dxNgz2D38rj8jbJRWBOJhu87EfhDQqIdWdg+Pw1pBbRcxaoLdo/G7xzOtCcTDXWTC+fYdoWHsBPekRt97fI/DWkN5bMgusiD8FTOMUiAO/+P4wyzwawt10qpAPJrYH3Yw9gcEcsPuMZEWaV0gHruwGzvwhYv5UFqmE4GoXdiNkrR5MX9JJwLx2IXdiIWj1T1Hq5F0gMM6g6PWAvcaM4w8ov6IRFN0KhDlqPXt27cFO8kRHw3jBxDHKeJYEHZCpwLxqD3VMvJ5y8X8Dt8ZnQvEw33kjl3kmtAwnnlAHCod47AksPuI8QyX8tZfCOaRjEBUD/fvURn/C/eOTh7pbiMZgXjYRUZyOL+kZGzniqPVVBIhKYF4TCSHC0erqL820ybJCcSDSHySbjHjQEAcnb0MLMJhScKTrSn3kTeERv/5yLHqAp8cyQrEYyI5CD5zKdcsgSdW20haIB6OW5nYT/72laTF4UleILr5JatM7B1J3/DiGGUd/hhJDMkLxKMmkr7hxaFZwjvHM3shEI+aSPrC3ojDszcC8aiJZN/ZK3F49kogHjWR7Ct7Jw7P3gnEoyaSfWMvxeHZS4F41ESyL+ytODx7KxCPmkhSZ6/F4dlrgXjURJIqey8Oz94LxKMmktTohTg8vRCIR00kqdAbcXh6IxCPmki6plfi8PRKIB41kXRF78Th6Z1APGoiaZteisPTS4F41ETSFr0Vh6e3AvHoRiRTETnHjPrptTg8vRbIM/abiY3Qe3F4DkIgHhNJrRyEODwHIxCPiaQWDkYcnoMSiMdEUomDEofn4ATiMZHsxMGJw3OQAvGYSEpxkOLwHKxAPCaSKA5WHJ6DFojHRFLIQYvDc/AC8ZhItnLw4vCYQJ4wkfwPJo4nTCAvMJH8i4njBSaQ7zhwkZg4vsMEsoUDFYmJYwsmkBwOTCQfEccoM3H8gAmkgEMQSar/Z6dUcJhRQJ9FYuII4zAjQB9FYuKIw2FGBH0SiYkjHocZkfRBJCaOcjjMKME+i8TEUR6HGSXZR5GYOHbDYcYO7JNITBy74zBjR/ZBJCaOajjMqEDKIjFxVMdhRkVSFImJox4cZtRASiIxcdSHw4yaSEEkJo56cZhRI12KxMRRPw4zaqYLkZg4msFhRgO0KRITR3M4zGiINkRi4mgWhxkN0qRITBzN4zCjYZoQiYmjHRxmtECdIjFxtIfDjJaoQyQmjnZxmNEiVURi4mgfhxkts4tITBzd4DCjA8qIxMTRHQ4zOiJGJCaObnGY0SFFIjFxdI/DjI7ZJhITRxo4zEiAlyIxcaSDw4xE8CIRkRXiGOONBPg/uGb0jCV3yooAAAAASUVORK5CYII=;" vertex="1" parent="1">
          <mxGeometry x="600" y="400" width="40" height="40" as="geometry" />
        </mxCell>
        <mxCell id="WLZEM4pNa57AKpbWbVrL-32" value="" style="shape=image;verticalLabelPosition=bottom;labelBackgroundColor=default;verticalAlign=top;aspect=fixed;imageAspect=0;image=data:image/png,iVBORw0KGgoAAAANSUhEUgAAAMgAAADICAYAAACtWK6eAAAX80lEQVR4nO2d/XUbt9KHB0n+F11BqAosFZDcUQWSKjBVgegKTFUguYJQFZiugKukANMViK7ATAEx3wehdF9dm7vAcr/A5TznzJmhTwQBg/nhY1dSnBiNo6onzrmjf/75R2XDYL1en+C/x//bAMvkO/j6BW6FCV+7+OWXX1bz+fyBj0aDOMyoibOzs/88ieBfAVDUQ/xQmsWLZoEt+X5Lvt/i559/fsiybMW/GRVxmLEjz4KgKFXYKCQhEMsCl9G3zASzOyaQEihHpW/fvr3xIYV3gt8bXgrmr7/++khsRGACCaD/L4oLimso/WCFYKY//fTTPTuLF46RgwlkC6o6RBTnhCNEcYLvLQhlKSIzE8t2TCAv+O2337woxpjKAfIklsmff/55jzfAYQfP77//7o9QE3aLoRjPQrl72lVWxAfLwQpEVQcco64JRyaMXPxdxQvl/aEK5eAEok/CQBRjPg4wI44pj4tvEMpSDoiDEog/Sq3X6zvCAWaU598dhTvKDfFB4LDeo8ALvXc+FKMyiGTJseuK3SSTntNrgSjHKYRxSzgSowkyjl1eKEvpKb0VCMcpf8+YiB2nGocdZcKO0suLfO8Eoptd44MPxWgNRLJAJH43WfCxN/RKIKp6gTj+IBxgRvv4S7x/0fieuBf0RiAcqW45Uo0Jje6ZPd1NVsR7zd4LRDc/N/UBcZzw0UgEdpIlR65LRLLg496y1wL57bffRiJyiw0wI0EQij9y3RDuJQ7bSzhSXbNr3BEa6TP966+/rvB7h8P2DnYOfxEfibFP7OW9ZO8EYuLYXzhu+UfBZ/skkr0RiPJ+g8v4fG2X8b3mSST+8r6UPWAvBKImjr6x4rjld5IFcdIkLxDdPMadr+13NvrGXogkaYGo7Rx9J3mRJCsQNXEcBNxJ/AvFU0Sy4mNyJCsQnlZ9wF1gRs9BJP7i7neSFR+TIkmBIA57lHtgpCqS5ATCG/I7jlXXhMbhkdwbd4clAzvHSET87mEcLkmJxGFJoPDPP//MCQ3jCpFMJQGSEIjyxApxPBIOMMNI5vFvEgLhaDXHqRjGE6lc2jsXCOIY424xw/iezu8jDusMVT3haPWJ0DDy6PQ+0plAlHsHb8o/8Uh3KIaRj7+P+DftS+mAzgTC0eoD7gIzjBAZu8gZvnUc1joKHK38xdwwYunkqNWJQHhb/ri2o5VRDn/UOuaotSJujdYFgjgmiOMdoWGUgke/7//8888xYWu0KhDlYs7R6pFwgBlGadhF/IV9QdgKrQqE3WPK7vGG0DB2pdULu8NaQYHdY05oGFVp7cLemkDYPfw7jxNCw6jKCoG8wjdOKwJRsN3DqJlWdpFWBMJLQS8OFcOoCZ5oLXmidUzYKA5rFIXUdw+S/TfHvzFPSBZ8lG/fvl3gxvzbEf5Q+OKcm+FXjPsEf46lTuO7SOMCYfeY4VJO9meEodl3L6BU9QShZBTLER97DcK4ZzUeyQsUGP8s5fHT7wX9PiVsDIc1hqoO2T0eCVNlqzieQdxj3C3WZx5YhVW2oHuwSDB/Z8xfJg3hsMbgydWU5L4hTA5Wn79/+uknzQpeOunmxeZXwt5CgV2SgxnhVjR9kTT6XsRhjaAJ7x4x4niGXWSN6y0I5Jg8LKUAcjCShP+YBmM4ZQzBudyFxgRCUse4Wyw5SOglCZ0RFqKsnoj8E2FvIRdn5CKTACnPJwteYz+j1ZhAOF4l+WKwTDIpijlOpd/MOKJc4oOQjxnuHEuNFWN4ha+dRgSi6a68n0nkCT4IxTDG3WKHwBV5mUoA5U7GfWTJwnfEx6RgJ4w6FZSlEYGwe9yRxGvCZGDn8PeOE5K4lACIYyQJn7mbgAI7JTcLwkIUWPzmhEnB/P7wqLoOHFY7CORxnd4vRL1llbzDF6KqFxTAB8JDY4VI/H1kQVwI8zthft8RpkQjx6zaBaJpHq8+k7wTfCG66fuccIAdIl4kfidZSgGa6FGLvl/S9xlhbdQuEFaX5I5XJM6vjJkUoJtJn68TfLDQMlHvFRI9hn6k7xf42nBYrSCQx3VCx6vYsykT7id7JIbP2Q05m0gAcpaJyH+wZEAgDlcbtTamCb4cZPc4ZvNYSgG6+73jI5bxPZbsPifEYxaHI3xnUNx/4+54IDHDC+M64d/uyvaLMZ2Rt0wKUKD9OWEyxPS7DLUKhBVlJAltuxTGPSvhSArQzdHKv7MZSjneslrd4f+LbhaIGeFrrHUYr39Sp9l3F21ljPQrkxL9oq2oHydnzjNJaBeh3zf0eyI14bDa4Hg1pdDeECYBq8kxxbKUAujzhD6/IyxD7nsD3Vz0PxF2QVG/BvQrk3IiCRabAu3OCVPhgRyo1ITDaoNie1yXX4kbgcm9Z3JHUoBuVvxHwmhoN/gmvqtVlQXhFQvCinArinjZLTPm6IiPMUQ91WK8C9xrLAkQiMPVQm0N6Q7F1iRM7BkTm0kBCHpKsbwhjCVqdaJgZrhzrFXom8MVoiXvWywIwYWG8Y4koaN1zNzH4rBaSCxJXyiWoRSgJQVNofjz/TArWKGfQXj+TnNC2CoUhl/tF4SF0D9/ab8mjIJ2j2l3KQXQ5oo2jwg7h7m6QdQTqYHaBEKCyq7GTfLDBfp7yvaXIjmjSDIJoIDw5oRdkDHuM3wQFrSliPyKBaHg7im4kRRQNp8N80AeVGrAYbVAgjpZNbdBMR9Ty0vJQTcX1kfCARZDVMK1fLtNEFwcPAr0dU4Yg7+L+JyuiLei3G9o7xNhCtT2YycOqwVWpDUuBT6TnBN8LvR1JCWOg0/FsZQCFHFwAZ6vE1gk6G/UUYs8zHDnWAxvyesdPhfaW0rkrtQ09LWW2q6lES15nm8SjgM3HAcmUkCZ3Y727mlvJAEojjlOJQ2CK75HS6z65CH4BxLI6x15vSbsHMZ/xvgzqYjDKqNAon2BdE4oMVpSzLR3THNLKYDCmFAY7whTImMVPcMXgrAziXwkHcqFlnxC1iT09ZK+zggr4bDKkOQx7hbrHIqicExl+sqqGdw9tKTgvuMz3yPj6diMeMWELvCirOw4f2S7QHgqu79juCIfUylAyxV14TFLOWbS1lfCziGvN8zdRCrisMoktII+MIEqBSCQGe4cCxKzCtHeHKdSjgfanmQgEShQeBOJXOmfoUhif1xkKXF3h5j8LnCvsU5h7PeMfSQVcVhlSEomJSevCUjKDUmZSAH09StugBVCW3/TVuF/p0Dhzgmjod1gH/PYcSG6oqinUgDt3tHuNWEQ2iqsmTJtNcwDfVWpiMMqQ1KiL71Nwqp8xqKcSQ7K0YWC/kQYhEK+p5BHUgBim+HOsViumLSpVIDvOZIST+AYR3AXUSAvc8IgETm+oK0PhJ1Drh2uEpUb8DBpa1znMHmnzN2CcCv0c4y7xWIoLGYtf/cobK8MjGMkJUQSyouHNte4IAjuBsFNJAcF8jIn7BzyXbm+KzfgiU1u04QSwk4XfUShqI4pqqXkwJjHuFixfaRvF/ja4PvPcOdYkFBRe2gvk7hj8gNjUSmAtta4zqGfDleJyg14EknIFxIylALoZyZxRRDTVnSBhsS2C1piB0MgMe8wohaPyLZWtHVE2Cnk/RV5XxHuTJ8E8kBRqxTAxMXelYJtMeavuAFWCAV1T0GNpAEYz5TxvCEMEioWxjOSyGMbuXG4XGgrk7iFqFEY8xljzqQChQONQdN59h1T1GtcEIr6PUU9JtyKlrjsM0mXzNGMMBclh7zzeLNery/46L//jHcj93zdio+5aIkLMf04o71MclCgrTlhENo6pqml5ECeMzGBbFCITWyTUFTBlZqJW+OC0NYNbU0kB4XYMSNah8tFN+LwO9tQXkAflojklPktFEnsmOAtfbnDb0VLHNlChUefZrhzrFNC/YyhcPJiUCCxc8JOoaAKi9rDxK1xQUJtcbSZUNDvCEPE7GofcBfYD9CPe/oxkgL4+gXuNVYIbd3Q1kQKoK01Lkio8Erkp1FC/YzBYZVQ2AeBaLkV8pK8zgi3UqIAYgSyxuXC1ztcLnx9JhHHmVB+PLS1xgUhP4WFVyI/jRLqZwyFyY9BgcKbE3ZKqAAUYvsZSmyJAigUiEaIlr68oisrwq1Q1JlECAQK++KhrTUuCH2qKz+NEupnDA6rhAKTPCfslAiBDOjnV8IYCs/rFNJI4p74BIuSYsp9JMqY/mZMA8Jc6EsmEQKhrfe0NSbMhbbWuCChwmNMJpBnFCi8OWGnUACFAvHEFkCoLYWYMdNO8Mc8ioqJry/sh4evf1x/d8HfRqgtLbGAhAqPPuWOqU1C/YzBYZWJLbyGCa7Wsf2MKKYogXiYpGPmaCkFUFB3FNQ14X+hD8EVXyOOaM/QXp1jOmNMmeSwbTxdEOpnDA6rTGzhNUydArmnmEZSQGxbcEW/phJAN+9WTgj9xC6Y1wVhIfRhJHFHPd9mYbFouXcqpzSV2z/6lUnEsa9p6GfhmGNwWGVIyBrXNQ8UokoB9NNP6mssRJ1tZbR1hq8d+jDHqURAsbyiVlaEW2HVjz4WMR6Hy4V+ZZKAQEL9jKFyAx4SssZ1TfAvWdDPTOImLtgWBRV9jKA4K69k36PAij8njOEz4znB50JuZrhzLMQX2hpKAeTmcR1xL2oa+lm5vis34CG5a1znhBLCxEWvkhT1KTW9INyKQmyBcmRb8Fbci2TFx8ooF+ptb9/z4PsH7zPM4VfcAAvxQJ5VCqCtNa5z6KfDVaJyAx4SkkncytwoFLUvwkxyoJ8jiTyzw1sSfIfPBcGtKNIjwhhmtHeJrwzj+IC7wKIgLyGxDxH7I2GQkNh0c5f6RNg1X8j3UCpSl0BmuHOsa65IylRy0BKFAB9p6wKfCwKJ3pGemFKsbynWFXFplJ2D/t8SjiSeB8ahUgDzN8b5doPQ/0v6PyPcigJ9nBN2TXDcMTisMjsUSiOEVjcPxbCUuD9Q4IvhFcWwItyKUrAcdZaM/YiPUdBHf9y6pN2llEARN9/rA9/rhI9luKJQplIA8/cptt1QTmhrQlvvCDuFPAdrIYZaBELRjST+6NIYJCX4yzz0dYY7x2J4S3Hd4XOpUBBTiu09xbYgzkU3R5ZrwpGU54H+qxSgCI/2Hwlj+EJ7QymA/GaSwHGbWrihFiZSEYdVRoEkzwk7h6J7RdGtCLfCBI4kUswkOfgmXHfYRV7iv4dwP8FW2FI2DGVzYb6g3aHsCLkovJN5EPiU7/GGMAh9vScfIymA/H7F+b53SszYY3BYZZQiQSA+MZ1DYi7Jy4xwK1qyr7QXTLQCbc4Jk4FivqGYJ1KAbnLxSDjAgpCLU1KxINyKbna7T4SdE+prLLUIxMNKtGIlOiLsFAojePZklZvhzrEYMo4VZ/hCaHOMu8VS4DN9PsEXwpxNmLN3hDHEHK/GuCRyQF8drjK1NOIhOZmkcfYMHovo60gij1keVqNLVqMZYSEU3JSCe0PYJZ/pr2YFx0yPbu4enwgHWBDyGlx4GH/0Zb9hgmKOxWG1QHLuSM41YedQIMGCpr8r+ntEGITiCIrOo5sjy4LwV6x16Kf/v2CdMPalBGCR+IC7wKIgp8dF7epGcI+EnUMe7pmvkdSAw2pBS/ywW9PEJAiBTBDIO8IoaPOGNicSQIE8zAm74IqVcyoBtORcMfZ7xj6SAhDcGHeLpcBb8nCHr4zDakE3q+dXwhRYkaBX+FyU/pZ9+sQqesYqmkkAxBe9O9UJ/XtF91aEuehmpf9EOMCioN3guBlzKscr399TursgrExtAvGwivhOvcZSILiaMql3TOo1YSxR/2Ma2u2kWBhvcD6ZI7+7qcTzQLsqBehGdI+EncNu9ze73YCwFhxWGxRG2YJrDBIVvDfoDrsI7fo34Wd5IlHapFi+ErYO4i1cORHHH7iRlCDUpod5n5LDN4Qp8BFBX+BrwWG1oSXPtk3D5PpCzqQAimaMu8XKMGMSLvE/QLF0uUhk9OsM/wOM8w/cSErAYhC8e2hCu8cTb8nBHb4WHFYb2uHqmUNuwbyE4lngXmNlmCLAt+hvRfwviOMacdwRdsmUMV/h/0U3c3JLOJISIA7/RGyYvRjfNhhzSruHMCen9HlBWAsOq5Udi60xSFhwF9Hd3wCvsAXmC2pIoQwlDVbYAvOcYAOsLFcIbSoF6EZ8j4S7tF87zEGt9w+Pw2oFgYxxt1gSkLTgDzB6WAknFPg7woOHnAWPVh5y1uVx8gdi+10Gh9WKpncm9USdSxF3Jgn8NEDHfGHX9S8bV8S56O67bmPQ71qPV57aBeKh0HwnX2OpEPV4VjkylH2q1SdYgf29Q7OIImOO5ziVdPjCIjiUmmlKIGPcLZYSuU+eXqKsjIgkO0SRsIhcIo4ZYSHM70hK/CxbGyDu9xyvxoS10ohAlJWY7fcrYVLEFoAiEvr/ifCQuGIBmUoA3cztI+EASwbm9pS5XRDWSiMC8bDKzHDnWEr4o5ZP5FIC0P+RJLZKNkjUHc1DXuY4lbT4Qv+H0gBNCmQkCRYYW3HUUy1Pak9pGuKB4lKJgHxMyMc7wqRgTm+Y04k0gMMaQdmKOcsvSegRH5OChEadVxU4TswJews76iU76oywEE342MkY/AOYpTRAYwLxpLriPHHFyjmVAOyEa1xviSku3Ty69+IYYEnBYnfPYjeShnBYY2jCu8gThSJRoDDmhL0FgZwhkExy0M0cztcd/HRyDPT/mO4vpSEaFYiHXWRKct8QJgkJPiPBmWyB3eMD7gLrM7mPvzVxccBH+n6Bb4zGBaKb7fmRMFX8ky1/Ds/kBYhjJAk+ZGiIrTspOfDjH0miMG+5i1tdNC4QT+q7iIez7AI3wzwX9PcEf0jMyEEmLBiMXYUcYAMsVR4QtUrDOKxxNP1dxNgz2D38rj8jbJRWBOJhu87EfhDQqIdWdg+Pw1pBbRcxaoLdo/G7xzOtCcTDXWTC+fYdoWHsBPekRt97fI/DWkN5bMgusiD8FTOMUiAO/+P4wyzwawt10qpAPJrYH3Yw9gcEcsPuMZEWaV0gHruwGzvwhYv5UFqmE4GoXdiNkrR5MX9JJwLx2IXdiIWj1T1Hq5F0gMM6g6PWAvcaM4w8ov6IRFN0KhDlqPXt27cFO8kRHw3jBxDHKeJYEHZCpwLxqD3VMvJ5y8X8Dt8ZnQvEw33kjl3kmtAwnnlAHCod47AksPuI8QyX8tZfCOaRjEBUD/fvURn/C/eOTh7pbiMZgXjYRUZyOL+kZGzniqPVVBIhKYF4TCSHC0erqL820ybJCcSDSHySbjHjQEAcnb0MLMJhScKTrSn3kTeERv/5yLHqAp8cyQrEYyI5CD5zKdcsgSdW20haIB6OW5nYT/72laTF4UleILr5JatM7B1J3/DiGGUd/hhJDMkLxKMmkr7hxaFZwjvHM3shEI+aSPrC3ojDszcC8aiJZN/ZK3F49kogHjWR7Ct7Jw7P3gnEoyaSfWMvxeHZS4F41ESyL+ytODx7KxCPmkhSZ6/F4dlrgXjURJIqey8Oz94LxKMmktTohTg8vRCIR00kqdAbcXh6IxCPmki6plfi8PRKIB41kXRF78Th6Z1APGoiaZteisPTS4F41ETSFr0Vh6e3AvHoRiRTETnHjPrptTg8vRbIM/abiY3Qe3F4DkIgHhNJrRyEODwHIxCPiaQWDkYcnoMSiMdEUomDEofn4ATiMZHsxMGJw3OQAvGYSEpxkOLwHKxAPCaSKA5WHJ6DFojHRFLIQYvDc/AC8ZhItnLw4vCYQJ4wkfwPJo4nTCAvMJH8i4njBSaQ7zhwkZg4vsMEsoUDFYmJYwsmkBwOTCQfEccoM3H8gAmkgEMQSar/Z6dUcJhRQJ9FYuII4zAjQB9FYuKIw2FGBH0SiYkjHocZkfRBJCaOcjjMKME+i8TEUR6HGSXZR5GYOHbDYcYO7JNITBy74zBjR/ZBJCaOajjMqEDKIjFxVMdhRkVSFImJox4cZtRASiIxcdSHw4yaSEEkJo56cZhRI12KxMRRPw4zaqYLkZg4msFhRgO0KRITR3M4zGiINkRi4mgWhxkN0qRITBzN4zCjYZoQiYmjHRxmtECdIjFxtIfDjJaoQyQmjnZxmNEiVURi4mgfhxkts4tITBzd4DCjA8qIxMTRHQ4zOiJGJCaObnGY0SFFIjFxdI/DjI7ZJhITRxo4zEiAlyIxcaSDw4xE8CIRkRXiGOONBPg/uGb0jCV3yooAAAAASUVORK5CYII=;" vertex="1" parent="1">
          <mxGeometry x="430" y="380" width="40" height="40" as="geometry" />
        </mxCell>
        <mxCell id="WLZEM4pNa57AKpbWbVrL-34" value="" style="shape=image;verticalLabelPosition=bottom;labelBackgroundColor=default;verticalAlign=top;aspect=fixed;imageAspect=0;image=data:image/png,iVBORw0KGgoAAAANSUhEUgAAAMgAAADICAYAAACtWK6eAAAX80lEQVR4nO2d/XUbt9KHB0n+F11BqAosFZDcUQWSKjBVgegKTFUguYJQFZiugKukANMViK7ATAEx3wehdF9dm7vAcr/A5TznzJmhTwQBg/nhY1dSnBiNo6onzrmjf/75R2XDYL1en+C/x//bAMvkO/j6BW6FCV+7+OWXX1bz+fyBj0aDOMyoibOzs/88ieBfAVDUQ/xQmsWLZoEt+X5Lvt/i559/fsiybMW/GRVxmLEjz4KgKFXYKCQhEMsCl9G3zASzOyaQEihHpW/fvr3xIYV3gt8bXgrmr7/++khsRGACCaD/L4oLimso/WCFYKY//fTTPTuLF46RgwlkC6o6RBTnhCNEcYLvLQhlKSIzE8t2TCAv+O2337woxpjKAfIklsmff/55jzfAYQfP77//7o9QE3aLoRjPQrl72lVWxAfLwQpEVQcco64JRyaMXPxdxQvl/aEK5eAEok/CQBRjPg4wI44pj4tvEMpSDoiDEog/Sq3X6zvCAWaU598dhTvKDfFB4LDeo8ALvXc+FKMyiGTJseuK3SSTntNrgSjHKYRxSzgSowkyjl1eKEvpKb0VCMcpf8+YiB2nGocdZcKO0suLfO8Eoptd44MPxWgNRLJAJH43WfCxN/RKIKp6gTj+IBxgRvv4S7x/0fieuBf0RiAcqW45Uo0Jje6ZPd1NVsR7zd4LRDc/N/UBcZzw0UgEdpIlR65LRLLg496y1wL57bffRiJyiw0wI0EQij9y3RDuJQ7bSzhSXbNr3BEa6TP966+/rvB7h8P2DnYOfxEfibFP7OW9ZO8EYuLYXzhu+UfBZ/skkr0RiPJ+g8v4fG2X8b3mSST+8r6UPWAvBKImjr6x4rjld5IFcdIkLxDdPMadr+13NvrGXogkaYGo7Rx9J3mRJCsQNXEcBNxJ/AvFU0Sy4mNyJCsQnlZ9wF1gRs9BJP7i7neSFR+TIkmBIA57lHtgpCqS5ATCG/I7jlXXhMbhkdwbd4clAzvHSET87mEcLkmJxGFJoPDPP//MCQ3jCpFMJQGSEIjyxApxPBIOMMNI5vFvEgLhaDXHqRjGE6lc2jsXCOIY424xw/iezu8jDusMVT3haPWJ0DDy6PQ+0plAlHsHb8o/8Uh3KIaRj7+P+DftS+mAzgTC0eoD7gIzjBAZu8gZvnUc1joKHK38xdwwYunkqNWJQHhb/ri2o5VRDn/UOuaotSJujdYFgjgmiOMdoWGUgke/7//8888xYWu0KhDlYs7R6pFwgBlGadhF/IV9QdgKrQqE3WPK7vGG0DB2pdULu8NaQYHdY05oGFVp7cLemkDYPfw7jxNCw6jKCoG8wjdOKwJRsN3DqJlWdpFWBMJLQS8OFcOoCZ5oLXmidUzYKA5rFIXUdw+S/TfHvzFPSBZ8lG/fvl3gxvzbEf5Q+OKcm+FXjPsEf46lTuO7SOMCYfeY4VJO9meEodl3L6BU9QShZBTLER97DcK4ZzUeyQsUGP8s5fHT7wX9PiVsDIc1hqoO2T0eCVNlqzieQdxj3C3WZx5YhVW2oHuwSDB/Z8xfJg3hsMbgydWU5L4hTA5Wn79/+uknzQpeOunmxeZXwt5CgV2SgxnhVjR9kTT6XsRhjaAJ7x4x4niGXWSN6y0I5Jg8LKUAcjCShP+YBmM4ZQzBudyFxgRCUse4Wyw5SOglCZ0RFqKsnoj8E2FvIRdn5CKTACnPJwteYz+j1ZhAOF4l+WKwTDIpijlOpd/MOKJc4oOQjxnuHEuNFWN4ha+dRgSi6a68n0nkCT4IxTDG3WKHwBV5mUoA5U7GfWTJwnfEx6RgJ4w6FZSlEYGwe9yRxGvCZGDn8PeOE5K4lACIYyQJn7mbgAI7JTcLwkIUWPzmhEnB/P7wqLoOHFY7CORxnd4vRL1llbzDF6KqFxTAB8JDY4VI/H1kQVwI8zthft8RpkQjx6zaBaJpHq8+k7wTfCG66fuccIAdIl4kfidZSgGa6FGLvl/S9xlhbdQuEFaX5I5XJM6vjJkUoJtJn68TfLDQMlHvFRI9hn6k7xf42nBYrSCQx3VCx6vYsykT7id7JIbP2Q05m0gAcpaJyH+wZEAgDlcbtTamCb4cZPc4ZvNYSgG6+73jI5bxPZbsPifEYxaHI3xnUNx/4+54IDHDC+M64d/uyvaLMZ2Rt0wKUKD9OWEyxPS7DLUKhBVlJAltuxTGPSvhSArQzdHKv7MZSjneslrd4f+LbhaIGeFrrHUYr39Sp9l3F21ljPQrkxL9oq2oHydnzjNJaBeh3zf0eyI14bDa4Hg1pdDeECYBq8kxxbKUAujzhD6/IyxD7nsD3Vz0PxF2QVG/BvQrk3IiCRabAu3OCVPhgRyo1ITDaoNie1yXX4kbgcm9Z3JHUoBuVvxHwmhoN/gmvqtVlQXhFQvCinArinjZLTPm6IiPMUQ91WK8C9xrLAkQiMPVQm0N6Q7F1iRM7BkTm0kBCHpKsbwhjCVqdaJgZrhzrFXom8MVoiXvWywIwYWG8Y4koaN1zNzH4rBaSCxJXyiWoRSgJQVNofjz/TArWKGfQXj+TnNC2CoUhl/tF4SF0D9/ab8mjIJ2j2l3KQXQ5oo2jwg7h7m6QdQTqYHaBEKCyq7GTfLDBfp7yvaXIjmjSDIJoIDw5oRdkDHuM3wQFrSliPyKBaHg7im4kRRQNp8N80AeVGrAYbVAgjpZNbdBMR9Ty0vJQTcX1kfCARZDVMK1fLtNEFwcPAr0dU4Yg7+L+JyuiLei3G9o7xNhCtT2YycOqwVWpDUuBT6TnBN8LvR1JCWOg0/FsZQCFHFwAZ6vE1gk6G/UUYs8zHDnWAxvyesdPhfaW0rkrtQ09LWW2q6lES15nm8SjgM3HAcmUkCZ3Y727mlvJAEojjlOJQ2CK75HS6z65CH4BxLI6x15vSbsHMZ/xvgzqYjDKqNAon2BdE4oMVpSzLR3THNLKYDCmFAY7whTImMVPcMXgrAziXwkHcqFlnxC1iT09ZK+zggr4bDKkOQx7hbrHIqicExl+sqqGdw9tKTgvuMz3yPj6diMeMWELvCirOw4f2S7QHgqu79juCIfUylAyxV14TFLOWbS1lfCziGvN8zdRCrisMoktII+MIEqBSCQGe4cCxKzCtHeHKdSjgfanmQgEShQeBOJXOmfoUhif1xkKXF3h5j8LnCvsU5h7PeMfSQVcVhlSEomJSevCUjKDUmZSAH09StugBVCW3/TVuF/p0Dhzgmjod1gH/PYcSG6oqinUgDt3tHuNWEQ2iqsmTJtNcwDfVWpiMMqQ1KiL71Nwqp8xqKcSQ7K0YWC/kQYhEK+p5BHUgBim+HOsViumLSpVIDvOZIST+AYR3AXUSAvc8IgETm+oK0PhJ1Drh2uEpUb8DBpa1znMHmnzN2CcCv0c4y7xWIoLGYtf/cobK8MjGMkJUQSyouHNte4IAjuBsFNJAcF8jIn7BzyXbm+KzfgiU1u04QSwk4XfUShqI4pqqXkwJjHuFixfaRvF/ja4PvPcOdYkFBRe2gvk7hj8gNjUSmAtta4zqGfDleJyg14EknIFxIylALoZyZxRRDTVnSBhsS2C1piB0MgMe8wohaPyLZWtHVE2Cnk/RV5XxHuTJ8E8kBRqxTAxMXelYJtMeavuAFWCAV1T0GNpAEYz5TxvCEMEioWxjOSyGMbuXG4XGgrk7iFqFEY8xljzqQChQONQdN59h1T1GtcEIr6PUU9JtyKlrjsM0mXzNGMMBclh7zzeLNery/46L//jHcj93zdio+5aIkLMf04o71MclCgrTlhENo6pqml5ECeMzGBbFCITWyTUFTBlZqJW+OC0NYNbU0kB4XYMSNah8tFN+LwO9tQXkAflojklPktFEnsmOAtfbnDb0VLHNlChUefZrhzrFNC/YyhcPJiUCCxc8JOoaAKi9rDxK1xQUJtcbSZUNDvCEPE7GofcBfYD9CPe/oxkgL4+gXuNVYIbd3Q1kQKoK01Lkio8Erkp1FC/YzBYZVQ2AeBaLkV8pK8zgi3UqIAYgSyxuXC1ztcLnx9JhHHmVB+PLS1xgUhP4WFVyI/jRLqZwyFyY9BgcKbE3ZKqAAUYvsZSmyJAigUiEaIlr68oisrwq1Q1JlECAQK++KhrTUuCH2qKz+NEupnDA6rhAKTPCfslAiBDOjnV8IYCs/rFNJI4p74BIuSYsp9JMqY/mZMA8Jc6EsmEQKhrfe0NSbMhbbWuCChwmNMJpBnFCi8OWGnUACFAvHEFkCoLYWYMdNO8Mc8ioqJry/sh4evf1x/d8HfRqgtLbGAhAqPPuWOqU1C/YzBYZWJLbyGCa7Wsf2MKKYogXiYpGPmaCkFUFB3FNQ14X+hD8EVXyOOaM/QXp1jOmNMmeSwbTxdEOpnDA6rTGzhNUydArmnmEZSQGxbcEW/phJAN+9WTgj9xC6Y1wVhIfRhJHFHPd9mYbFouXcqpzSV2z/6lUnEsa9p6GfhmGNwWGVIyBrXNQ8UokoB9NNP6mssRJ1tZbR1hq8d+jDHqURAsbyiVlaEW2HVjz4WMR6Hy4V+ZZKAQEL9jKFyAx4SssZ1TfAvWdDPTOImLtgWBRV9jKA4K69k36PAij8njOEz4znB50JuZrhzLMQX2hpKAeTmcR1xL2oa+lm5vis34CG5a1znhBLCxEWvkhT1KTW9INyKQmyBcmRb8Fbci2TFx8ooF+ptb9/z4PsH7zPM4VfcAAvxQJ5VCqCtNa5z6KfDVaJyAx4SkkncytwoFLUvwkxyoJ8jiTyzw1sSfIfPBcGtKNIjwhhmtHeJrwzj+IC7wKIgLyGxDxH7I2GQkNh0c5f6RNg1X8j3UCpSl0BmuHOsa65IylRy0BKFAB9p6wKfCwKJ3pGemFKsbynWFXFplJ2D/t8SjiSeB8ahUgDzN8b5doPQ/0v6PyPcigJ9nBN2TXDcMTisMjsUSiOEVjcPxbCUuD9Q4IvhFcWwItyKUrAcdZaM/YiPUdBHf9y6pN2llEARN9/rA9/rhI9luKJQplIA8/cptt1QTmhrQlvvCDuFPAdrIYZaBELRjST+6NIYJCX4yzz0dYY7x2J4S3Hd4XOpUBBTiu09xbYgzkU3R5ZrwpGU54H+qxSgCI/2Hwlj+EJ7QymA/GaSwHGbWrihFiZSEYdVRoEkzwk7h6J7RdGtCLfCBI4kUswkOfgmXHfYRV7iv4dwP8FW2FI2DGVzYb6g3aHsCLkovJN5EPiU7/GGMAh9vScfIymA/H7F+b53SszYY3BYZZQiQSA+MZ1DYi7Jy4xwK1qyr7QXTLQCbc4Jk4FivqGYJ1KAbnLxSDjAgpCLU1KxINyKbna7T4SdE+prLLUIxMNKtGIlOiLsFAojePZklZvhzrEYMo4VZ/hCaHOMu8VS4DN9PsEXwpxNmLN3hDHEHK/GuCRyQF8drjK1NOIhOZmkcfYMHovo60gij1keVqNLVqMZYSEU3JSCe0PYJZ/pr2YFx0yPbu4enwgHWBDyGlx4GH/0Zb9hgmKOxWG1QHLuSM41YedQIMGCpr8r+ntEGITiCIrOo5sjy4LwV6x16Kf/v2CdMPalBGCR+IC7wKIgp8dF7epGcI+EnUMe7pmvkdSAw2pBS/ywW9PEJAiBTBDIO8IoaPOGNicSQIE8zAm74IqVcyoBtORcMfZ7xj6SAhDcGHeLpcBb8nCHr4zDakE3q+dXwhRYkaBX+FyU/pZ9+sQqesYqmkkAxBe9O9UJ/XtF91aEuehmpf9EOMCioN3guBlzKscr399TursgrExtAvGwivhOvcZSILiaMql3TOo1YSxR/2Ma2u2kWBhvcD6ZI7+7qcTzQLsqBehGdI+EncNu9ze73YCwFhxWGxRG2YJrDBIVvDfoDrsI7fo34Wd5IlHapFi+ErYO4i1cORHHH7iRlCDUpod5n5LDN4Qp8BFBX+BrwWG1oSXPtk3D5PpCzqQAimaMu8XKMGMSLvE/QLF0uUhk9OsM/wOM8w/cSErAYhC8e2hCu8cTb8nBHb4WHFYb2uHqmUNuwbyE4lngXmNlmCLAt+hvRfwviOMacdwRdsmUMV/h/0U3c3JLOJISIA7/RGyYvRjfNhhzSruHMCen9HlBWAsOq5Udi60xSFhwF9Hd3wCvsAXmC2pIoQwlDVbYAvOcYAOsLFcIbSoF6EZ8j4S7tF87zEGt9w+Pw2oFgYxxt1gSkLTgDzB6WAknFPg7woOHnAWPVh5y1uVx8gdi+10Gh9WKpncm9USdSxF3Jgn8NEDHfGHX9S8bV8S56O67bmPQ71qPV57aBeKh0HwnX2OpEPV4VjkylH2q1SdYgf29Q7OIImOO5ziVdPjCIjiUmmlKIGPcLZYSuU+eXqKsjIgkO0SRsIhcIo4ZYSHM70hK/CxbGyDu9xyvxoS10ohAlJWY7fcrYVLEFoAiEvr/ifCQuGIBmUoA3cztI+EASwbm9pS5XRDWSiMC8bDKzHDnWEr4o5ZP5FIC0P+RJLZKNkjUHc1DXuY4lbT4Qv+H0gBNCmQkCRYYW3HUUy1Pak9pGuKB4lKJgHxMyMc7wqRgTm+Y04k0gMMaQdmKOcsvSegRH5OChEadVxU4TswJews76iU76oywEE342MkY/AOYpTRAYwLxpLriPHHFyjmVAOyEa1xviSku3Ty69+IYYEnBYnfPYjeShnBYY2jCu8gThSJRoDDmhL0FgZwhkExy0M0cztcd/HRyDPT/mO4vpSEaFYiHXWRKct8QJgkJPiPBmWyB3eMD7gLrM7mPvzVxccBH+n6Bb4zGBaKb7fmRMFX8ky1/Ds/kBYhjJAk+ZGiIrTspOfDjH0miMG+5i1tdNC4QT+q7iIez7AI3wzwX9PcEf0jMyEEmLBiMXYUcYAMsVR4QtUrDOKxxNP1dxNgz2D38rj8jbJRWBOJhu87EfhDQqIdWdg+Pw1pBbRcxaoLdo/G7xzOtCcTDXWTC+fYdoWHsBPekRt97fI/DWkN5bMgusiD8FTOMUiAO/+P4wyzwawt10qpAPJrYH3Yw9gcEcsPuMZEWaV0gHruwGzvwhYv5UFqmE4GoXdiNkrR5MX9JJwLx2IXdiIWj1T1Hq5F0gMM6g6PWAvcaM4w8ov6IRFN0KhDlqPXt27cFO8kRHw3jBxDHKeJYEHZCpwLxqD3VMvJ5y8X8Dt8ZnQvEw33kjl3kmtAwnnlAHCod47AksPuI8QyX8tZfCOaRjEBUD/fvURn/C/eOTh7pbiMZgXjYRUZyOL+kZGzniqPVVBIhKYF4TCSHC0erqL820ybJCcSDSHySbjHjQEAcnb0MLMJhScKTrSn3kTeERv/5yLHqAp8cyQrEYyI5CD5zKdcsgSdW20haIB6OW5nYT/72laTF4UleILr5JatM7B1J3/DiGGUd/hhJDMkLxKMmkr7hxaFZwjvHM3shEI+aSPrC3ojDszcC8aiJZN/ZK3F49kogHjWR7Ct7Jw7P3gnEoyaSfWMvxeHZS4F41ESyL+ytODx7KxCPmkhSZ6/F4dlrgXjURJIqey8Oz94LxKMmktTohTg8vRCIR00kqdAbcXh6IxCPmki6plfi8PRKIB41kXRF78Th6Z1APGoiaZteisPTS4F41ETSFr0Vh6e3AvHoRiRTETnHjPrptTg8vRbIM/abiY3Qe3F4DkIgHhNJrRyEODwHIxCPiaQWDkYcnoMSiMdEUomDEofn4ATiMZHsxMGJw3OQAvGYSEpxkOLwHKxAPCaSKA5WHJ6DFojHRFLIQYvDc/AC8ZhItnLw4vCYQJ4wkfwPJo4nTCAvMJH8i4njBSaQ7zhwkZg4vsMEsoUDFYmJYwsmkBwOTCQfEccoM3H8gAmkgEMQSar/Z6dUcJhRQJ9FYuII4zAjQB9FYuKIw2FGBH0SiYkjHocZkfRBJCaOcjjMKME+i8TEUR6HGSXZR5GYOHbDYcYO7JNITBy74zBjR/ZBJCaOajjMqEDKIjFxVMdhRkVSFImJox4cZtRASiIxcdSHw4yaSEEkJo56cZhRI12KxMRRPw4zaqYLkZg4msFhRgO0KRITR3M4zGiINkRi4mgWhxkN0qRITBzN4zCjYZoQiYmjHRxmtECdIjFxtIfDjJaoQyQmjnZxmNEiVURi4mgfhxkts4tITBzd4DCjA8qIxMTRHQ4zOiJGJCaObnGY0SFFIjFxdI/DjI7ZJhITRxo4zEiAlyIxcaSDw4xE8CIRkRXiGOONBPg/uGb0jCV3yooAAAAASUVORK5CYII=;" vertex="1" parent="1">
          <mxGeometry x="300" y="480" width="40" height="40" as="geometry" />
        </mxCell>
        <mxCell id="WLZEM4pNa57AKpbWbVrL-36" value="" style="shape=image;verticalLabelPosition=bottom;labelBackgroundColor=default;verticalAlign=top;aspect=fixed;imageAspect=0;image=data:image/png,iVBORw0KGgoAAAANSUhEUgAAAMgAAADICAYAAACtWK6eAAAX80lEQVR4nO2d/XUbt9KHB0n+F11BqAosFZDcUQWSKjBVgegKTFUguYJQFZiugKukANMViK7ATAEx3wehdF9dm7vAcr/A5TznzJmhTwQBg/nhY1dSnBiNo6onzrmjf/75R2XDYL1en+C/x//bAMvkO/j6BW6FCV+7+OWXX1bz+fyBj0aDOMyoibOzs/88ieBfAVDUQ/xQmsWLZoEt+X5Lvt/i559/fsiybMW/GRVxmLEjz4KgKFXYKCQhEMsCl9G3zASzOyaQEihHpW/fvr3xIYV3gt8bXgrmr7/++khsRGACCaD/L4oLimso/WCFYKY//fTTPTuLF46RgwlkC6o6RBTnhCNEcYLvLQhlKSIzE8t2TCAv+O2337woxpjKAfIklsmff/55jzfAYQfP77//7o9QE3aLoRjPQrl72lVWxAfLwQpEVQcco64JRyaMXPxdxQvl/aEK5eAEok/CQBRjPg4wI44pj4tvEMpSDoiDEog/Sq3X6zvCAWaU598dhTvKDfFB4LDeo8ALvXc+FKMyiGTJseuK3SSTntNrgSjHKYRxSzgSowkyjl1eKEvpKb0VCMcpf8+YiB2nGocdZcKO0suLfO8Eoptd44MPxWgNRLJAJH43WfCxN/RKIKp6gTj+IBxgRvv4S7x/0fieuBf0RiAcqW45Uo0Jje6ZPd1NVsR7zd4LRDc/N/UBcZzw0UgEdpIlR65LRLLg496y1wL57bffRiJyiw0wI0EQij9y3RDuJQ7bSzhSXbNr3BEa6TP966+/rvB7h8P2DnYOfxEfibFP7OW9ZO8EYuLYXzhu+UfBZ/skkr0RiPJ+g8v4fG2X8b3mSST+8r6UPWAvBKImjr6x4rjld5IFcdIkLxDdPMadr+13NvrGXogkaYGo7Rx9J3mRJCsQNXEcBNxJ/AvFU0Sy4mNyJCsQnlZ9wF1gRs9BJP7i7neSFR+TIkmBIA57lHtgpCqS5ATCG/I7jlXXhMbhkdwbd4clAzvHSET87mEcLkmJxGFJoPDPP//MCQ3jCpFMJQGSEIjyxApxPBIOMMNI5vFvEgLhaDXHqRjGE6lc2jsXCOIY424xw/iezu8jDusMVT3haPWJ0DDy6PQ+0plAlHsHb8o/8Uh3KIaRj7+P+DftS+mAzgTC0eoD7gIzjBAZu8gZvnUc1joKHK38xdwwYunkqNWJQHhb/ri2o5VRDn/UOuaotSJujdYFgjgmiOMdoWGUgke/7//8888xYWu0KhDlYs7R6pFwgBlGadhF/IV9QdgKrQqE3WPK7vGG0DB2pdULu8NaQYHdY05oGFVp7cLemkDYPfw7jxNCw6jKCoG8wjdOKwJRsN3DqJlWdpFWBMJLQS8OFcOoCZ5oLXmidUzYKA5rFIXUdw+S/TfHvzFPSBZ8lG/fvl3gxvzbEf5Q+OKcm+FXjPsEf46lTuO7SOMCYfeY4VJO9meEodl3L6BU9QShZBTLER97DcK4ZzUeyQsUGP8s5fHT7wX9PiVsDIc1hqoO2T0eCVNlqzieQdxj3C3WZx5YhVW2oHuwSDB/Z8xfJg3hsMbgydWU5L4hTA5Wn79/+uknzQpeOunmxeZXwt5CgV2SgxnhVjR9kTT6XsRhjaAJ7x4x4niGXWSN6y0I5Jg8LKUAcjCShP+YBmM4ZQzBudyFxgRCUse4Wyw5SOglCZ0RFqKsnoj8E2FvIRdn5CKTACnPJwteYz+j1ZhAOF4l+WKwTDIpijlOpd/MOKJc4oOQjxnuHEuNFWN4ha+dRgSi6a68n0nkCT4IxTDG3WKHwBV5mUoA5U7GfWTJwnfEx6RgJ4w6FZSlEYGwe9yRxGvCZGDn8PeOE5K4lACIYyQJn7mbgAI7JTcLwkIUWPzmhEnB/P7wqLoOHFY7CORxnd4vRL1llbzDF6KqFxTAB8JDY4VI/H1kQVwI8zthft8RpkQjx6zaBaJpHq8+k7wTfCG66fuccIAdIl4kfidZSgGa6FGLvl/S9xlhbdQuEFaX5I5XJM6vjJkUoJtJn68TfLDQMlHvFRI9hn6k7xf42nBYrSCQx3VCx6vYsykT7id7JIbP2Q05m0gAcpaJyH+wZEAgDlcbtTamCb4cZPc4ZvNYSgG6+73jI5bxPZbsPifEYxaHI3xnUNx/4+54IDHDC+M64d/uyvaLMZ2Rt0wKUKD9OWEyxPS7DLUKhBVlJAltuxTGPSvhSArQzdHKv7MZSjneslrd4f+LbhaIGeFrrHUYr39Sp9l3F21ljPQrkxL9oq2oHydnzjNJaBeh3zf0eyI14bDa4Hg1pdDeECYBq8kxxbKUAujzhD6/IyxD7nsD3Vz0PxF2QVG/BvQrk3IiCRabAu3OCVPhgRyo1ITDaoNie1yXX4kbgcm9Z3JHUoBuVvxHwmhoN/gmvqtVlQXhFQvCinArinjZLTPm6IiPMUQ91WK8C9xrLAkQiMPVQm0N6Q7F1iRM7BkTm0kBCHpKsbwhjCVqdaJgZrhzrFXom8MVoiXvWywIwYWG8Y4koaN1zNzH4rBaSCxJXyiWoRSgJQVNofjz/TArWKGfQXj+TnNC2CoUhl/tF4SF0D9/ab8mjIJ2j2l3KQXQ5oo2jwg7h7m6QdQTqYHaBEKCyq7GTfLDBfp7yvaXIjmjSDIJoIDw5oRdkDHuM3wQFrSliPyKBaHg7im4kRRQNp8N80AeVGrAYbVAgjpZNbdBMR9Ty0vJQTcX1kfCARZDVMK1fLtNEFwcPAr0dU4Yg7+L+JyuiLei3G9o7xNhCtT2YycOqwVWpDUuBT6TnBN8LvR1JCWOg0/FsZQCFHFwAZ6vE1gk6G/UUYs8zHDnWAxvyesdPhfaW0rkrtQ09LWW2q6lES15nm8SjgM3HAcmUkCZ3Y727mlvJAEojjlOJQ2CK75HS6z65CH4BxLI6x15vSbsHMZ/xvgzqYjDKqNAon2BdE4oMVpSzLR3THNLKYDCmFAY7whTImMVPcMXgrAziXwkHcqFlnxC1iT09ZK+zggr4bDKkOQx7hbrHIqicExl+sqqGdw9tKTgvuMz3yPj6diMeMWELvCirOw4f2S7QHgqu79juCIfUylAyxV14TFLOWbS1lfCziGvN8zdRCrisMoktII+MIEqBSCQGe4cCxKzCtHeHKdSjgfanmQgEShQeBOJXOmfoUhif1xkKXF3h5j8LnCvsU5h7PeMfSQVcVhlSEomJSevCUjKDUmZSAH09StugBVCW3/TVuF/p0Dhzgmjod1gH/PYcSG6oqinUgDt3tHuNWEQ2iqsmTJtNcwDfVWpiMMqQ1KiL71Nwqp8xqKcSQ7K0YWC/kQYhEK+p5BHUgBim+HOsViumLSpVIDvOZIST+AYR3AXUSAvc8IgETm+oK0PhJ1Drh2uEpUb8DBpa1znMHmnzN2CcCv0c4y7xWIoLGYtf/cobK8MjGMkJUQSyouHNte4IAjuBsFNJAcF8jIn7BzyXbm+KzfgiU1u04QSwk4XfUShqI4pqqXkwJjHuFixfaRvF/ja4PvPcOdYkFBRe2gvk7hj8gNjUSmAtta4zqGfDleJyg14EknIFxIylALoZyZxRRDTVnSBhsS2C1piB0MgMe8wohaPyLZWtHVE2Cnk/RV5XxHuTJ8E8kBRqxTAxMXelYJtMeavuAFWCAV1T0GNpAEYz5TxvCEMEioWxjOSyGMbuXG4XGgrk7iFqFEY8xljzqQChQONQdN59h1T1GtcEIr6PUU9JtyKlrjsM0mXzNGMMBclh7zzeLNery/46L//jHcj93zdio+5aIkLMf04o71MclCgrTlhENo6pqml5ECeMzGBbFCITWyTUFTBlZqJW+OC0NYNbU0kB4XYMSNah8tFN+LwO9tQXkAflojklPktFEnsmOAtfbnDb0VLHNlChUefZrhzrFNC/YyhcPJiUCCxc8JOoaAKi9rDxK1xQUJtcbSZUNDvCEPE7GofcBfYD9CPe/oxkgL4+gXuNVYIbd3Q1kQKoK01Lkio8Erkp1FC/YzBYZVQ2AeBaLkV8pK8zgi3UqIAYgSyxuXC1ztcLnx9JhHHmVB+PLS1xgUhP4WFVyI/jRLqZwyFyY9BgcKbE3ZKqAAUYvsZSmyJAigUiEaIlr68oisrwq1Q1JlECAQK++KhrTUuCH2qKz+NEupnDA6rhAKTPCfslAiBDOjnV8IYCs/rFNJI4p74BIuSYsp9JMqY/mZMA8Jc6EsmEQKhrfe0NSbMhbbWuCChwmNMJpBnFCi8OWGnUACFAvHEFkCoLYWYMdNO8Mc8ioqJry/sh4evf1x/d8HfRqgtLbGAhAqPPuWOqU1C/YzBYZWJLbyGCa7Wsf2MKKYogXiYpGPmaCkFUFB3FNQ14X+hD8EVXyOOaM/QXp1jOmNMmeSwbTxdEOpnDA6rTGzhNUydArmnmEZSQGxbcEW/phJAN+9WTgj9xC6Y1wVhIfRhJHFHPd9mYbFouXcqpzSV2z/6lUnEsa9p6GfhmGNwWGVIyBrXNQ8UokoB9NNP6mssRJ1tZbR1hq8d+jDHqURAsbyiVlaEW2HVjz4WMR6Hy4V+ZZKAQEL9jKFyAx4SssZ1TfAvWdDPTOImLtgWBRV9jKA4K69k36PAij8njOEz4znB50JuZrhzLMQX2hpKAeTmcR1xL2oa+lm5vis34CG5a1znhBLCxEWvkhT1KTW9INyKQmyBcmRb8Fbci2TFx8ooF+ptb9/z4PsH7zPM4VfcAAvxQJ5VCqCtNa5z6KfDVaJyAx4SkkncytwoFLUvwkxyoJ8jiTyzw1sSfIfPBcGtKNIjwhhmtHeJrwzj+IC7wKIgLyGxDxH7I2GQkNh0c5f6RNg1X8j3UCpSl0BmuHOsa65IylRy0BKFAB9p6wKfCwKJ3pGemFKsbynWFXFplJ2D/t8SjiSeB8ahUgDzN8b5doPQ/0v6PyPcigJ9nBN2TXDcMTisMjsUSiOEVjcPxbCUuD9Q4IvhFcWwItyKUrAcdZaM/YiPUdBHf9y6pN2llEARN9/rA9/rhI9luKJQplIA8/cptt1QTmhrQlvvCDuFPAdrIYZaBELRjST+6NIYJCX4yzz0dYY7x2J4S3Hd4XOpUBBTiu09xbYgzkU3R5ZrwpGU54H+qxSgCI/2Hwlj+EJ7QymA/GaSwHGbWrihFiZSEYdVRoEkzwk7h6J7RdGtCLfCBI4kUswkOfgmXHfYRV7iv4dwP8FW2FI2DGVzYb6g3aHsCLkovJN5EPiU7/GGMAh9vScfIymA/H7F+b53SszYY3BYZZQiQSA+MZ1DYi7Jy4xwK1qyr7QXTLQCbc4Jk4FivqGYJ1KAbnLxSDjAgpCLU1KxINyKbna7T4SdE+prLLUIxMNKtGIlOiLsFAojePZklZvhzrEYMo4VZ/hCaHOMu8VS4DN9PsEXwpxNmLN3hDHEHK/GuCRyQF8drjK1NOIhOZmkcfYMHovo60gij1keVqNLVqMZYSEU3JSCe0PYJZ/pr2YFx0yPbu4enwgHWBDyGlx4GH/0Zb9hgmKOxWG1QHLuSM41YedQIMGCpr8r+ntEGITiCIrOo5sjy4LwV6x16Kf/v2CdMPalBGCR+IC7wKIgp8dF7epGcI+EnUMe7pmvkdSAw2pBS/ywW9PEJAiBTBDIO8IoaPOGNicSQIE8zAm74IqVcyoBtORcMfZ7xj6SAhDcGHeLpcBb8nCHr4zDakE3q+dXwhRYkaBX+FyU/pZ9+sQqesYqmkkAxBe9O9UJ/XtF91aEuehmpf9EOMCioN3guBlzKscr399TursgrExtAvGwivhOvcZSILiaMql3TOo1YSxR/2Ma2u2kWBhvcD6ZI7+7qcTzQLsqBehGdI+EncNu9ze73YCwFhxWGxRG2YJrDBIVvDfoDrsI7fo34Wd5IlHapFi+ErYO4i1cORHHH7iRlCDUpod5n5LDN4Qp8BFBX+BrwWG1oSXPtk3D5PpCzqQAimaMu8XKMGMSLvE/QLF0uUhk9OsM/wOM8w/cSErAYhC8e2hCu8cTb8nBHb4WHFYb2uHqmUNuwbyE4lngXmNlmCLAt+hvRfwviOMacdwRdsmUMV/h/0U3c3JLOJISIA7/RGyYvRjfNhhzSruHMCen9HlBWAsOq5Udi60xSFhwF9Hd3wCvsAXmC2pIoQwlDVbYAvOcYAOsLFcIbSoF6EZ8j4S7tF87zEGt9w+Pw2oFgYxxt1gSkLTgDzB6WAknFPg7woOHnAWPVh5y1uVx8gdi+10Gh9WKpncm9USdSxF3Jgn8NEDHfGHX9S8bV8S56O67bmPQ71qPV57aBeKh0HwnX2OpEPV4VjkylH2q1SdYgf29Q7OIImOO5ziVdPjCIjiUmmlKIGPcLZYSuU+eXqKsjIgkO0SRsIhcIo4ZYSHM70hK/CxbGyDu9xyvxoS10ohAlJWY7fcrYVLEFoAiEvr/ifCQuGIBmUoA3cztI+EASwbm9pS5XRDWSiMC8bDKzHDnWEr4o5ZP5FIC0P+RJLZKNkjUHc1DXuY4lbT4Qv+H0gBNCmQkCRYYW3HUUy1Pak9pGuKB4lKJgHxMyMc7wqRgTm+Y04k0gMMaQdmKOcsvSegRH5OChEadVxU4TswJews76iU76oywEE342MkY/AOYpTRAYwLxpLriPHHFyjmVAOyEa1xviSku3Ty69+IYYEnBYnfPYjeShnBYY2jCu8gThSJRoDDmhL0FgZwhkExy0M0cztcd/HRyDPT/mO4vpSEaFYiHXWRKct8QJgkJPiPBmWyB3eMD7gLrM7mPvzVxccBH+n6Bb4zGBaKb7fmRMFX8ky1/Ds/kBYhjJAk+ZGiIrTspOfDjH0miMG+5i1tdNC4QT+q7iIez7AI3wzwX9PcEf0jMyEEmLBiMXYUcYAMsVR4QtUrDOKxxNP1dxNgz2D38rj8jbJRWBOJhu87EfhDQqIdWdg+Pw1pBbRcxaoLdo/G7xzOtCcTDXWTC+fYdoWHsBPekRt97fI/DWkN5bMgusiD8FTOMUiAO/+P4wyzwawt10qpAPJrYH3Yw9gcEcsPuMZEWaV0gHruwGzvwhYv5UFqmE4GoXdiNkrR5MX9JJwLx2IXdiIWj1T1Hq5F0gMM6g6PWAvcaM4w8ov6IRFN0KhDlqPXt27cFO8kRHw3jBxDHKeJYEHZCpwLxqD3VMvJ5y8X8Dt8ZnQvEw33kjl3kmtAwnnlAHCod47AksPuI8QyX8tZfCOaRjEBUD/fvURn/C/eOTh7pbiMZgXjYRUZyOL+kZGzniqPVVBIhKYF4TCSHC0erqL820ybJCcSDSHySbjHjQEAcnb0MLMJhScKTrSn3kTeERv/5yLHqAp8cyQrEYyI5CD5zKdcsgSdW20haIB6OW5nYT/72laTF4UleILr5JatM7B1J3/DiGGUd/hhJDMkLxKMmkr7hxaFZwjvHM3shEI+aSPrC3ojDszcC8aiJZN/ZK3F49kogHjWR7Ct7Jw7P3gnEoyaSfWMvxeHZS4F41ESyL+ytODx7KxCPmkhSZ6/F4dlrgXjURJIqey8Oz94LxKMmktTohTg8vRCIR00kqdAbcXh6IxCPmki6plfi8PRKIB41kXRF78Th6Z1APGoiaZteisPTS4F41ETSFr0Vh6e3AvHoRiRTETnHjPrptTg8vRbIM/abiY3Qe3F4DkIgHhNJrRyEODwHIxCPiaQWDkYcnoMSiMdEUomDEofn4ATiMZHsxMGJw3OQAvGYSEpxkOLwHKxAPCaSKA5WHJ6DFojHRFLIQYvDc/AC8ZhItnLw4vCYQJ4wkfwPJo4nTCAvMJH8i4njBSaQ7zhwkZg4vsMEsoUDFYmJYwsmkBwOTCQfEccoM3H8gAmkgEMQSar/Z6dUcJhRQJ9FYuII4zAjQB9FYuKIw2FGBH0SiYkjHocZkfRBJCaOcjjMKME+i8TEUR6HGSXZR5GYOHbDYcYO7JNITBy74zBjR/ZBJCaOajjMqEDKIjFxVMdhRkVSFImJox4cZtRASiIxcdSHw4yaSEEkJo56cZhRI12KxMRRPw4zaqYLkZg4msFhRgO0KRITR3M4zGiINkRi4mgWhxkN0qRITBzN4zCjYZoQiYmjHRxmtECdIjFxtIfDjJaoQyQmjnZxmNEiVURi4mgfhxkts4tITBzd4DCjA8qIxMTRHQ4zOiJGJCaObnGY0SFFIjFxdI/DjI7ZJhITRxo4zEiAlyIxcaSDw4xE8CIRkRXiGOONBPg/uGb0jCV3yooAAAAASUVORK5CYII=;" vertex="1" parent="1">
          <mxGeometry x="160" y="380" width="40" height="40" as="geometry" />
        </mxCell>
        <mxCell id="WLZEM4pNa57AKpbWbVrL-38" value="" style="shape=image;verticalLabelPosition=bottom;labelBackgroundColor=default;verticalAlign=top;aspect=fixed;imageAspect=0;image=data:image/png,iVBORw0KGgoAAAANSUhEUgAAAMgAAADICAYAAACtWK6eAAAX80lEQVR4nO2d/XUbt9KHB0n+F11BqAosFZDcUQWSKjBVgegKTFUguYJQFZiugKukANMViK7ATAEx3wehdF9dm7vAcr/A5TznzJmhTwQBg/nhY1dSnBiNo6onzrmjf/75R2XDYL1en+C/x//bAMvkO/j6BW6FCV+7+OWXX1bz+fyBj0aDOMyoibOzs/88ieBfAVDUQ/xQmsWLZoEt+X5Lvt/i559/fsiybMW/GRVxmLEjz4KgKFXYKCQhEMsCl9G3zASzOyaQEihHpW/fvr3xIYV3gt8bXgrmr7/++khsRGACCaD/L4oLimso/WCFYKY//fTTPTuLF46RgwlkC6o6RBTnhCNEcYLvLQhlKSIzE8t2TCAv+O2337woxpjKAfIklsmff/55jzfAYQfP77//7o9QE3aLoRjPQrl72lVWxAfLwQpEVQcco64JRyaMXPxdxQvl/aEK5eAEok/CQBRjPg4wI44pj4tvEMpSDoiDEog/Sq3X6zvCAWaU598dhTvKDfFB4LDeo8ALvXc+FKMyiGTJseuK3SSTntNrgSjHKYRxSzgSowkyjl1eKEvpKb0VCMcpf8+YiB2nGocdZcKO0suLfO8Eoptd44MPxWgNRLJAJH43WfCxN/RKIKp6gTj+IBxgRvv4S7x/0fieuBf0RiAcqW45Uo0Jje6ZPd1NVsR7zd4LRDc/N/UBcZzw0UgEdpIlR65LRLLg496y1wL57bffRiJyiw0wI0EQij9y3RDuJQ7bSzhSXbNr3BEa6TP966+/rvB7h8P2DnYOfxEfibFP7OW9ZO8EYuLYXzhu+UfBZ/skkr0RiPJ+g8v4fG2X8b3mSST+8r6UPWAvBKImjr6x4rjld5IFcdIkLxDdPMadr+13NvrGXogkaYGo7Rx9J3mRJCsQNXEcBNxJ/AvFU0Sy4mNyJCsQnlZ9wF1gRs9BJP7i7neSFR+TIkmBIA57lHtgpCqS5ATCG/I7jlXXhMbhkdwbd4clAzvHSET87mEcLkmJxGFJoPDPP//MCQ3jCpFMJQGSEIjyxApxPBIOMMNI5vFvEgLhaDXHqRjGE6lc2jsXCOIY424xw/iezu8jDusMVT3haPWJ0DDy6PQ+0plAlHsHb8o/8Uh3KIaRj7+P+DftS+mAzgTC0eoD7gIzjBAZu8gZvnUc1joKHK38xdwwYunkqNWJQHhb/ri2o5VRDn/UOuaotSJujdYFgjgmiOMdoWGUgke/7//8888xYWu0KhDlYs7R6pFwgBlGadhF/IV9QdgKrQqE3WPK7vGG0DB2pdULu8NaQYHdY05oGFVp7cLemkDYPfw7jxNCw6jKCoG8wjdOKwJRsN3DqJlWdpFWBMJLQS8OFcOoCZ5oLXmidUzYKA5rFIXUdw+S/TfHvzFPSBZ8lG/fvl3gxvzbEf5Q+OKcm+FXjPsEf46lTuO7SOMCYfeY4VJO9meEodl3L6BU9QShZBTLER97DcK4ZzUeyQsUGP8s5fHT7wX9PiVsDIc1hqoO2T0eCVNlqzieQdxj3C3WZx5YhVW2oHuwSDB/Z8xfJg3hsMbgydWU5L4hTA5Wn79/+uknzQpeOunmxeZXwt5CgV2SgxnhVjR9kTT6XsRhjaAJ7x4x4niGXWSN6y0I5Jg8LKUAcjCShP+YBmM4ZQzBudyFxgRCUse4Wyw5SOglCZ0RFqKsnoj8E2FvIRdn5CKTACnPJwteYz+j1ZhAOF4l+WKwTDIpijlOpd/MOKJc4oOQjxnuHEuNFWN4ha+dRgSi6a68n0nkCT4IxTDG3WKHwBV5mUoA5U7GfWTJwnfEx6RgJ4w6FZSlEYGwe9yRxGvCZGDn8PeOE5K4lACIYyQJn7mbgAI7JTcLwkIUWPzmhEnB/P7wqLoOHFY7CORxnd4vRL1llbzDF6KqFxTAB8JDY4VI/H1kQVwI8zthft8RpkQjx6zaBaJpHq8+k7wTfCG66fuccIAdIl4kfidZSgGa6FGLvl/S9xlhbdQuEFaX5I5XJM6vjJkUoJtJn68TfLDQMlHvFRI9hn6k7xf42nBYrSCQx3VCx6vYsykT7id7JIbP2Q05m0gAcpaJyH+wZEAgDlcbtTamCb4cZPc4ZvNYSgG6+73jI5bxPZbsPifEYxaHI3xnUNx/4+54IDHDC+M64d/uyvaLMZ2Rt0wKUKD9OWEyxPS7DLUKhBVlJAltuxTGPSvhSArQzdHKv7MZSjneslrd4f+LbhaIGeFrrHUYr39Sp9l3F21ljPQrkxL9oq2oHydnzjNJaBeh3zf0eyI14bDa4Hg1pdDeECYBq8kxxbKUAujzhD6/IyxD7nsD3Vz0PxF2QVG/BvQrk3IiCRabAu3OCVPhgRyo1ITDaoNie1yXX4kbgcm9Z3JHUoBuVvxHwmhoN/gmvqtVlQXhFQvCinArinjZLTPm6IiPMUQ91WK8C9xrLAkQiMPVQm0N6Q7F1iRM7BkTm0kBCHpKsbwhjCVqdaJgZrhzrFXom8MVoiXvWywIwYWG8Y4koaN1zNzH4rBaSCxJXyiWoRSgJQVNofjz/TArWKGfQXj+TnNC2CoUhl/tF4SF0D9/ab8mjIJ2j2l3KQXQ5oo2jwg7h7m6QdQTqYHaBEKCyq7GTfLDBfp7yvaXIjmjSDIJoIDw5oRdkDHuM3wQFrSliPyKBaHg7im4kRRQNp8N80AeVGrAYbVAgjpZNbdBMR9Ty0vJQTcX1kfCARZDVMK1fLtNEFwcPAr0dU4Yg7+L+JyuiLei3G9o7xNhCtT2YycOqwVWpDUuBT6TnBN8LvR1JCWOg0/FsZQCFHFwAZ6vE1gk6G/UUYs8zHDnWAxvyesdPhfaW0rkrtQ09LWW2q6lES15nm8SjgM3HAcmUkCZ3Y727mlvJAEojjlOJQ2CK75HS6z65CH4BxLI6x15vSbsHMZ/xvgzqYjDKqNAon2BdE4oMVpSzLR3THNLKYDCmFAY7whTImMVPcMXgrAziXwkHcqFlnxC1iT09ZK+zggr4bDKkOQx7hbrHIqicExl+sqqGdw9tKTgvuMz3yPj6diMeMWELvCirOw4f2S7QHgqu79juCIfUylAyxV14TFLOWbS1lfCziGvN8zdRCrisMoktII+MIEqBSCQGe4cCxKzCtHeHKdSjgfanmQgEShQeBOJXOmfoUhif1xkKXF3h5j8LnCvsU5h7PeMfSQVcVhlSEomJSevCUjKDUmZSAH09StugBVCW3/TVuF/p0Dhzgmjod1gH/PYcSG6oqinUgDt3tHuNWEQ2iqsmTJtNcwDfVWpiMMqQ1KiL71Nwqp8xqKcSQ7K0YWC/kQYhEK+p5BHUgBim+HOsViumLSpVIDvOZIST+AYR3AXUSAvc8IgETm+oK0PhJ1Drh2uEpUb8DBpa1znMHmnzN2CcCv0c4y7xWIoLGYtf/cobK8MjGMkJUQSyouHNte4IAjuBsFNJAcF8jIn7BzyXbm+KzfgiU1u04QSwk4XfUShqI4pqqXkwJjHuFixfaRvF/ja4PvPcOdYkFBRe2gvk7hj8gNjUSmAtta4zqGfDleJyg14EknIFxIylALoZyZxRRDTVnSBhsS2C1piB0MgMe8wohaPyLZWtHVE2Cnk/RV5XxHuTJ8E8kBRqxTAxMXelYJtMeavuAFWCAV1T0GNpAEYz5TxvCEMEioWxjOSyGMbuXG4XGgrk7iFqFEY8xljzqQChQONQdN59h1T1GtcEIr6PUU9JtyKlrjsM0mXzNGMMBclh7zzeLNery/46L//jHcj93zdio+5aIkLMf04o71MclCgrTlhENo6pqml5ECeMzGBbFCITWyTUFTBlZqJW+OC0NYNbU0kB4XYMSNah8tFN+LwO9tQXkAflojklPktFEnsmOAtfbnDb0VLHNlChUefZrhzrFNC/YyhcPJiUCCxc8JOoaAKi9rDxK1xQUJtcbSZUNDvCEPE7GofcBfYD9CPe/oxkgL4+gXuNVYIbd3Q1kQKoK01Lkio8Erkp1FC/YzBYZVQ2AeBaLkV8pK8zgi3UqIAYgSyxuXC1ztcLnx9JhHHmVB+PLS1xgUhP4WFVyI/jRLqZwyFyY9BgcKbE3ZKqAAUYvsZSmyJAigUiEaIlr68oisrwq1Q1JlECAQK++KhrTUuCH2qKz+NEupnDA6rhAKTPCfslAiBDOjnV8IYCs/rFNJI4p74BIuSYsp9JMqY/mZMA8Jc6EsmEQKhrfe0NSbMhbbWuCChwmNMJpBnFCi8OWGnUACFAvHEFkCoLYWYMdNO8Mc8ioqJry/sh4evf1x/d8HfRqgtLbGAhAqPPuWOqU1C/YzBYZWJLbyGCa7Wsf2MKKYogXiYpGPmaCkFUFB3FNQ14X+hD8EVXyOOaM/QXp1jOmNMmeSwbTxdEOpnDA6rTGzhNUydArmnmEZSQGxbcEW/phJAN+9WTgj9xC6Y1wVhIfRhJHFHPd9mYbFouXcqpzSV2z/6lUnEsa9p6GfhmGNwWGVIyBrXNQ8UokoB9NNP6mssRJ1tZbR1hq8d+jDHqURAsbyiVlaEW2HVjz4WMR6Hy4V+ZZKAQEL9jKFyAx4SssZ1TfAvWdDPTOImLtgWBRV9jKA4K69k36PAij8njOEz4znB50JuZrhzLMQX2hpKAeTmcR1xL2oa+lm5vis34CG5a1znhBLCxEWvkhT1KTW9INyKQmyBcmRb8Fbci2TFx8ooF+ptb9/z4PsH7zPM4VfcAAvxQJ5VCqCtNa5z6KfDVaJyAx4SkkncytwoFLUvwkxyoJ8jiTyzw1sSfIfPBcGtKNIjwhhmtHeJrwzj+IC7wKIgLyGxDxH7I2GQkNh0c5f6RNg1X8j3UCpSl0BmuHOsa65IylRy0BKFAB9p6wKfCwKJ3pGemFKsbynWFXFplJ2D/t8SjiSeB8ahUgDzN8b5doPQ/0v6PyPcigJ9nBN2TXDcMTisMjsUSiOEVjcPxbCUuD9Q4IvhFcWwItyKUrAcdZaM/YiPUdBHf9y6pN2llEARN9/rA9/rhI9luKJQplIA8/cptt1QTmhrQlvvCDuFPAdrIYZaBELRjST+6NIYJCX4yzz0dYY7x2J4S3Hd4XOpUBBTiu09xbYgzkU3R5ZrwpGU54H+qxSgCI/2Hwlj+EJ7QymA/GaSwHGbWrihFiZSEYdVRoEkzwk7h6J7RdGtCLfCBI4kUswkOfgmXHfYRV7iv4dwP8FW2FI2DGVzYb6g3aHsCLkovJN5EPiU7/GGMAh9vScfIymA/H7F+b53SszYY3BYZZQiQSA+MZ1DYi7Jy4xwK1qyr7QXTLQCbc4Jk4FivqGYJ1KAbnLxSDjAgpCLU1KxINyKbna7T4SdE+prLLUIxMNKtGIlOiLsFAojePZklZvhzrEYMo4VZ/hCaHOMu8VS4DN9PsEXwpxNmLN3hDHEHK/GuCRyQF8drjK1NOIhOZmkcfYMHovo60gij1keVqNLVqMZYSEU3JSCe0PYJZ/pr2YFx0yPbu4enwgHWBDyGlx4GH/0Zb9hgmKOxWG1QHLuSM41YedQIMGCpr8r+ntEGITiCIrOo5sjy4LwV6x16Kf/v2CdMPalBGCR+IC7wKIgp8dF7epGcI+EnUMe7pmvkdSAw2pBS/ywW9PEJAiBTBDIO8IoaPOGNicSQIE8zAm74IqVcyoBtORcMfZ7xj6SAhDcGHeLpcBb8nCHr4zDakE3q+dXwhRYkaBX+FyU/pZ9+sQqesYqmkkAxBe9O9UJ/XtF91aEuehmpf9EOMCioN3guBlzKscr399TursgrExtAvGwivhOvcZSILiaMql3TOo1YSxR/2Ma2u2kWBhvcD6ZI7+7qcTzQLsqBehGdI+EncNu9ze73YCwFhxWGxRG2YJrDBIVvDfoDrsI7fo34Wd5IlHapFi+ErYO4i1cORHHH7iRlCDUpod5n5LDN4Qp8BFBX+BrwWG1oSXPtk3D5PpCzqQAimaMu8XKMGMSLvE/QLF0uUhk9OsM/wOM8w/cSErAYhC8e2hCu8cTb8nBHb4WHFYb2uHqmUNuwbyE4lngXmNlmCLAt+hvRfwviOMacdwRdsmUMV/h/0U3c3JLOJISIA7/RGyYvRjfNhhzSruHMCen9HlBWAsOq5Udi60xSFhwF9Hd3wCvsAXmC2pIoQwlDVbYAvOcYAOsLFcIbSoF6EZ8j4S7tF87zEGt9w+Pw2oFgYxxt1gSkLTgDzB6WAknFPg7woOHnAWPVh5y1uVx8gdi+10Gh9WKpncm9USdSxF3Jgn8NEDHfGHX9S8bV8S56O67bmPQ71qPV57aBeKh0HwnX2OpEPV4VjkylH2q1SdYgf29Q7OIImOO5ziVdPjCIjiUmmlKIGPcLZYSuU+eXqKsjIgkO0SRsIhcIo4ZYSHM70hK/CxbGyDu9xyvxoS10ohAlJWY7fcrYVLEFoAiEvr/ifCQuGIBmUoA3cztI+EASwbm9pS5XRDWSiMC8bDKzHDnWEr4o5ZP5FIC0P+RJLZKNkjUHc1DXuY4lbT4Qv+H0gBNCmQkCRYYW3HUUy1Pak9pGuKB4lKJgHxMyMc7wqRgTm+Y04k0gMMaQdmKOcsvSegRH5OChEadVxU4TswJews76iU76oywEE342MkY/AOYpTRAYwLxpLriPHHFyjmVAOyEa1xviSku3Ty69+IYYEnBYnfPYjeShnBYY2jCu8gThSJRoDDmhL0FgZwhkExy0M0cztcd/HRyDPT/mO4vpSEaFYiHXWRKct8QJgkJPiPBmWyB3eMD7gLrM7mPvzVxccBH+n6Bb4zGBaKb7fmRMFX8ky1/Ds/kBYhjJAk+ZGiIrTspOfDjH0miMG+5i1tdNC4QT+q7iIez7AI3wzwX9PcEf0jMyEEmLBiMXYUcYAMsVR4QtUrDOKxxNP1dxNgz2D38rj8jbJRWBOJhu87EfhDQqIdWdg+Pw1pBbRcxaoLdo/G7xzOtCcTDXWTC+fYdoWHsBPekRt97fI/DWkN5bMgusiD8FTOMUiAO/+P4wyzwawt10qpAPJrYH3Yw9gcEcsPuMZEWaV0gHruwGzvwhYv5UFqmE4GoXdiNkrR5MX9JJwLx2IXdiIWj1T1Hq5F0gMM6g6PWAvcaM4w8ov6IRFN0KhDlqPXt27cFO8kRHw3jBxDHKeJYEHZCpwLxqD3VMvJ5y8X8Dt8ZnQvEw33kjl3kmtAwnnlAHCod47AksPuI8QyX8tZfCOaRjEBUD/fvURn/C/eOTh7pbiMZgXjYRUZyOL+kZGzniqPVVBIhKYF4TCSHC0erqL820ybJCcSDSHySbjHjQEAcnb0MLMJhScKTrSn3kTeERv/5yLHqAp8cyQrEYyI5CD5zKdcsgSdW20haIB6OW5nYT/72laTF4UleILr5JatM7B1J3/DiGGUd/hhJDMkLxKMmkr7hxaFZwjvHM3shEI+aSPrC3ojDszcC8aiJZN/ZK3F49kogHjWR7Ct7Jw7P3gnEoyaSfWMvxeHZS4F41ESyL+ytODx7KxCPmkhSZ6/F4dlrgXjURJIqey8Oz94LxKMmktTohTg8vRCIR00kqdAbcXh6IxCPmki6plfi8PRKIB41kXRF78Th6Z1APGoiaZteisPTS4F41ETSFr0Vh6e3AvHoRiRTETnHjPrptTg8vRbIM/abiY3Qe3F4DkIgHhNJrRyEODwHIxCPiaQWDkYcnoMSiMdEUomDEofn4ATiMZHsxMGJw3OQAvGYSEpxkOLwHKxAPCaSKA5WHJ6DFojHRFLIQYvDc/AC8ZhItnLw4vCYQJ4wkfwPJo4nTCAvMJH8i4njBSaQ7zhwkZg4vsMEsoUDFYmJYwsmkBwOTCQfEccoM3H8gAmkgEMQSar/Z6dUcJhRQJ9FYuII4zAjQB9FYuKIw2FGBH0SiYkjHocZkfRBJCaOcjjMKME+i8TEUR6HGSXZR5GYOHbDYcYO7JNITBy74zBjR/ZBJCaOajjMqEDKIjFxVMdhRkVSFImJox4cZtRASiIxcdSHw4yaSEEkJo56cZhRI12KxMRRPw4zaqYLkZg4msFhRgO0KRITR3M4zGiINkRi4mgWhxkN0qRITBzN4zCjYZoQiYmjHRxmtECdIjFxtIfDjJaoQyQmjnZxmNEiVURi4mgfhxkts4tITBzd4DCjA8qIxMTRHQ4zOiJGJCaObnGY0SFFIjFxdI/DjI7ZJhITRxo4zEiAlyIxcaSDw4xE8CIRkRXiGOONBPg/uGb0jCV3yooAAAAASUVORK5CYII=;" vertex="1" parent="1">
          <mxGeometry x="30" y="360" width="40" height="40" as="geometry" />
        </mxCell>
        <mxCell id="WLZEM4pNa57AKpbWbVrL-40" value="Garage" style="text;html=1;align=center;verticalAlign=middle;resizable=0;points=[];autosize=1;strokeColor=none;fillColor=none;" vertex="1" parent="1">
          <mxGeometry x="30" y="405" width="60" height="30" as="geometry" />
        </mxCell>
        <mxCell id="WLZEM4pNa57AKpbWbVrL-42" value="GateWay" style="text;html=1;align=center;verticalAlign=middle;resizable=0;points=[];autosize=1;strokeColor=none;fillColor=none;" vertex="1" parent="1">
          <mxGeometry x="375" y="280" width="70" height="30" as="geometry" />
        </mxCell>
        <mxCell id="WLZEM4pNa57AKpbWbVrL-46" value="Swimming Pool" style="text;html=1;align=center;verticalAlign=middle;resizable=0;points=[];autosize=1;strokeColor=none;fillColor=none;" vertex="1" parent="1">
          <mxGeometry x="160" y="440" width="110" height="30" as="geometry" />
        </mxCell>
        <mxCell id="WLZEM4pNa57AKpbWbVrL-47" value="BedRoom" style="text;html=1;align=center;verticalAlign=middle;resizable=0;points=[];autosize=1;strokeColor=none;fillColor=none;" vertex="1" parent="1">
          <mxGeometry x="270" y="518" width="80" height="30" as="geometry" />
        </mxCell>
        <mxCell id="WLZEM4pNa57AKpbWbVrL-48" value="Backyard" style="text;html=1;align=center;verticalAlign=middle;resizable=0;points=[];autosize=1;strokeColor=none;fillColor=none;" vertex="1" parent="1">
          <mxGeometry x="400" y="420" width="70" height="30" as="geometry" />
        </mxCell>
        <mxCell id="WLZEM4pNa57AKpbWbVrL-49" value="Gym" style="text;html=1;align=center;verticalAlign=middle;resizable=0;points=[];autosize=1;strokeColor=none;fillColor=none;" vertex="1" parent="1">
          <mxGeometry x="585" y="435" width="50" height="30" as="geometry" />
        </mxCell>
        <mxCell id="WLZEM4pNa57AKpbWbVrL-50" value="" style="endArrow=classic;startArrow=classic;html=1;rounded=0;exitX=0.5;exitY=1;exitDx=0;exitDy=0;fillColor=#e51400;strokeColor=#B20000;" edge="1" parent="1" source="WLZEM4pNa57AKpbWbVrL-41">
          <mxGeometry width="50" height="50" relative="1" as="geometry">
            <mxPoint x="360" y="340" as="sourcePoint" />
            <mxPoint x="210" y="380" as="targetPoint" />
          </mxGeometry>
        </mxCell>
        <mxCell id="WLZEM4pNa57AKpbWbVrL-51" value="" style="endArrow=classic;html=1;rounded=0;entryX=0.5;entryY=0;entryDx=0;entryDy=0;" edge="1" parent="1" target="WLZEM4pNa57AKpbWbVrL-36">
          <mxGeometry width="50" height="50" relative="1" as="geometry">
            <mxPoint x="350" y="310" as="sourcePoint" />
            <mxPoint x="410" y="290" as="targetPoint" />
          </mxGeometry>
        </mxCell>
        <mxCell id="WLZEM4pNa57AKpbWbVrL-52" value="" style="endArrow=classic;startArrow=classic;html=1;rounded=0;exitX=1;exitY=0.5;exitDx=0;exitDy=0;entryX=0;entryY=0.5;entryDx=0;entryDy=0;fillColor=#e3c800;strokeColor=#B09500;" edge="1" parent="1" source="WLZEM4pNa57AKpbWbVrL-36" target="WLZEM4pNa57AKpbWbVrL-19">
          <mxGeometry width="50" height="50" relative="1" as="geometry">
            <mxPoint x="360" y="340" as="sourcePoint" />
            <mxPoint x="410" y="290" as="targetPoint" />
          </mxGeometry>
        </mxCell>
        <mxCell id="WLZEM4pNa57AKpbWbVrL-53" value="" style="endArrow=classic;html=1;rounded=0;entryX=0.5;entryY=0;entryDx=0;entryDy=0;" edge="1" parent="1" target="WLZEM4pNa57AKpbWbVrL-38">
          <mxGeometry width="50" height="50" relative="1" as="geometry">
            <mxPoint x="350" y="310" as="sourcePoint" />
            <mxPoint x="410" y="290" as="targetPoint" />
          </mxGeometry>
        </mxCell>
        <mxCell id="WLZEM4pNa57AKpbWbVrL-54" value="" style="endArrow=classic;html=1;rounded=0;entryX=0.5;entryY=0;entryDx=0;entryDy=0;" edge="1" parent="1" target="WLZEM4pNa57AKpbWbVrL-34">
          <mxGeometry width="50" height="50" relative="1" as="geometry">
            <mxPoint x="350" y="310" as="sourcePoint" />
            <mxPoint x="410" y="290" as="targetPoint" />
          </mxGeometry>
        </mxCell>
        <mxCell id="WLZEM4pNa57AKpbWbVrL-55" value="" style="endArrow=classic;html=1;rounded=0;entryX=0.5;entryY=0;entryDx=0;entryDy=0;" edge="1" parent="1" target="WLZEM4pNa57AKpbWbVrL-32">
          <mxGeometry width="50" height="50" relative="1" as="geometry">
            <mxPoint x="350" y="310" as="sourcePoint" />
            <mxPoint x="410" y="290" as="targetPoint" />
          </mxGeometry>
        </mxCell>
        <mxCell id="WLZEM4pNa57AKpbWbVrL-56" value="" style="endArrow=classic;html=1;rounded=0;entryX=0.5;entryY=0;entryDx=0;entryDy=0;" edge="1" parent="1" target="WLZEM4pNa57AKpbWbVrL-29">
          <mxGeometry width="50" height="50" relative="1" as="geometry">
            <mxPoint x="350" y="310" as="sourcePoint" />
            <mxPoint x="410" y="290" as="targetPoint" />
          </mxGeometry>
        </mxCell>
        <mxCell id="WLZEM4pNa57AKpbWbVrL-57" value="C_LOR" style="text;html=1;align=center;verticalAlign=middle;resizable=0;points=[];autosize=1;strokeColor=none;fillColor=none;" vertex="1" parent="1">
          <mxGeometry x="180" y="405" width="60" height="30" as="geometry" />
        </mxCell>
        <mxCell id="WLZEM4pNa57AKpbWbVrL-58" value="C_WOR" style="text;html=1;align=center;verticalAlign=middle;resizable=0;points=[];autosize=1;strokeColor=none;fillColor=none;" vertex="1" parent="1">
          <mxGeometry x="145" y="258" width="70" height="30" as="geometry" />
        </mxCell>
      </root>
    </mxGraphModel>
  </diagram>
</mxfile>
